<svg width="144" height="144" viewBox="0 0 144 144" fill="none" xmlns="http://www.w3.org/2000/svg">
<mask id="path-1-inside-1_335_615" fill="white">
<path d="M100.8 9.61891C94.2597 9.41197 87.844 11.4384 82.6092 15.3645C77.3744 19.2906 73.6326 24.8823 72 31.2189C70.3674 24.8823 66.6256 19.2906 61.3908 15.3645C56.156 11.4384 49.7402 9.41197 43.2 9.61891C26.5728 9.09091 21.456 26.8509 27.0528 38.3997H14.4C13.1269 38.3997 11.906 38.9054 11.0059 39.8056C10.1057 40.7058 9.59998 41.9267 9.59998 43.1997V52.7997C9.59998 54.0727 10.1057 55.2936 11.0059 56.1938C11.906 57.094 13.1269 57.5997 14.4 57.5997H129.6C130.873 57.5997 132.094 57.094 132.994 56.1938C133.894 55.2936 134.4 54.0727 134.4 52.7997V43.1997C134.4 41.9267 133.894 40.7058 132.994 39.8056C132.094 38.9054 130.873 38.3997 129.6 38.3997H117.062C122.88 27.0237 118.003 9.60931 101.184 9.60931L100.8 9.61891ZM102.557 38.3997H81.6C81.6051 33.3109 83.6302 28.4322 87.2303 24.8357C90.8305 21.2391 95.7111 19.2189 100.8 19.2189C112.08 19.2189 114.077 37.1901 102.557 38.3997ZM62.4 38.3997H41.2032C31.2672 37.2765 30.6816 20.2173 41.5872 19.2189C42.1236 19.1698 42.6635 19.1698 43.2 19.2189C48.2888 19.2189 53.1695 21.2391 56.7696 24.8357C60.3698 28.4322 62.3949 33.3109 62.4 38.3997ZM19.2 67.2093V110.409C19.2 114.228 20.7171 117.891 23.4176 120.592C26.1182 123.292 29.7809 124.809 33.6 124.809H62.4V67.2093H19.2ZM81.6 67.2093V124.809H110.4C114.219 124.809 117.882 123.292 120.582 120.592C123.283 117.891 124.8 114.228 124.8 110.409V67.2093H81.6Z"/>
</mask>
<path d="M100.8 9.61891C94.2597 9.41197 87.844 11.4384 82.6092 15.3645C77.3744 19.2906 73.6326 24.8823 72 31.2189C70.3674 24.8823 66.6256 19.2906 61.3908 15.3645C56.156 11.4384 49.7402 9.41197 43.2 9.61891C26.5728 9.09091 21.456 26.8509 27.0528 38.3997H14.4C13.1269 38.3997 11.906 38.9054 11.0059 39.8056C10.1057 40.7058 9.59998 41.9267 9.59998 43.1997V52.7997C9.59998 54.0727 10.1057 55.2936 11.0059 56.1938C11.906 57.094 13.1269 57.5997 14.4 57.5997H129.6C130.873 57.5997 132.094 57.094 132.994 56.1938C133.894 55.2936 134.4 54.0727 134.4 52.7997V43.1997C134.4 41.9267 133.894 40.7058 132.994 39.8056C132.094 38.9054 130.873 38.3997 129.6 38.3997H117.062C122.88 27.0237 118.003 9.60931 101.184 9.60931L100.8 9.61891ZM102.557 38.3997H81.6C81.6051 33.3109 83.6302 28.4322 87.2303 24.8357C90.8305 21.2391 95.7111 19.2189 100.8 19.2189C112.08 19.2189 114.077 37.1901 102.557 38.3997ZM62.4 38.3997H41.2032C31.2672 37.2765 30.6816 20.2173 41.5872 19.2189C42.1236 19.1698 42.6635 19.1698 43.2 19.2189C48.2888 19.2189 53.1695 21.2391 56.7696 24.8357C60.3698 28.4322 62.3949 33.3109 62.4 38.3997ZM19.2 67.2093V110.409C19.2 114.228 20.7171 117.891 23.4176 120.592C26.1182 123.292 29.7809 124.809 33.6 124.809H62.4V67.2093H19.2ZM81.6 67.2093V124.809H110.4C114.219 124.809 117.882 123.292 120.582 120.592C123.283 117.891 124.8 114.228 124.8 110.409V67.2093H81.6Z" fill="#ACACAC" fill-opacity="0.2" style="mix-blend-mode:luminosity"/>
<path d="M100.8 9.61891C94.2597 9.41197 87.844 11.4384 82.6092 15.3645C77.3744 19.2906 73.6326 24.8823 72 31.2189C70.3674 24.8823 66.6256 19.2906 61.3908 15.3645C56.156 11.4384 49.7402 9.41197 43.2 9.61891C26.5728 9.09091 21.456 26.8509 27.0528 38.3997H14.4C13.1269 38.3997 11.906 38.9054 11.0059 39.8056C10.1057 40.7058 9.59998 41.9267 9.59998 43.1997V52.7997C9.59998 54.0727 10.1057 55.2936 11.0059 56.1938C11.906 57.094 13.1269 57.5997 14.4 57.5997H129.6C130.873 57.5997 132.094 57.094 132.994 56.1938C133.894 55.2936 134.4 54.0727 134.4 52.7997V43.1997C134.4 41.9267 133.894 40.7058 132.994 39.8056C132.094 38.9054 130.873 38.3997 129.6 38.3997H117.062C122.88 27.0237 118.003 9.60931 101.184 9.60931L100.8 9.61891ZM102.557 38.3997H81.6C81.6051 33.3109 83.6302 28.4322 87.2303 24.8357C90.8305 21.2391 95.7111 19.2189 100.8 19.2189C112.08 19.2189 114.077 37.1901 102.557 38.3997ZM62.4 38.3997H41.2032C31.2672 37.2765 30.6816 20.2173 41.5872 19.2189C42.1236 19.1698 42.6635 19.1698 43.2 19.2189C48.2888 19.2189 53.1695 21.2391 56.7696 24.8357C60.3698 28.4322 62.3949 33.3109 62.4 38.3997ZM19.2 67.2093V110.409C19.2 114.228 20.7171 117.891 23.4176 120.592C26.1182 123.292 29.7809 124.809 33.6 124.809H62.4V67.2093H19.2ZM81.6 67.2093V124.809H110.4C114.219 124.809 117.882 123.292 120.582 120.592C123.283 117.891 124.8 114.228 124.8 110.409V67.2093H81.6Z" fill="#D5D5D5" fill-opacity="0.3" style="mix-blend-mode:multiply"/>
<path d="M100.8 9.61891C94.2597 9.41197 87.844 11.4384 82.6092 15.3645C77.3744 19.2906 73.6326 24.8823 72 31.2189C70.3674 24.8823 66.6256 19.2906 61.3908 15.3645C56.156 11.4384 49.7402 9.41197 43.2 9.61891C26.5728 9.09091 21.456 26.8509 27.0528 38.3997H14.4C13.1269 38.3997 11.906 38.9054 11.0059 39.8056C10.1057 40.7058 9.59998 41.9267 9.59998 43.1997V52.7997C9.59998 54.0727 10.1057 55.2936 11.0059 56.1938C11.906 57.094 13.1269 57.5997 14.4 57.5997H129.6C130.873 57.5997 132.094 57.094 132.994 56.1938C133.894 55.2936 134.4 54.0727 134.4 52.7997V43.1997C134.4 41.9267 133.894 40.7058 132.994 39.8056C132.094 38.9054 130.873 38.3997 129.6 38.3997H117.062C122.88 27.0237 118.003 9.60931 101.184 9.60931L100.8 9.61891ZM102.557 38.3997H81.6C81.6051 33.3109 83.6302 28.4322 87.2303 24.8357C90.8305 21.2391 95.7111 19.2189 100.8 19.2189C112.08 19.2189 114.077 37.1901 102.557 38.3997ZM62.4 38.3997H41.2032C31.2672 37.2765 30.6816 20.2173 41.5872 19.2189C42.1236 19.1698 42.6635 19.1698 43.2 19.2189C48.2888 19.2189 53.1695 21.2391 56.7696 24.8357C60.3698 28.4322 62.3949 33.3109 62.4 38.3997ZM19.2 67.2093V110.409C19.2 114.228 20.7171 117.891 23.4176 120.592C26.1182 123.292 29.7809 124.809 33.6 124.809H62.4V67.2093H19.2ZM81.6 67.2093V124.809H110.4C114.219 124.809 117.882 123.292 120.582 120.592C123.283 117.891 124.8 114.228 124.8 110.409V67.2093H81.6Z" fill="url(#paint0_radial_335_615)" fill-opacity="0.25" style="mix-blend-mode:overlay"/>
<path d="M100.8 9.61891C94.2597 9.41197 87.844 11.4384 82.6092 15.3645C77.3744 19.2906 73.6326 24.8823 72 31.2189C70.3674 24.8823 66.6256 19.2906 61.3908 15.3645C56.156 11.4384 49.7402 9.41197 43.2 9.61891C26.5728 9.09091 21.456 26.8509 27.0528 38.3997H14.4C13.1269 38.3997 11.906 38.9054 11.0059 39.8056C10.1057 40.7058 9.59998 41.9267 9.59998 43.1997V52.7997C9.59998 54.0727 10.1057 55.2936 11.0059 56.1938C11.906 57.094 13.1269 57.5997 14.4 57.5997H129.6C130.873 57.5997 132.094 57.094 132.994 56.1938C133.894 55.2936 134.4 54.0727 134.4 52.7997V43.1997C134.4 41.9267 133.894 40.7058 132.994 39.8056C132.094 38.9054 130.873 38.3997 129.6 38.3997H117.062C122.88 27.0237 118.003 9.60931 101.184 9.60931L100.8 9.61891ZM102.557 38.3997H81.6C81.6051 33.3109 83.6302 28.4322 87.2303 24.8357C90.8305 21.2391 95.7111 19.2189 100.8 19.2189C112.08 19.2189 114.077 37.1901 102.557 38.3997ZM62.4 38.3997H41.2032C31.2672 37.2765 30.6816 20.2173 41.5872 19.2189C42.1236 19.1698 42.6635 19.1698 43.2 19.2189C48.2888 19.2189 53.1695 21.2391 56.7696 24.8357C60.3698 28.4322 62.3949 33.3109 62.4 38.3997ZM19.2 67.2093V110.409C19.2 114.228 20.7171 117.891 23.4176 120.592C26.1182 123.292 29.7809 124.809 33.6 124.809H62.4V67.2093H19.2ZM81.6 67.2093V124.809H110.4C114.219 124.809 117.882 123.292 120.582 120.592C123.283 117.891 124.8 114.228 124.8 110.409V67.2093H81.6Z" stroke="url(#paint1_linear_335_615)" stroke-opacity="0.4" stroke-width="2" style="mix-blend-mode:hard-light" mask="url(#path-1-inside-1_335_615)"/>
<defs>
<radialGradient id="paint0_radial_335_615" cx="0" cy="0" r="1" gradientUnits="userSpaceOnUse" gradientTransform="translate(72.0003 9.65272) rotate(90) scale(143.642 155.607)">
<stop stop-color="#FFFEFE"/>
<stop offset="1" stop-color="white" stop-opacity="0"/>
</radialGradient>
<linearGradient id="paint1_linear_335_615" x1="71.5099" y1="9.29699" x2="63.5311" y2="124.565" gradientUnits="userSpaceOnUse">
<stop stop-color="white" stop-opacity="0.8"/>
<stop offset="0.49467" stop-color="#FF0024"/>
<stop offset="1" stop-color="white" stop-opacity="0.8"/>
</linearGradient>
</defs>
</svg>
