<svg id="visual" viewBox="0 0 960 540" width="960" height="540" xmlns="http://www.w3.org/2000/svg" xmlns:xlink="http://www.w3.org/1999/xlink" version="1.1"><rect width="960" height="540" fill="#05081c"></rect><g><g transform="translate(567 189)"><path d="M0 -78.5L68 -39.2L68 39.2L0 78.5L-68 39.2L-68 -39.2Z" fill="none" stroke="#7537e2" stroke-width="2"></path></g><g transform="translate(293 84)"><path d="M0 -19L16.5 -9.5L16.5 9.5L0 19L-16.5 9.5L-16.5 -9.5Z" stroke="#7537e2" fill="none" stroke-width="2"></path></g><g transform="translate(897 125)"><path d="M0 -44L38.1 -22L38.1 22L0 44L-38.1 22L-38.1 -22Z" stroke="#7537e2" fill="none" stroke-width="2"></path></g><g transform="translate(541 25)"><path d="M0 -10L8.7 -5L8.7 5L0 10L-8.7 5L-8.7 -5Z" stroke="#7537e2" fill="none" stroke-width="2"></path></g><g transform="translate(148 450)"><path d="M0 -54L46.8 -27L46.8 27L0 54L-46.8 27L-46.8 -27Z" stroke="#7537e2" fill="none" stroke-width="2"></path></g><g transform="translate(741 304)"><path d="M0 -55L47.6 -27.5L47.6 27.5L0 55L-47.6 27.5L-47.6 -27.5Z" stroke="#7537e2" fill="none" stroke-width="2"></path></g><g transform="translate(316 405)"><path d="M0 -27L23.4 -13.5L23.4 13.5L0 27L-23.4 13.5L-23.4 -13.5Z" stroke="#7537e2" fill="none" stroke-width="2"></path></g></g></svg>