<svg id="visual" viewBox="0 0 675 900" width="675" height="900" xmlns="http://www.w3.org/2000/svg" xmlns:xlink="http://www.w3.org/1999/xlink" version="1.1"><rect x="0" y="0" width="675" height="900" fill="#151030"></rect><defs><linearGradient id="grad1_0" x1="0%" y1="0%" x2="100%" y2="100%"><stop offset="30%" stop-color="#151030" stop-opacity="1"></stop><stop offset="70%" stop-color="#151030" stop-opacity="1"></stop></linearGradient></defs><defs><linearGradient id="grad2_0" x1="0%" y1="0%" x2="100%" y2="100%"><stop offset="30%" stop-color="#151030" stop-opacity="1"></stop><stop offset="70%" stop-color="#151030" stop-opacity="1"></stop></linearGradient></defs><g transform="translate(675, 0)"><path d="M0 253.1C-23.9 230.5 -47.9 207.9 -60.9 187.4C-73.9 166.8 -76 148.4 -107.6 148.1C-139.2 147.7 -200.2 165.4 -204.8 148.8C-209.3 132.2 -157.3 81.2 -156 50.7C-154.6 20.2 -203.9 10.1 -253.1 0L0 0Z" fill="#50037c"></path></g><g transform="translate(0, 900)"><path d="M0 -253.1C17.5 -218.5 35.1 -183.8 55 -169.3C74.9 -154.8 97.2 -160.4 111.1 -152.9C125 -145.4 130.5 -124.7 154.5 -112.3C178.6 -99.8 221.2 -95.6 240.7 -78.2C260.3 -60.9 256.7 -30.4 253.1 0L0 0Z" fill="#50037c"></path></g></svg>