<svg id="visual" viewBox="0 0 675 900" width="675" height="900" xmlns="http://www.w3.org/2000/svg" xmlns:xlink="http://www.w3.org/1999/xlink" version="1.1"><rect x="0" y="0" width="675" height="900" fill="#001220"></rect><defs><linearGradient id="grad1_0" x1="0%" y1="100%" x2="100%" y2="0%"><stop offset="30%" stop-color="#001220" stop-opacity="1"></stop><stop offset="70%" stop-color="#001220" stop-opacity="1"></stop></linearGradient></defs><defs><linearGradient id="grad2_0" x1="0%" y1="100%" x2="100%" y2="0%"><stop offset="30%" stop-color="#001220" stop-opacity="1"></stop><stop offset="70%" stop-color="#001220" stop-opacity="1"></stop></linearGradient></defs><g transform="translate(675, 900)"><path d="M-393.7 0C-372 -20.3 -350.3 -40.7 -335.8 -59.2C-321.4 -77.7 -314.2 -94.4 -312 -113.6C-309.7 -132.7 -312.5 -154.3 -316.1 -182.5C-319.7 -210.7 -324.3 -245.7 -301.6 -253.1C-278.9 -260.5 -228.9 -240.5 -204.4 -243.6C-179.9 -246.7 -180.8 -272.9 -174 -301.4C-167.2 -329.9 -152.6 -360.7 -131 -359.9C-109.4 -359.1 -80.7 -326.6 -57.7 -327C-34.6 -327.3 -17.3 -360.5 0 -393.7L0 0Z" fill="#50037c"></path></g><g transform="translate(0, 0)"><path d="M393.8 0C384.1 21.1 374.4 42.2 373.2 65.8C372 89.4 379.3 115.5 370 134.7C360.7 153.8 334.8 166 320.4 185C306.1 204 303.3 230 284.2 238.5C265.1 246.9 229.7 237.9 215.3 256.6C201 275.3 207.6 321.7 192 332.6C176.4 343.4 138.4 318.9 112.9 310.1C87.3 301.3 74.1 308.4 57.3 325C40.6 341.6 20.3 367.7 0 393.8L0 0Z" fill="#50037c"></path></g></svg>