<svg width="162" height="45" viewBox="0 0 162 45" fill="none" xmlns="http://www.w3.org/2000/svg">
<g clip-path="url(#clip0_25_488)">
<path fill-rule="evenodd" clip-rule="evenodd" d="M159.377 24.3306C159.686 23.9493 160.303 23.9493 160.611 24.4069L161.768 26.0086C162 26.3137 162 26.7713 161.768 27.0764C159.686 29.7459 156.137 32.2628 151.74 32.4916C148.346 32.7204 145.491 31.4238 143.948 28.9832C143.64 28.5255 142.946 28.4493 142.637 28.9069C140.786 31.3476 138.626 33.2543 136.311 33.3306C132.223 33.5594 131.066 30.8137 132.068 24.8645C132.146 24.2543 131.606 23.7967 131.066 23.9493C130.217 24.1781 129.291 24.2543 128.366 24.1781C127.98 24.1781 127.594 24.4069 127.517 24.712C125.974 29.6696 122.426 34.2459 117.72 34.4747C114.711 34.6272 110.314 32.9493 110.7 25.856C110.7 25.2459 110.237 24.8645 109.697 25.0171C108.771 25.3221 107.768 25.3984 106.766 25.3221C106.38 25.3221 105.994 25.551 105.917 25.856C104.374 30.8137 100.826 35.3899 96.1199 35.6188C93.1113 35.7713 88.7141 34.0933 89.0999 27.0001C89.0999 26.3899 88.637 26.0086 88.097 26.1611C87.1713 26.4662 86.1684 26.5425 85.1656 26.4662C84.7799 26.4662 84.3941 26.695 84.317 27.0001C82.7741 31.9577 79.2256 36.534 74.5199 36.7628C72.3598 36.9154 69.5056 36.0764 68.1941 33.0255C67.9627 32.4154 67.1913 32.3391 66.8056 32.873C64.9541 35.3899 62.717 37.2967 60.4027 37.4493C58.0113 37.6018 56.6998 36.6103 56.0827 34.9323C55.8513 34.3221 55.157 34.1696 54.6941 34.6272C53.0741 36.534 51.1456 37.9069 49.2941 38.0594C46.3627 38.212 44.6656 36.0764 44.5884 33.4832C44.4341 30.4323 45.7456 26.9238 47.2113 23.034C47.4427 22.5001 47.057 21.8899 46.517 21.8899C45.6684 21.8899 44.6656 21.7374 43.817 21.5849C43.4313 21.5086 42.9684 21.7374 42.8913 22.195C41.117 28.373 38.4941 34.3984 36.1799 37.9832C35.9484 38.3645 35.4084 38.5171 35.0227 38.212L33.3256 36.9916C32.9399 36.7628 32.8627 36.2289 33.0941 35.8476C36.3341 30.6611 39.2656 22.5764 40.2684 16.6272C40.3456 16.2459 40.6541 15.9408 41.0399 15.9408L43.3541 15.7882C43.8941 15.7882 44.2799 16.2459 44.2027 16.7798V16.856C44.1256 17.3137 44.4341 17.7713 44.897 17.8476C46.9799 18.1527 49.9884 18.1527 52.0713 18.0764C52.6884 18.0764 53.0741 18.6866 52.8427 19.2204C51.1456 23.6442 48.9084 29.7459 49.0627 32.1103C49.1399 33.1781 49.6027 33.7882 50.4513 33.712C52.0713 33.6357 54.617 30.356 56.5456 26.7713C56.5456 26.695 56.6227 26.6187 56.6227 26.5425C57.2399 23.7204 58.2427 20.5171 59.1684 17.3137L59.2456 17.0849C59.3227 16.7798 59.6313 16.551 59.9398 16.4747L62.717 16.3221C63.257 16.3221 63.7199 16.856 63.5656 17.3899C63.4113 17.8476 63.257 18.3052 63.1799 18.7628C60.7884 26.6188 58.7056 33.1781 61.4827 33.0255C63.257 32.9493 65.8027 29.8984 67.9627 25.7035C67.9627 25.6272 68.0398 25.551 68.0398 25.4747C68.117 24.9408 68.2713 24.3306 68.4256 23.7204C69.6599 18.6866 71.1256 13.7289 72.5913 8.77129C73.0541 7.24587 73.517 5.72045 73.9027 4.19502C73.9799 3.88994 74.2884 3.58485 74.6741 3.58485L77.5284 3.43231C78.0684 3.43231 78.5313 3.96621 78.377 4.50011C77.2198 8.00858 76.0627 11.6696 74.9827 15.2543C74.7513 16.0171 75.5999 16.6272 76.217 16.1696C77.297 15.4069 78.6084 14.9493 79.8427 14.873C83.0056 14.7204 85.1656 17.2374 85.397 21.1272C85.397 21.356 85.397 21.5849 85.397 21.8137C85.397 22.2713 85.7056 22.5764 86.1684 22.6527C87.6341 22.8052 89.177 22.3476 90.3341 21.2798C90.4884 21.2035 90.5656 21.051 90.5656 20.8984C91.7227 16.3984 93.0341 11.9747 94.3456 7.47468C94.8084 5.94926 95.1941 4.42384 95.657 2.89841C95.7341 2.59333 96.0427 2.28824 96.4284 2.28824L99.2827 2.1357C99.8227 2.1357 100.286 2.6696 100.131 3.2035C98.9741 6.71197 97.817 10.373 96.737 13.9577C96.5056 14.7204 97.3541 15.3306 97.9713 14.873C99.0513 14.1103 100.363 13.6526 101.597 13.5764C104.76 13.4238 106.92 15.9408 107.151 19.8306C107.151 20.0594 107.151 20.2882 107.151 20.5171C107.151 20.9747 107.46 21.2798 107.923 21.356C109.388 21.5086 110.931 21.051 112.088 19.9832C112.243 19.9069 112.32 19.7543 112.32 19.6018C113.477 15.1018 114.788 10.6781 116.1 6.17807C116.563 4.65265 116.948 3.12723 117.411 1.6018C117.488 1.29672 117.797 0.991633 118.183 0.991633L121.037 0.839091C121.577 0.839091 122.04 1.37299 121.886 1.90689C120.728 5.41536 119.571 9.07638 118.491 12.6611C118.26 13.4238 119.108 14.034 119.726 13.5764C120.806 12.8137 122.117 12.356 123.351 12.2798C126.514 12.1272 128.674 14.6442 128.906 18.534C128.906 18.7628 128.906 18.9916 128.906 19.2204C128.906 19.6781 129.214 19.9832 129.677 20.0594C131.143 20.212 132.608 19.7543 133.766 18.8391C133.92 18.7628 133.997 18.6103 133.997 18.3815C135.308 13.3476 137.314 6.6357 139.166 0.305192C139.243 0.000107586 139.551 -0.228706 139.86 -0.304977L142.637 -0.45752C143.177 -0.45752 143.64 0.0763789 143.486 0.610277C140.863 9.15265 138.78 16.551 137.623 20.9747C136.08 26.9238 136.003 28.6781 137.777 28.5255C139.243 28.4493 141.248 26.3899 143.1 23.2628C143.177 23.1103 143.177 23.034 143.254 22.8815C143.486 16.6272 147.42 10.9069 153.206 10.6018C157.063 10.373 159.223 13.2713 159.377 16.0933C159.686 21.5086 154.208 25.0171 148.963 24.712C148.346 24.6357 147.883 25.3221 148.191 25.856C148.963 27.3815 150.506 28.2967 153.128 28.1442C155.057 28.4493 157.757 26.2374 159.377 24.3306ZM72.3599 25.856C71.1256 30.8137 72.5913 32.7204 74.597 32.6442C77.837 32.4916 80.9227 26.6188 80.6913 22.1188C80.6141 20.1357 79.457 19.1442 78.0684 19.2204C75.7541 19.373 73.3627 21.8899 72.3599 25.856ZM93.9599 24.6357C92.7256 29.5933 94.1913 31.5001 96.197 31.4238C99.437 31.2713 102.523 25.3984 102.291 20.8984C102.214 18.9154 101.057 17.9238 99.6684 18.0001C97.4313 18.1527 94.9627 20.6696 93.9599 24.6357ZM115.637 23.4154C114.403 28.373 115.868 30.2798 117.874 30.2035C121.114 30.051 124.2 24.1781 123.968 19.6781C123.891 17.695 122.734 16.7035 121.346 16.7798C119.031 16.9323 116.64 19.4493 115.637 23.4154ZM154.748 16.9323C154.748 15.6357 153.9 14.7204 152.588 14.7967C150.043 14.9493 148.037 17.695 147.343 21.051C147.266 21.5849 147.651 22.0425 148.191 22.0425C151.508 21.9662 154.826 19.7543 154.748 16.9323ZM34.2513 19.373C33.9427 9.30519 27.3084 2.6696 17.5113 3.05096C13.2684 3.2035 8.48557 4.80519 4.85985 7.55095C4.55128 7.77977 4.397 8.31367 4.62843 8.69502L6.17128 11.1357C6.40271 11.5933 7.01985 11.6696 7.40557 11.3645C10.1827 9.07638 13.8856 7.62723 17.5113 7.47468C24.2227 7.1696 29.1599 11.4408 29.3913 19.6018C29.777 29.1357 23.297 40.0425 12.8827 40.6526C12.497 40.6526 12.1113 40.6526 11.7256 40.6526C11.1856 40.6526 10.7999 40.1188 10.9541 39.5849C12.9599 31.5764 15.2741 22.9577 17.6656 14.9493C17.8199 14.4154 17.4341 13.8052 16.817 13.8815L13.8856 14.1103C13.577 14.1103 13.2684 14.3391 13.1141 14.7204C10.7999 22.5764 8.48557 31.1188 6.47985 39.1272C6.32557 39.5849 5.86271 39.8899 5.477 39.7374C4.397 39.356 3.39414 38.9747 2.54557 38.4408C2.15985 38.212 1.61985 38.3645 1.38843 38.8221L0.0769977 41.4916C-0.154431 41.873 -0.000145201 42.4069 0.385569 42.5594C3.317 44.2374 7.86843 45.1527 12.4199 44.9238C27.3084 44.0849 34.637 30.5086 34.2513 19.373ZM63.4884 7.01706C61.7141 7.09333 60.0941 9.15265 60.1713 11.212C60.2484 12.5849 61.1741 13.5764 62.5627 13.5001C64.337 13.4238 66.0341 11.2882 65.957 9.22892C65.8799 7.85604 64.7999 6.94079 63.4884 7.01706Z" fill="white"/>
</g>
<defs>
<clipPath id="clip0_25_488">
<rect width="162" height="45" fill="white"/>
</clipPath>
</defs>
</svg>
