<svg width="24" height="24" viewBox="0 0 24 24" fill="none" xmlns="http://www.w3.org/2000/svg">
<path fill-rule="evenodd" clip-rule="evenodd" d="M12 20C16.4183 20 20 16.4183 20 12C20 7.58175 16.4183 4.00003 12 4.00003C7.58169 4.00003 3.99997 7.58175 3.99997 12C3.99997 16.4183 7.58169 20 12 20ZM12 22C17.5228 22 22 17.5228 22 12C22 6.47718 17.5228 2.00003 12 2.00003C6.47712 2.00003 1.99997 6.47718 1.99997 12C1.99997 17.5228 6.47712 22 12 22Z" fill="white"/>
<path d="M15.4742 21.3801C15.1191 18.8499 14.5275 16.5536 13.6948 14.383C11.6565 15.3712 9.37667 17.0979 6.24191 20.177C5.69345 19.79 5.18566 19.3493 4.72621 18.8625C8.01857 15.6157 10.5332 13.6745 12.9161 12.5384C12.6104 11.8757 12.2808 11.2224 11.927 10.5751C9.12149 11.4593 5.92265 11.9252 1.99997 11.9918C2.00052 11.3054 2.07025 10.6351 2.20255 9.9876C5.66448 9.91343 8.46499 9.51274 10.8889 8.80059C9.76379 6.99529 8.44513 5.21333 6.92967 3.37899C7.52058 3.03071 8.15043 2.74145 8.81111 2.51932C10.3404 4.39888 11.6803 6.2462 12.8277 8.13538C14.9834 7.28333 16.8941 6.13336 18.8014 4.66926C19.2917 5.1243 19.7362 5.62792 20.1273 6.17245C18.1435 7.70695 16.1205 8.95065 13.8292 9.88821C14.1664 10.5179 14.4827 11.1546 14.7782 11.8008C17.0448 11.0827 19.2759 11.0085 21.9507 11.0009C21.9833 11.3295 22 11.6629 22 12.0001C22 12.338 21.9832 12.672 21.9505 13.0013C19.3662 13.0105 17.4496 13.0833 15.5569 13.6531C16.3696 15.7686 16.9708 18.0051 17.3568 20.4458C16.7682 20.8199 16.1378 21.1342 15.4742 21.3801Z" fill="white"/>
</svg>
