<svg width="24" height="24" viewBox="0 0 24 24" fill="none" xmlns="http://www.w3.org/2000/svg">
<path fill-rule="evenodd" clip-rule="evenodd" d="M12 20C16.4183 20 20 16.4183 20 12C20 7.58175 16.4183 4.00003 12 4.00003C7.58172 4.00003 4 7.58175 4 12C4 16.4183 7.58172 20 12 20ZM12 22C17.5228 22 22 17.5228 22 12C22 6.47718 17.5228 2.00003 12 2.00003C6.47715 2.00003 2 6.47718 2 12C2 17.5228 6.47715 22 12 22Z" fill="white"/>
<path d="M12 9.99997C12 9.44769 12.4477 8.99997 13 8.99997H14C14.5523 8.99997 15 8.55226 15 7.99997C15 7.44769 14.5523 6.99997 14 6.99997H13C11.3431 6.99997 10 8.34312 10 9.99997V12H9C8.44772 12 8 12.4477 8 13C8 13.5523 8.44771 14 9 14H10V20C10 20.5523 10.4477 21 11 21C11.5523 21 12 20.5523 12 20V14H14C14.5523 14 15 13.5523 15 13C15 12.4477 14.5523 12 14 12H12V9.99997Z" fill="white"/>
</svg>
