<svg width="145" height="144" viewBox="0 0 145 144" fill="none" xmlns="http://www.w3.org/2000/svg">
<mask id="path-1-inside-1_312_558" fill="white">
<path d="M24.5 132V96.4501C24.5 94.4501 24.976 92.5501 25.928 90.7501C26.88 88.9501 28.204 87.5001 29.9 86.4001L36.5 82.0501C37.2 90.4501 38.3 97.6001 39.8 103.5C41.3 109.4 43.65 115.95 46.85 123.15L24.5 132ZM55.85 120C52.35 113.4 49.75 106.4 48.05 99.0001C46.35 91.6001 45.5 83.9501 45.5 76.0501C45.5 63.5501 47.976 51.7761 52.928 40.7281C57.88 29.6801 64.404 21.3041 72.5 15.6001C80.6 21.3001 87.126 29.6761 92.078 40.7281C97.03 51.7801 99.504 63.5541 99.5 76.0501C99.5 83.8501 98.65 91.4261 96.95 98.7781C95.25 106.13 92.65 113.204 89.15 120H55.85ZM72.5 78.0001C75.8 78.0001 78.626 76.8261 80.978 74.4781C83.33 72.1301 84.504 69.3041 84.5 66.0001C84.5 62.7001 83.326 59.8761 80.978 57.5281C78.63 55.1801 75.804 54.0041 72.5 54.0001C69.2 54.0001 66.376 55.1761 64.028 57.5281C61.68 59.8801 60.504 62.7041 60.5 66.0001C60.5 69.3001 61.676 72.1261 64.028 74.4781C66.38 76.8301 69.204 78.0041 72.5 78.0001ZM120.5 132L98.15 123.15C101.35 115.95 103.7 109.4 105.2 103.5C106.7 97.6001 107.8 90.4501 108.5 82.0501L115.1 86.4001C116.8 87.5001 118.126 88.9501 119.078 90.7501C120.03 92.5501 120.504 94.4501 120.5 96.4501V132Z"/>
</mask>
<path d="M24.5 132V96.4501C24.5 94.4501 24.976 92.5501 25.928 90.7501C26.88 88.9501 28.204 87.5001 29.9 86.4001L36.5 82.0501C37.2 90.4501 38.3 97.6001 39.8 103.5C41.3 109.4 43.65 115.95 46.85 123.15L24.5 132ZM55.85 120C52.35 113.4 49.75 106.4 48.05 99.0001C46.35 91.6001 45.5 83.9501 45.5 76.0501C45.5 63.5501 47.976 51.7761 52.928 40.7281C57.88 29.6801 64.404 21.3041 72.5 15.6001C80.6 21.3001 87.126 29.6761 92.078 40.7281C97.03 51.7801 99.504 63.5541 99.5 76.0501C99.5 83.8501 98.65 91.4261 96.95 98.7781C95.25 106.13 92.65 113.204 89.15 120H55.85ZM72.5 78.0001C75.8 78.0001 78.626 76.8261 80.978 74.4781C83.33 72.1301 84.504 69.3041 84.5 66.0001C84.5 62.7001 83.326 59.8761 80.978 57.5281C78.63 55.1801 75.804 54.0041 72.5 54.0001C69.2 54.0001 66.376 55.1761 64.028 57.5281C61.68 59.8801 60.504 62.7041 60.5 66.0001C60.5 69.3001 61.676 72.1261 64.028 74.4781C66.38 76.8301 69.204 78.0041 72.5 78.0001ZM120.5 132L98.15 123.15C101.35 115.95 103.7 109.4 105.2 103.5C106.7 97.6001 107.8 90.4501 108.5 82.0501L115.1 86.4001C116.8 87.5001 118.126 88.9501 119.078 90.7501C120.03 92.5501 120.504 94.4501 120.5 96.4501V132Z" fill="#ACACAC" fill-opacity="0.2" style="mix-blend-mode:luminosity"/>
<path d="M24.5 132V96.4501C24.5 94.4501 24.976 92.5501 25.928 90.7501C26.88 88.9501 28.204 87.5001 29.9 86.4001L36.5 82.0501C37.2 90.4501 38.3 97.6001 39.8 103.5C41.3 109.4 43.65 115.95 46.85 123.15L24.5 132ZM55.85 120C52.35 113.4 49.75 106.4 48.05 99.0001C46.35 91.6001 45.5 83.9501 45.5 76.0501C45.5 63.5501 47.976 51.7761 52.928 40.7281C57.88 29.6801 64.404 21.3041 72.5 15.6001C80.6 21.3001 87.126 29.6761 92.078 40.7281C97.03 51.7801 99.504 63.5541 99.5 76.0501C99.5 83.8501 98.65 91.4261 96.95 98.7781C95.25 106.13 92.65 113.204 89.15 120H55.85ZM72.5 78.0001C75.8 78.0001 78.626 76.8261 80.978 74.4781C83.33 72.1301 84.504 69.3041 84.5 66.0001C84.5 62.7001 83.326 59.8761 80.978 57.5281C78.63 55.1801 75.804 54.0041 72.5 54.0001C69.2 54.0001 66.376 55.1761 64.028 57.5281C61.68 59.8801 60.504 62.7041 60.5 66.0001C60.5 69.3001 61.676 72.1261 64.028 74.4781C66.38 76.8301 69.204 78.0041 72.5 78.0001ZM120.5 132L98.15 123.15C101.35 115.95 103.7 109.4 105.2 103.5C106.7 97.6001 107.8 90.4501 108.5 82.0501L115.1 86.4001C116.8 87.5001 118.126 88.9501 119.078 90.7501C120.03 92.5501 120.504 94.4501 120.5 96.4501V132Z" fill="#D5D5D5" fill-opacity="0.3" style="mix-blend-mode:multiply"/>
<path d="M24.5 132V96.4501C24.5 94.4501 24.976 92.5501 25.928 90.7501C26.88 88.9501 28.204 87.5001 29.9 86.4001L36.5 82.0501C37.2 90.4501 38.3 97.6001 39.8 103.5C41.3 109.4 43.65 115.95 46.85 123.15L24.5 132ZM55.85 120C52.35 113.4 49.75 106.4 48.05 99.0001C46.35 91.6001 45.5 83.9501 45.5 76.0501C45.5 63.5501 47.976 51.7761 52.928 40.7281C57.88 29.6801 64.404 21.3041 72.5 15.6001C80.6 21.3001 87.126 29.6761 92.078 40.7281C97.03 51.7801 99.504 63.5541 99.5 76.0501C99.5 83.8501 98.65 91.4261 96.95 98.7781C95.25 106.13 92.65 113.204 89.15 120H55.85ZM72.5 78.0001C75.8 78.0001 78.626 76.8261 80.978 74.4781C83.33 72.1301 84.504 69.3041 84.5 66.0001C84.5 62.7001 83.326 59.8761 80.978 57.5281C78.63 55.1801 75.804 54.0041 72.5 54.0001C69.2 54.0001 66.376 55.1761 64.028 57.5281C61.68 59.8801 60.504 62.7041 60.5 66.0001C60.5 69.3001 61.676 72.1261 64.028 74.4781C66.38 76.8301 69.204 78.0041 72.5 78.0001ZM120.5 132L98.15 123.15C101.35 115.95 103.7 109.4 105.2 103.5C106.7 97.6001 107.8 90.4501 108.5 82.0501L115.1 86.4001C116.8 87.5001 118.126 88.9501 119.078 90.7501C120.03 92.5501 120.504 94.4501 120.5 96.4501V132Z" fill="url(#paint0_radial_312_558)" fill-opacity="0.25" style="mix-blend-mode:overlay"/>
<path d="M24.5 132V96.4501C24.5 94.4501 24.976 92.5501 25.928 90.7501C26.88 88.9501 28.204 87.5001 29.9 86.4001L36.5 82.0501C37.2 90.4501 38.3 97.6001 39.8 103.5C41.3 109.4 43.65 115.95 46.85 123.15L24.5 132ZM55.85 120C52.35 113.4 49.75 106.4 48.05 99.0001C46.35 91.6001 45.5 83.9501 45.5 76.0501C45.5 63.5501 47.976 51.7761 52.928 40.7281C57.88 29.6801 64.404 21.3041 72.5 15.6001C80.6 21.3001 87.126 29.6761 92.078 40.7281C97.03 51.7801 99.504 63.5541 99.5 76.0501C99.5 83.8501 98.65 91.4261 96.95 98.7781C95.25 106.13 92.65 113.204 89.15 120H55.85ZM72.5 78.0001C75.8 78.0001 78.626 76.8261 80.978 74.4781C83.33 72.1301 84.504 69.3041 84.5 66.0001C84.5 62.7001 83.326 59.8761 80.978 57.5281C78.63 55.1801 75.804 54.0041 72.5 54.0001C69.2 54.0001 66.376 55.1761 64.028 57.5281C61.68 59.8801 60.504 62.7041 60.5 66.0001C60.5 69.3001 61.676 72.1261 64.028 74.4781C66.38 76.8301 69.204 78.0041 72.5 78.0001ZM120.5 132L98.15 123.15C101.35 115.95 103.7 109.4 105.2 103.5C106.7 97.6001 107.8 90.4501 108.5 82.0501L115.1 86.4001C116.8 87.5001 118.126 88.9501 119.078 90.7501C120.03 92.5501 120.504 94.4501 120.5 96.4501V132Z" stroke="url(#paint1_linear_312_558)" stroke-width="2" mask="url(#path-1-inside-1_312_558)"/>
<defs>
<radialGradient id="paint0_radial_312_558" cx="0" cy="0" r="1" gradientUnits="userSpaceOnUse" gradientTransform="translate(72.5003 15.6488) rotate(90) scale(145.133 119.698)">
<stop stop-color="#FFFEFE"/>
<stop offset="1" stop-color="white" stop-opacity="0"/>
</radialGradient>
<linearGradient id="paint1_linear_312_558" x1="72.5" y1="16.0001" x2="124.007" y2="117.315" gradientUnits="userSpaceOnUse">
<stop stop-color="#5581FF"/>
<stop offset="1" stop-color="white" stop-opacity="0.19"/>
</linearGradient>
</defs>
</svg>
