<svg width="127" height="45" viewBox="0 0 127 45" fill="none" xmlns="http://www.w3.org/2000/svg">
<g clip-path="url(#clip0_25_492)">
<path d="M0.5 0.00217202V34.7621L5.03969 34.7759V18.2228H15.9852V13.8474H5.03969V4.37536H19.2946V0L0.5 0.00217202Z" fill="white"/>
<path d="M27.4657 7.05831C29.1009 7.05831 30.4263 5.75236 30.4263 4.1414C30.4263 2.53043 29.1009 1.22449 27.4657 1.22449C25.8306 1.22449 24.505 2.53043 24.505 4.1414C24.505 5.75236 25.8306 7.05831 27.4657 7.05831Z" fill="white"/>
<path d="M25.1565 11.4336V34.7689H29.6962V11.4336H25.1565Z" fill="white"/>
<path fill-rule="evenodd" clip-rule="evenodd" d="M46.5337 10.7531C40.5053 10.7531 36.2983 15.7762 36.2983 21.74C36.2983 27.704 40.5053 32.7271 46.5337 32.7271C49.2937 32.7271 51.5681 31.6743 53.2235 29.9607V33.0674C53.2235 36.9337 50.141 40.1652 46.1179 40.1652C44.6719 40.1652 43.2352 39.613 42.0905 38.8357L39.8158 42.7171C41.6325 43.8709 43.7959 44.5406 46.1179 44.5406C52.5495 44.5406 57.7631 39.4038 57.7631 33.0674V11.4337H53.2235V13.5195C51.5681 11.8057 49.2937 10.7531 46.5337 10.7531ZM40.838 21.74C40.838 18.0381 43.7122 15.1284 47.0272 15.1284C50.3424 15.1284 53.2165 18.0381 53.2165 21.74C53.2165 25.4419 50.3424 28.3518 47.0272 28.3518C43.7122 28.3518 40.838 25.4419 40.838 21.74Z" fill="white"/>
<path d="M74.1208 15.1284C71.4365 15.1284 69.2604 17.3695 69.2604 20.0142V34.769H64.7207V11.4337H69.2604V13.5713C70.5905 11.8772 72.5502 10.7531 75.1076 10.7531C78.2886 10.7531 80.73 12.3097 82.144 14.6919C83.7164 12.3909 86.2812 10.7531 89.3682 10.7531C94.5351 10.7531 97.7511 14.8601 97.7815 19.9412C97.7815 19.9566 97.7815 19.9719 97.7815 19.9874V19.9883V19.989V19.9899C97.7815 19.998 97.7815 20.0061 97.7815 20.0142V34.769H93.2418V20.0142C93.2418 17.3695 91.0657 15.1284 88.3814 15.1284C85.6969 15.1284 83.521 17.3695 83.521 20.0142V34.769H78.9813V20.0142C78.9813 17.3695 76.8052 15.1284 74.1208 15.1284Z" fill="white"/>
<path fill-rule="evenodd" clip-rule="evenodd" d="M121.96 14.0789C119.941 12.0243 117.175 10.7531 113.966 10.7531C107.213 10.7531 102.42 16.3867 102.42 23.1012C102.42 29.8159 107.213 35.4495 113.966 35.4495C117.175 35.4495 119.941 34.1783 121.96 32.1237V34.769H126.5V11.4337H121.96V14.0789ZM106.96 23.1012C106.96 18.6466 110.422 15.1284 114.46 15.1284C118.498 15.1284 121.96 18.6466 121.96 23.1012C121.96 27.5561 118.498 31.0742 114.46 31.0742C110.422 31.0742 106.96 27.5561 106.96 23.1012Z" fill="white"/>
</g>
<defs>
<clipPath id="clip0_25_492">
<rect width="126" height="45" fill="white" transform="translate(0.5)"/>
</clipPath>
</defs>
</svg>
