<svg width="145" height="144" viewBox="0 0 145 144" fill="none" xmlns="http://www.w3.org/2000/svg">
<mask id="path-1-inside-1_312_548" fill="white">
<path d="M76.3165 15.9845C75.304 14.9733 73.9315 14.4053 72.5005 14.4053C71.0695 14.4053 69.697 14.9733 68.6845 15.9845L52.4845 32.1845C51.5307 33.2082 51.0114 34.5621 51.0361 35.9611C51.0607 37.3601 51.6275 38.6948 52.6168 39.6842C53.6062 40.6736 54.941 41.2403 56.34 41.265C57.7389 41.2897 59.0929 40.7704 60.1165 39.8165L67.1005 32.8325V52.2005C67.1005 53.6327 67.6695 55.0062 68.6821 56.0189C69.6948 57.0316 71.0684 57.6005 72.5005 57.6005C73.9327 57.6005 75.3062 57.0316 76.3189 56.0189C77.3316 55.0062 77.9005 53.6327 77.9005 52.2005V32.8325L84.8845 39.8165C85.3789 40.3471 85.9751 40.7726 86.6374 41.0677C87.2998 41.3629 88.0149 41.5216 88.74 41.5344C89.465 41.5472 90.1852 41.4138 90.8576 41.1422C91.53 40.8706 92.1408 40.4664 92.6536 39.9536C93.1664 39.4408 93.5706 38.83 93.8422 38.1576C94.1138 37.4852 94.2472 36.765 94.2344 36.04C94.2216 35.3149 94.0629 34.5998 93.7677 33.9374C93.4726 33.2751 93.0471 32.6789 92.5165 32.1845L76.3165 15.9845ZM16.4845 68.1845C15.4733 69.197 14.9053 70.5695 14.9053 72.0005C14.9053 73.4315 15.4733 74.804 16.4845 75.8165L32.6845 92.0165C33.7082 92.9704 35.0621 93.4897 36.4611 93.465C37.8601 93.4403 39.1948 92.8736 40.1842 91.8842C41.1736 90.8948 41.7403 89.56 41.765 88.1611C41.7897 86.7621 41.2704 85.4082 40.3165 84.3845L33.3325 77.4005H52.7005C54.1327 77.4005 55.5062 76.8316 56.5189 75.8189C57.5316 74.8062 58.1005 73.4327 58.1005 72.0005C58.1005 70.5684 57.5316 69.1948 56.5189 68.1821C55.5062 67.1695 54.1327 66.6005 52.7005 66.6005H33.3325L40.3165 59.6165C41.2704 58.5929 41.7897 57.2389 41.765 55.84C41.7403 54.441 41.1736 53.1062 40.1842 52.1168C39.1948 51.1275 37.8601 50.5607 36.4611 50.5361C35.0621 50.5114 33.7082 51.0307 32.6845 51.9845L16.4845 68.1845ZM76.3165 128.017L92.5165 111.817C93.0471 111.322 93.4726 110.726 93.7677 110.064C94.0629 109.401 94.2216 108.686 94.2344 107.961C94.2472 107.236 94.1138 106.516 93.8422 105.843C93.5706 105.171 93.1664 104.56 92.6536 104.047C92.1408 103.535 91.53 103.13 90.8576 102.859C90.1852 102.587 89.465 102.454 88.74 102.467C88.0149 102.479 87.2998 102.638 86.6374 102.933C85.9751 103.228 85.3789 103.654 84.8845 104.185L77.9005 111.169V91.8005C77.9005 90.3684 77.3316 88.9948 76.3189 87.9821C75.3062 86.9694 73.9327 86.4005 72.5005 86.4005C71.0684 86.4005 69.6948 86.9694 68.6821 87.9821C67.6695 88.9948 67.1005 90.3684 67.1005 91.8005V111.169L60.1165 104.185C59.0929 103.231 57.7389 102.711 56.34 102.736C54.941 102.761 53.6062 103.327 52.6168 104.317C51.6275 105.306 51.0607 106.641 51.0361 108.04C51.0114 109.439 51.5307 110.793 52.4845 111.817L68.6845 128.017C69.697 129.028 71.0695 129.596 72.5005 129.596C73.9315 129.596 75.304 129.028 76.3165 128.017ZM112.317 51.9845L128.517 68.1845C129.528 69.197 130.096 70.5695 130.096 72.0005C130.096 73.4315 129.528 74.804 128.517 75.8165L112.317 92.0165C111.822 92.5471 111.226 92.9726 110.564 93.2677C109.901 93.5629 109.186 93.7216 108.461 93.7344C107.736 93.7472 107.016 93.6138 106.343 93.3422C105.671 93.0706 105.06 92.6664 104.547 92.1536C104.035 91.6408 103.63 91.03 103.359 90.3576C103.087 89.6852 102.954 88.965 102.967 88.24C102.979 87.5149 103.138 86.7998 103.433 86.1374C103.728 85.4751 104.154 84.8789 104.685 84.3845L111.669 77.4005H92.3005C90.8684 77.4005 89.4948 76.8316 88.4821 75.8189C87.4694 74.8062 86.9005 73.4327 86.9005 72.0005C86.9005 70.5684 87.4694 69.1948 88.4821 68.1821C89.4948 67.1695 90.8684 66.6005 92.3005 66.6005H111.669L104.685 59.6165C103.731 58.5929 103.211 57.2389 103.236 55.84C103.261 54.441 103.827 53.1062 104.817 52.1168C105.806 51.1275 107.141 50.5607 108.54 50.5361C109.939 50.5114 111.293 51.0307 112.317 51.9845Z"/>
</mask>
<path d="M76.3165 15.9845C75.304 14.9733 73.9315 14.4053 72.5005 14.4053C71.0695 14.4053 69.697 14.9733 68.6845 15.9845L52.4845 32.1845C51.5307 33.2082 51.0114 34.5621 51.0361 35.9611C51.0607 37.3601 51.6275 38.6948 52.6168 39.6842C53.6062 40.6736 54.941 41.2403 56.34 41.265C57.7389 41.2897 59.0929 40.7704 60.1165 39.8165L67.1005 32.8325V52.2005C67.1005 53.6327 67.6695 55.0062 68.6821 56.0189C69.6948 57.0316 71.0684 57.6005 72.5005 57.6005C73.9327 57.6005 75.3062 57.0316 76.3189 56.0189C77.3316 55.0062 77.9005 53.6327 77.9005 52.2005V32.8325L84.8845 39.8165C85.3789 40.3471 85.9751 40.7726 86.6374 41.0677C87.2998 41.3629 88.0149 41.5216 88.74 41.5344C89.465 41.5472 90.1852 41.4138 90.8576 41.1422C91.53 40.8706 92.1408 40.4664 92.6536 39.9536C93.1664 39.4408 93.5706 38.83 93.8422 38.1576C94.1138 37.4852 94.2472 36.765 94.2344 36.04C94.2216 35.3149 94.0629 34.5998 93.7677 33.9374C93.4726 33.2751 93.0471 32.6789 92.5165 32.1845L76.3165 15.9845ZM16.4845 68.1845C15.4733 69.197 14.9053 70.5695 14.9053 72.0005C14.9053 73.4315 15.4733 74.804 16.4845 75.8165L32.6845 92.0165C33.7082 92.9704 35.0621 93.4897 36.4611 93.465C37.8601 93.4403 39.1948 92.8736 40.1842 91.8842C41.1736 90.8948 41.7403 89.56 41.765 88.1611C41.7897 86.7621 41.2704 85.4082 40.3165 84.3845L33.3325 77.4005H52.7005C54.1327 77.4005 55.5062 76.8316 56.5189 75.8189C57.5316 74.8062 58.1005 73.4327 58.1005 72.0005C58.1005 70.5684 57.5316 69.1948 56.5189 68.1821C55.5062 67.1695 54.1327 66.6005 52.7005 66.6005H33.3325L40.3165 59.6165C41.2704 58.5929 41.7897 57.2389 41.765 55.84C41.7403 54.441 41.1736 53.1062 40.1842 52.1168C39.1948 51.1275 37.8601 50.5607 36.4611 50.5361C35.0621 50.5114 33.7082 51.0307 32.6845 51.9845L16.4845 68.1845ZM76.3165 128.017L92.5165 111.817C93.0471 111.322 93.4726 110.726 93.7677 110.064C94.0629 109.401 94.2216 108.686 94.2344 107.961C94.2472 107.236 94.1138 106.516 93.8422 105.843C93.5706 105.171 93.1664 104.56 92.6536 104.047C92.1408 103.535 91.53 103.13 90.8576 102.859C90.1852 102.587 89.465 102.454 88.74 102.467C88.0149 102.479 87.2998 102.638 86.6374 102.933C85.9751 103.228 85.3789 103.654 84.8845 104.185L77.9005 111.169V91.8005C77.9005 90.3684 77.3316 88.9948 76.3189 87.9821C75.3062 86.9694 73.9327 86.4005 72.5005 86.4005C71.0684 86.4005 69.6948 86.9694 68.6821 87.9821C67.6695 88.9948 67.1005 90.3684 67.1005 91.8005V111.169L60.1165 104.185C59.0929 103.231 57.7389 102.711 56.34 102.736C54.941 102.761 53.6062 103.327 52.6168 104.317C51.6275 105.306 51.0607 106.641 51.0361 108.04C51.0114 109.439 51.5307 110.793 52.4845 111.817L68.6845 128.017C69.697 129.028 71.0695 129.596 72.5005 129.596C73.9315 129.596 75.304 129.028 76.3165 128.017ZM112.317 51.9845L128.517 68.1845C129.528 69.197 130.096 70.5695 130.096 72.0005C130.096 73.4315 129.528 74.804 128.517 75.8165L112.317 92.0165C111.822 92.5471 111.226 92.9726 110.564 93.2677C109.901 93.5629 109.186 93.7216 108.461 93.7344C107.736 93.7472 107.016 93.6138 106.343 93.3422C105.671 93.0706 105.06 92.6664 104.547 92.1536C104.035 91.6408 103.63 91.03 103.359 90.3576C103.087 89.6852 102.954 88.965 102.967 88.24C102.979 87.5149 103.138 86.7998 103.433 86.1374C103.728 85.4751 104.154 84.8789 104.685 84.3845L111.669 77.4005H92.3005C90.8684 77.4005 89.4948 76.8316 88.4821 75.8189C87.4694 74.8062 86.9005 73.4327 86.9005 72.0005C86.9005 70.5684 87.4694 69.1948 88.4821 68.1821C89.4948 67.1695 90.8684 66.6005 92.3005 66.6005H111.669L104.685 59.6165C103.731 58.5929 103.211 57.2389 103.236 55.84C103.261 54.441 103.827 53.1062 104.817 52.1168C105.806 51.1275 107.141 50.5607 108.54 50.5361C109.939 50.5114 111.293 51.0307 112.317 51.9845Z" fill="#ACACAC" fill-opacity="0.2" style="mix-blend-mode:luminosity"/>
<path d="M76.3165 15.9845C75.304 14.9733 73.9315 14.4053 72.5005 14.4053C71.0695 14.4053 69.697 14.9733 68.6845 15.9845L52.4845 32.1845C51.5307 33.2082 51.0114 34.5621 51.0361 35.9611C51.0607 37.3601 51.6275 38.6948 52.6168 39.6842C53.6062 40.6736 54.941 41.2403 56.34 41.265C57.7389 41.2897 59.0929 40.7704 60.1165 39.8165L67.1005 32.8325V52.2005C67.1005 53.6327 67.6695 55.0062 68.6821 56.0189C69.6948 57.0316 71.0684 57.6005 72.5005 57.6005C73.9327 57.6005 75.3062 57.0316 76.3189 56.0189C77.3316 55.0062 77.9005 53.6327 77.9005 52.2005V32.8325L84.8845 39.8165C85.3789 40.3471 85.9751 40.7726 86.6374 41.0677C87.2998 41.3629 88.0149 41.5216 88.74 41.5344C89.465 41.5472 90.1852 41.4138 90.8576 41.1422C91.53 40.8706 92.1408 40.4664 92.6536 39.9536C93.1664 39.4408 93.5706 38.83 93.8422 38.1576C94.1138 37.4852 94.2472 36.765 94.2344 36.04C94.2216 35.3149 94.0629 34.5998 93.7677 33.9374C93.4726 33.2751 93.0471 32.6789 92.5165 32.1845L76.3165 15.9845ZM16.4845 68.1845C15.4733 69.197 14.9053 70.5695 14.9053 72.0005C14.9053 73.4315 15.4733 74.804 16.4845 75.8165L32.6845 92.0165C33.7082 92.9704 35.0621 93.4897 36.4611 93.465C37.8601 93.4403 39.1948 92.8736 40.1842 91.8842C41.1736 90.8948 41.7403 89.56 41.765 88.1611C41.7897 86.7621 41.2704 85.4082 40.3165 84.3845L33.3325 77.4005H52.7005C54.1327 77.4005 55.5062 76.8316 56.5189 75.8189C57.5316 74.8062 58.1005 73.4327 58.1005 72.0005C58.1005 70.5684 57.5316 69.1948 56.5189 68.1821C55.5062 67.1695 54.1327 66.6005 52.7005 66.6005H33.3325L40.3165 59.6165C41.2704 58.5929 41.7897 57.2389 41.765 55.84C41.7403 54.441 41.1736 53.1062 40.1842 52.1168C39.1948 51.1275 37.8601 50.5607 36.4611 50.5361C35.0621 50.5114 33.7082 51.0307 32.6845 51.9845L16.4845 68.1845ZM76.3165 128.017L92.5165 111.817C93.0471 111.322 93.4726 110.726 93.7677 110.064C94.0629 109.401 94.2216 108.686 94.2344 107.961C94.2472 107.236 94.1138 106.516 93.8422 105.843C93.5706 105.171 93.1664 104.56 92.6536 104.047C92.1408 103.535 91.53 103.13 90.8576 102.859C90.1852 102.587 89.465 102.454 88.74 102.467C88.0149 102.479 87.2998 102.638 86.6374 102.933C85.9751 103.228 85.3789 103.654 84.8845 104.185L77.9005 111.169V91.8005C77.9005 90.3684 77.3316 88.9948 76.3189 87.9821C75.3062 86.9694 73.9327 86.4005 72.5005 86.4005C71.0684 86.4005 69.6948 86.9694 68.6821 87.9821C67.6695 88.9948 67.1005 90.3684 67.1005 91.8005V111.169L60.1165 104.185C59.0929 103.231 57.7389 102.711 56.34 102.736C54.941 102.761 53.6062 103.327 52.6168 104.317C51.6275 105.306 51.0607 106.641 51.0361 108.04C51.0114 109.439 51.5307 110.793 52.4845 111.817L68.6845 128.017C69.697 129.028 71.0695 129.596 72.5005 129.596C73.9315 129.596 75.304 129.028 76.3165 128.017ZM112.317 51.9845L128.517 68.1845C129.528 69.197 130.096 70.5695 130.096 72.0005C130.096 73.4315 129.528 74.804 128.517 75.8165L112.317 92.0165C111.822 92.5471 111.226 92.9726 110.564 93.2677C109.901 93.5629 109.186 93.7216 108.461 93.7344C107.736 93.7472 107.016 93.6138 106.343 93.3422C105.671 93.0706 105.06 92.6664 104.547 92.1536C104.035 91.6408 103.63 91.03 103.359 90.3576C103.087 89.6852 102.954 88.965 102.967 88.24C102.979 87.5149 103.138 86.7998 103.433 86.1374C103.728 85.4751 104.154 84.8789 104.685 84.3845L111.669 77.4005H92.3005C90.8684 77.4005 89.4948 76.8316 88.4821 75.8189C87.4694 74.8062 86.9005 73.4327 86.9005 72.0005C86.9005 70.5684 87.4694 69.1948 88.4821 68.1821C89.4948 67.1695 90.8684 66.6005 92.3005 66.6005H111.669L104.685 59.6165C103.731 58.5929 103.211 57.2389 103.236 55.84C103.261 54.441 103.827 53.1062 104.817 52.1168C105.806 51.1275 107.141 50.5607 108.54 50.5361C109.939 50.5114 111.293 51.0307 112.317 51.9845Z" fill="#D5D5D5" fill-opacity="0.3" style="mix-blend-mode:multiply"/>
<path d="M76.3165 15.9845C75.304 14.9733 73.9315 14.4053 72.5005 14.4053C71.0695 14.4053 69.697 14.9733 68.6845 15.9845L52.4845 32.1845C51.5307 33.2082 51.0114 34.5621 51.0361 35.9611C51.0607 37.3601 51.6275 38.6948 52.6168 39.6842C53.6062 40.6736 54.941 41.2403 56.34 41.265C57.7389 41.2897 59.0929 40.7704 60.1165 39.8165L67.1005 32.8325V52.2005C67.1005 53.6327 67.6695 55.0062 68.6821 56.0189C69.6948 57.0316 71.0684 57.6005 72.5005 57.6005C73.9327 57.6005 75.3062 57.0316 76.3189 56.0189C77.3316 55.0062 77.9005 53.6327 77.9005 52.2005V32.8325L84.8845 39.8165C85.3789 40.3471 85.9751 40.7726 86.6374 41.0677C87.2998 41.3629 88.0149 41.5216 88.74 41.5344C89.465 41.5472 90.1852 41.4138 90.8576 41.1422C91.53 40.8706 92.1408 40.4664 92.6536 39.9536C93.1664 39.4408 93.5706 38.83 93.8422 38.1576C94.1138 37.4852 94.2472 36.765 94.2344 36.04C94.2216 35.3149 94.0629 34.5998 93.7677 33.9374C93.4726 33.2751 93.0471 32.6789 92.5165 32.1845L76.3165 15.9845ZM16.4845 68.1845C15.4733 69.197 14.9053 70.5695 14.9053 72.0005C14.9053 73.4315 15.4733 74.804 16.4845 75.8165L32.6845 92.0165C33.7082 92.9704 35.0621 93.4897 36.4611 93.465C37.8601 93.4403 39.1948 92.8736 40.1842 91.8842C41.1736 90.8948 41.7403 89.56 41.765 88.1611C41.7897 86.7621 41.2704 85.4082 40.3165 84.3845L33.3325 77.4005H52.7005C54.1327 77.4005 55.5062 76.8316 56.5189 75.8189C57.5316 74.8062 58.1005 73.4327 58.1005 72.0005C58.1005 70.5684 57.5316 69.1948 56.5189 68.1821C55.5062 67.1695 54.1327 66.6005 52.7005 66.6005H33.3325L40.3165 59.6165C41.2704 58.5929 41.7897 57.2389 41.765 55.84C41.7403 54.441 41.1736 53.1062 40.1842 52.1168C39.1948 51.1275 37.8601 50.5607 36.4611 50.5361C35.0621 50.5114 33.7082 51.0307 32.6845 51.9845L16.4845 68.1845ZM76.3165 128.017L92.5165 111.817C93.0471 111.322 93.4726 110.726 93.7677 110.064C94.0629 109.401 94.2216 108.686 94.2344 107.961C94.2472 107.236 94.1138 106.516 93.8422 105.843C93.5706 105.171 93.1664 104.56 92.6536 104.047C92.1408 103.535 91.53 103.13 90.8576 102.859C90.1852 102.587 89.465 102.454 88.74 102.467C88.0149 102.479 87.2998 102.638 86.6374 102.933C85.9751 103.228 85.3789 103.654 84.8845 104.185L77.9005 111.169V91.8005C77.9005 90.3684 77.3316 88.9948 76.3189 87.9821C75.3062 86.9694 73.9327 86.4005 72.5005 86.4005C71.0684 86.4005 69.6948 86.9694 68.6821 87.9821C67.6695 88.9948 67.1005 90.3684 67.1005 91.8005V111.169L60.1165 104.185C59.0929 103.231 57.7389 102.711 56.34 102.736C54.941 102.761 53.6062 103.327 52.6168 104.317C51.6275 105.306 51.0607 106.641 51.0361 108.04C51.0114 109.439 51.5307 110.793 52.4845 111.817L68.6845 128.017C69.697 129.028 71.0695 129.596 72.5005 129.596C73.9315 129.596 75.304 129.028 76.3165 128.017ZM112.317 51.9845L128.517 68.1845C129.528 69.197 130.096 70.5695 130.096 72.0005C130.096 73.4315 129.528 74.804 128.517 75.8165L112.317 92.0165C111.822 92.5471 111.226 92.9726 110.564 93.2677C109.901 93.5629 109.186 93.7216 108.461 93.7344C107.736 93.7472 107.016 93.6138 106.343 93.3422C105.671 93.0706 105.06 92.6664 104.547 92.1536C104.035 91.6408 103.63 91.03 103.359 90.3576C103.087 89.6852 102.954 88.965 102.967 88.24C102.979 87.5149 103.138 86.7998 103.433 86.1374C103.728 85.4751 104.154 84.8789 104.685 84.3845L111.669 77.4005H92.3005C90.8684 77.4005 89.4948 76.8316 88.4821 75.8189C87.4694 74.8062 86.9005 73.4327 86.9005 72.0005C86.9005 70.5684 87.4694 69.1948 88.4821 68.1821C89.4948 67.1695 90.8684 66.6005 92.3005 66.6005H111.669L104.685 59.6165C103.731 58.5929 103.211 57.2389 103.236 55.84C103.261 54.441 103.827 53.1062 104.817 52.1168C105.806 51.1275 107.141 50.5607 108.54 50.5361C109.939 50.5114 111.293 51.0307 112.317 51.9845Z" fill="url(#paint0_radial_312_548)" fill-opacity="0.25" style="mix-blend-mode:overlay"/>
<path d="M76.3165 15.9845C75.304 14.9733 73.9315 14.4053 72.5005 14.4053C71.0695 14.4053 69.697 14.9733 68.6845 15.9845L52.4845 32.1845C51.5307 33.2082 51.0114 34.5621 51.0361 35.9611C51.0607 37.3601 51.6275 38.6948 52.6168 39.6842C53.6062 40.6736 54.941 41.2403 56.34 41.265C57.7389 41.2897 59.0929 40.7704 60.1165 39.8165L67.1005 32.8325V52.2005C67.1005 53.6327 67.6695 55.0062 68.6821 56.0189C69.6948 57.0316 71.0684 57.6005 72.5005 57.6005C73.9327 57.6005 75.3062 57.0316 76.3189 56.0189C77.3316 55.0062 77.9005 53.6327 77.9005 52.2005V32.8325L84.8845 39.8165C85.3789 40.3471 85.9751 40.7726 86.6374 41.0677C87.2998 41.3629 88.0149 41.5216 88.74 41.5344C89.465 41.5472 90.1852 41.4138 90.8576 41.1422C91.53 40.8706 92.1408 40.4664 92.6536 39.9536C93.1664 39.4408 93.5706 38.83 93.8422 38.1576C94.1138 37.4852 94.2472 36.765 94.2344 36.04C94.2216 35.3149 94.0629 34.5998 93.7677 33.9374C93.4726 33.2751 93.0471 32.6789 92.5165 32.1845L76.3165 15.9845ZM16.4845 68.1845C15.4733 69.197 14.9053 70.5695 14.9053 72.0005C14.9053 73.4315 15.4733 74.804 16.4845 75.8165L32.6845 92.0165C33.7082 92.9704 35.0621 93.4897 36.4611 93.465C37.8601 93.4403 39.1948 92.8736 40.1842 91.8842C41.1736 90.8948 41.7403 89.56 41.765 88.1611C41.7897 86.7621 41.2704 85.4082 40.3165 84.3845L33.3325 77.4005H52.7005C54.1327 77.4005 55.5062 76.8316 56.5189 75.8189C57.5316 74.8062 58.1005 73.4327 58.1005 72.0005C58.1005 70.5684 57.5316 69.1948 56.5189 68.1821C55.5062 67.1695 54.1327 66.6005 52.7005 66.6005H33.3325L40.3165 59.6165C41.2704 58.5929 41.7897 57.2389 41.765 55.84C41.7403 54.441 41.1736 53.1062 40.1842 52.1168C39.1948 51.1275 37.8601 50.5607 36.4611 50.5361C35.0621 50.5114 33.7082 51.0307 32.6845 51.9845L16.4845 68.1845ZM76.3165 128.017L92.5165 111.817C93.0471 111.322 93.4726 110.726 93.7677 110.064C94.0629 109.401 94.2216 108.686 94.2344 107.961C94.2472 107.236 94.1138 106.516 93.8422 105.843C93.5706 105.171 93.1664 104.56 92.6536 104.047C92.1408 103.535 91.53 103.13 90.8576 102.859C90.1852 102.587 89.465 102.454 88.74 102.467C88.0149 102.479 87.2998 102.638 86.6374 102.933C85.9751 103.228 85.3789 103.654 84.8845 104.185L77.9005 111.169V91.8005C77.9005 90.3684 77.3316 88.9948 76.3189 87.9821C75.3062 86.9694 73.9327 86.4005 72.5005 86.4005C71.0684 86.4005 69.6948 86.9694 68.6821 87.9821C67.6695 88.9948 67.1005 90.3684 67.1005 91.8005V111.169L60.1165 104.185C59.0929 103.231 57.7389 102.711 56.34 102.736C54.941 102.761 53.6062 103.327 52.6168 104.317C51.6275 105.306 51.0607 106.641 51.0361 108.04C51.0114 109.439 51.5307 110.793 52.4845 111.817L68.6845 128.017C69.697 129.028 71.0695 129.596 72.5005 129.596C73.9315 129.596 75.304 129.028 76.3165 128.017ZM112.317 51.9845L128.517 68.1845C129.528 69.197 130.096 70.5695 130.096 72.0005C130.096 73.4315 129.528 74.804 128.517 75.8165L112.317 92.0165C111.822 92.5471 111.226 92.9726 110.564 93.2677C109.901 93.5629 109.186 93.7216 108.461 93.7344C107.736 93.7472 107.016 93.6138 106.343 93.3422C105.671 93.0706 105.06 92.6664 104.547 92.1536C104.035 91.6408 103.63 91.03 103.359 90.3576C103.087 89.6852 102.954 88.965 102.967 88.24C102.979 87.5149 103.138 86.7998 103.433 86.1374C103.728 85.4751 104.154 84.8789 104.685 84.3845L111.669 77.4005H92.3005C90.8684 77.4005 89.4948 76.8316 88.4821 75.8189C87.4694 74.8062 86.9005 73.4327 86.9005 72.0005C86.9005 70.5684 87.4694 69.1948 88.4821 68.1821C89.4948 67.1695 90.8684 66.6005 92.3005 66.6005H111.669L104.685 59.6165C103.731 58.5929 103.211 57.2389 103.236 55.84C103.261 54.441 103.827 53.1062 104.817 52.1168C105.806 51.1275 107.141 50.5607 108.54 50.5361C109.939 50.5114 111.293 51.0307 112.317 51.9845Z" stroke="url(#paint1_linear_312_548)" stroke-width="2" mask="url(#path-1-inside-1_312_548)"/>
<defs>
<radialGradient id="paint0_radial_312_548" cx="0" cy="0" r="1" gradientUnits="userSpaceOnUse" gradientTransform="translate(72.5008 14.4535) rotate(90) scale(143.625 143.626)">
<stop stop-color="#FFFEFE"/>
<stop offset="1" stop-color="white" stop-opacity="0"/>
</radialGradient>
<linearGradient id="paint1_linear_312_548" x1="136.333" y1="51" x2="-5.92466" y2="183.25" gradientUnits="userSpaceOnUse">
<stop stop-color="#5581FF"/>
<stop offset="1" stop-color="white" stop-opacity="0.19"/>
</linearGradient>
</defs>
</svg>
