<svg width="199" height="45" viewBox="0 0 199 45" fill="none" xmlns="http://www.w3.org/2000/svg">
<g clip-path="url(#clip0_25_491)">
<path d="M56.7737 36.5322V6.53223H74.9704V12.3387H63.6676V20.4032H74.9704V26.129H63.6676V36.5322H56.7737Z" fill="white"/>
<path d="M79.5397 36.5323V15.8871H86.0328V20.1613C86.3534 18.7097 87.0749 17.5 88.117 16.6936C89.1591 15.8871 90.3615 15.4839 91.6441 15.4839C92.2854 15.4839 92.9267 15.5645 93.3275 15.6452V21.7742C92.5259 21.6936 91.8846 21.6129 91.4036 21.6129C87.7964 21.6129 86.0328 23.9516 86.0328 28.4678V36.4516H79.5397V36.5323Z" fill="white"/>
<path d="M104.55 37.0161C101.584 37.0161 99.1792 35.9678 97.4958 33.9516C95.7323 31.9355 94.9307 29.2742 94.9307 26.129C94.9307 22.9839 95.8124 20.4032 97.576 18.3065C99.3396 16.2903 101.744 15.2419 104.63 15.2419C106.073 15.2419 107.356 15.5645 108.478 16.2097C109.6 16.8548 110.482 17.6613 111.043 18.7903V15.8065H117.536V36.4516H111.043V33.5484C110.482 34.5968 109.6 35.4032 108.398 36.0484C107.276 36.7742 105.993 37.0161 104.55 37.0161ZM106.394 31.6129C107.917 31.6129 109.199 31.129 110.001 30.0807C110.803 29.0323 111.284 27.7419 111.284 26.2097C111.284 24.6774 110.883 23.3871 110.001 22.3387C109.119 21.2903 107.917 20.8065 106.394 20.8065C104.951 20.8065 103.748 21.2903 102.867 22.3387C101.985 23.3065 101.504 24.6774 101.504 26.2097C101.504 27.8226 101.985 29.1129 102.867 30.1613C103.748 31.129 104.951 31.6129 106.394 31.6129Z" fill="white"/>
<path d="M122.907 36.5322V15.887H129.4V18.8709C129.881 17.8225 130.603 16.9354 131.645 16.2903C132.687 15.6451 133.889 15.3225 135.252 15.3225C138.459 15.3225 140.623 16.6128 141.665 19.1128C142.226 17.9838 143.108 17.0161 144.23 16.3709C145.433 15.6451 146.715 15.3225 148.158 15.3225C153.048 15.3225 155.453 18.1451 155.453 23.7096V36.5322H148.88V24.9193C148.88 22.1773 147.838 20.887 145.834 20.887C143.509 20.887 142.387 22.5806 142.387 25.9677V36.6128H135.974V24.8386C135.974 22.1773 134.932 20.8064 132.927 20.8064C131.805 20.8064 130.923 21.2096 130.362 21.9354C129.801 22.6612 129.481 24.0322 129.481 25.887V36.5322H122.907Z" fill="white"/>
<path d="M180.945 25.0806C180.945 25.9677 180.864 26.8548 180.784 27.9838H165.634C165.714 29.3548 166.115 30.4032 166.996 31.129C167.878 31.8548 169 32.258 170.443 32.258C172.447 32.258 173.73 31.6128 174.291 30.3225H180.704C180.383 32.3386 179.261 34.0322 177.417 35.2419C175.494 36.5322 173.249 37.1773 170.524 37.1773C166.996 37.1773 164.271 36.2096 162.267 34.2741C160.263 32.3386 159.221 29.6774 159.221 26.2096C159.221 22.8225 160.263 20.1612 162.267 18.2257C164.271 16.2903 166.996 15.3225 170.283 15.3225C173.49 15.3225 176.055 16.2096 178.059 18.0644C179.902 19.8386 180.945 22.1773 180.945 25.0806ZM165.553 23.8709H174.451C174.451 22.4999 174.051 21.4515 173.329 20.7257C172.608 19.9999 171.566 19.5967 170.123 19.5967C168.76 19.5967 167.638 19.9999 166.836 20.8064C166.034 21.6128 165.634 22.6612 165.553 23.8709Z" fill="white"/>
<path d="M184.632 36.5323V15.8871H191.125V20.1613C191.446 18.7097 192.167 17.5 193.209 16.6936C194.251 15.8871 195.454 15.4839 196.736 15.4839C197.378 15.4839 198.019 15.5645 198.42 15.6452V21.7742C197.618 21.6936 196.977 21.6129 196.496 21.6129C192.889 21.6129 191.125 23.9516 191.125 28.4678V36.4516H184.632V36.5323Z" fill="white"/>
<path d="M30.3202 0V15H15.4101L0.5 0H30.3202ZM0.5 15H15.4101L30.3202 30H15.4101V45L0.5 30V15Z" fill="white"/>
</g>
<defs>
<clipPath id="clip0_25_491">
<rect width="198" height="45" fill="white" transform="translate(0.5)"/>
</clipPath>
</defs>
</svg>
