<svg width="145" height="144" viewBox="0 0 145 144" fill="none" xmlns="http://www.w3.org/2000/svg">
<mask id="path-1-inside-1_312_257" fill="white">
<path d="M72.5 6C51.8695 6 26.9875 10.7355 6.50002 21.1525C6.50002 43.6475 6.21952 99.7035 72.5 138C138.78 99.7035 138.5 43.6475 138.5 21.1525C118.012 10.7355 93.1305 6 72.5 6ZM71.917 90.8595L44.2135 58.866C46.034 57.5515 53.8385 52.5795 59.5805 59.097L71.609 73.331C71.6585 73.3255 103.514 40.617 103.591 40.672C104.944 39.462 107.408 37.9055 110.213 40.1165L71.917 90.8595Z"/>
</mask>
<path d="M72.5 6C51.8695 6 26.9875 10.7355 6.50002 21.1525C6.50002 43.6475 6.21952 99.7035 72.5 138C138.78 99.7035 138.5 43.6475 138.5 21.1525C118.012 10.7355 93.1305 6 72.5 6ZM71.917 90.8595L44.2135 58.866C46.034 57.5515 53.8385 52.5795 59.5805 59.097L71.609 73.331C71.6585 73.3255 103.514 40.617 103.591 40.672C104.944 39.462 107.408 37.9055 110.213 40.1165L71.917 90.8595Z" fill="#ACACAC" fill-opacity="0.2" style="mix-blend-mode:luminosity"/>
<path d="M72.5 6C51.8695 6 26.9875 10.7355 6.50002 21.1525C6.50002 43.6475 6.21952 99.7035 72.5 138C138.78 99.7035 138.5 43.6475 138.5 21.1525C118.012 10.7355 93.1305 6 72.5 6ZM71.917 90.8595L44.2135 58.866C46.034 57.5515 53.8385 52.5795 59.5805 59.097L71.609 73.331C71.6585 73.3255 103.514 40.617 103.591 40.672C104.944 39.462 107.408 37.9055 110.213 40.1165L71.917 90.8595Z" fill="#D5D5D5" fill-opacity="0.3" style="mix-blend-mode:multiply"/>
<path d="M72.5 6C51.8695 6 26.9875 10.7355 6.50002 21.1525C6.50002 43.6475 6.21952 99.7035 72.5 138C138.78 99.7035 138.5 43.6475 138.5 21.1525C118.012 10.7355 93.1305 6 72.5 6ZM71.917 90.8595L44.2135 58.866C46.034 57.5515 53.8385 52.5795 59.5805 59.097L71.609 73.331C71.6585 73.3255 103.514 40.617 103.591 40.672C104.944 39.462 107.408 37.9055 110.213 40.1165L71.917 90.8595Z" fill="url(#paint0_radial_312_257)" fill-opacity="0.25" style="mix-blend-mode:overlay"/>
<path d="M72.5 6C51.8695 6 26.9875 10.7355 6.50002 21.1525C6.50002 43.6475 6.21952 99.7035 72.5 138C138.78 99.7035 138.5 43.6475 138.5 21.1525C118.012 10.7355 93.1305 6 72.5 6ZM71.917 90.8595L44.2135 58.866C46.034 57.5515 53.8385 52.5795 59.5805 59.097L71.609 73.331C71.6585 73.3255 103.514 40.617 103.591 40.672C104.944 39.462 107.408 37.9055 110.213 40.1165L71.917 90.8595Z" stroke="url(#paint1_linear_312_257)" stroke-width="2" mask="url(#path-1-inside-1_312_257)"/>
<defs>
<radialGradient id="paint0_radial_312_257" cx="0" cy="0" r="1" gradientUnits="userSpaceOnUse" gradientTransform="translate(72.5003 6.05526) rotate(90) scale(164.583 164.585)">
<stop stop-color="#FFFEFE"/>
<stop offset="1" stop-color="white" stop-opacity="0"/>
</radialGradient>
<linearGradient id="paint1_linear_312_257" x1="9.74108" y1="10.2256" x2="141.378" y2="112.331" gradientUnits="userSpaceOnUse">
<stop stop-color="#5581FF"/>
<stop offset="1" stop-color="white" stop-opacity="0.19"/>
</linearGradient>
</defs>
</svg>
