<svg width="24" height="24" viewBox="0 0 24 24" fill="none" xmlns="http://www.w3.org/2000/svg">
<path fill-rule="evenodd" clip-rule="evenodd" d="M16 4.00003H8C5.79086 4.00003 4 5.79089 4 8.00003V16C4 18.2091 5.79086 20 8 20H16C18.2091 20 20 18.2091 20 16V8.00003C20 5.79089 18.2091 4.00003 16 4.00003ZM8 2.00003C4.68629 2.00003 2 4.68632 2 8.00003V16C2 19.3137 4.68629 22 8 22H16C19.3137 22 22 19.3137 22 16V8.00003C22 4.68632 19.3137 2.00003 16 2.00003H8Z" fill="white"/>
<path d="M17 8C17.5523 8 18 7.55228 18 7C18 6.44772 17.5523 6 17 6C16.4477 6 16 6.44772 16 7C16 7.55228 16.4477 8 17 8Z" fill="white"/>
<path fill-rule="evenodd" clip-rule="evenodd" d="M17 12C17 14.7614 14.7614 17 12 17C9.23858 17 7 14.7614 7 12C7 9.23855 9.23858 6.99997 12 6.99997C14.7614 6.99997 17 9.23855 17 12ZM15 12C15 13.6569 13.6569 15 12 15C10.3431 15 9 13.6569 9 12C9 10.3431 10.3431 8.99997 12 8.99997C13.6569 8.99997 15 10.3431 15 12Z" fill="white"/>
</svg>
