<svg width="478" height="392" viewBox="0 0 478 392" fill="none" xmlns="http://www.w3.org/2000/svg">
<g filter="url(#filter0_bd_33_2806)">
<rect x="20.5" y="10" width="437.333" height="352" rx="24" fill="#0221A9" fill-opacity="0.05" style="mix-blend-mode:multiply" shape-rendering="crispEdges"/>
<rect x="20.5" y="10" width="437.333" height="352" rx="24" fill="url(#paint0_radial_33_2806)" fill-opacity="0.8" style="mix-blend-mode:soft-light" shape-rendering="crispEdges"/>
<rect x="21.25" y="10.75" width="435.833" height="350.5" rx="23.25" stroke="url(#paint1_linear_33_2806)" stroke-width="1.5" shape-rendering="crispEdges"/>
<rect x="61.6666" y="43.5" width="355" height="285" rx="24" fill="#ACACAC" fill-opacity="0.2" style="mix-blend-mode:luminosity"/>
<rect x="61.6666" y="43.5" width="355" height="285" rx="24" fill="#D5D5D5" fill-opacity="0.3" style="mix-blend-mode:multiply"/>
<rect x="61.6666" y="43.5" width="355" height="285" rx="24" fill="url(#paint2_radial_33_2806)" fill-opacity="0.25" style="mix-blend-mode:overlay"/>
<rect x="62.1666" y="44" width="354" height="284" rx="23.5" stroke="#0221A9" stroke-opacity="0.05" style="mix-blend-mode:multiply"/>
<rect x="62.1666" y="44" width="354" height="284" rx="23.5" stroke="url(#paint3_radial_33_2806)" stroke-opacity="0.8" style="mix-blend-mode:soft-light"/>
<path d="M82.1103 79.5H79.5503V64.88H85.1303C88.4503 64.88 90.3903 66.56 90.3903 69.44C90.3903 71.4 89.4703 72.8 87.7503 73.5L90.5303 79.5H87.7303L85.2503 74.04H82.1103V79.5ZM82.1103 67.16V71.78H85.1303C86.7503 71.78 87.7103 70.92 87.7103 69.44C87.7103 67.98 86.7503 67.16 85.1303 67.16H82.1103ZM96.3056 79.76C93.3656 79.76 91.3056 77.62 91.3056 74.56C91.3056 71.46 93.3256 69.32 96.2256 69.32C99.1856 69.32 101.066 71.3 101.066 74.38V75.12L93.6256 75.14C93.8056 76.88 94.7256 77.76 96.3456 77.76C97.6856 77.76 98.5656 77.24 98.8456 76.3H101.106C100.686 78.46 98.8856 79.76 96.3056 79.76ZM96.2456 71.32C94.8056 71.32 93.9256 72.1 93.6856 73.58H98.6456C98.6456 72.22 97.7056 71.32 96.2456 71.32ZM105.389 79.5L101.469 69.62H104.069L105.789 74.16C106.209 75.34 106.549 76.36 106.669 76.9C106.809 76.28 107.169 75.24 107.589 74.16L109.389 69.62H111.909L107.789 79.5H105.389ZM114.531 67.64C113.691 67.64 113.031 66.98 113.031 66.16C113.031 65.34 113.691 64.7 114.531 64.7C115.331 64.7 115.991 65.34 115.991 66.16C115.991 66.98 115.331 67.64 114.531 67.64ZM113.311 79.5V69.62H115.751V79.5H113.311ZM117.512 76.5H119.832C119.852 77.36 120.492 77.9 121.612 77.9C122.752 77.9 123.372 77.44 123.372 76.72C123.372 76.22 123.112 75.86 122.232 75.66L120.452 75.24C118.672 74.84 117.812 74 117.812 72.42C117.812 70.48 119.452 69.32 121.732 69.32C123.952 69.32 125.452 70.6 125.472 72.52H123.152C123.132 71.68 122.572 71.14 121.632 71.14C120.672 71.14 120.112 71.58 120.112 72.32C120.112 72.88 120.552 73.24 121.392 73.44L123.172 73.86C124.832 74.24 125.672 75 125.672 76.52C125.672 78.52 123.972 79.76 121.532 79.76C119.072 79.76 117.512 78.44 117.512 76.5ZM131.95 79.76C129.01 79.76 126.95 77.62 126.95 74.56C126.95 71.46 128.97 69.32 131.87 69.32C134.83 69.32 136.71 71.3 136.71 74.38V75.12L129.27 75.14C129.45 76.88 130.37 77.76 131.99 77.76C133.33 77.76 134.21 77.24 134.49 76.3H136.75C136.33 78.46 134.53 79.76 131.95 79.76ZM131.89 71.32C130.45 71.32 129.57 72.1 129.33 73.58H134.29C134.29 72.22 133.35 71.32 131.89 71.32Z" fill="#ECECEC"/>
<path d="M387.354 64.9141C387.354 65.2622 387.492 65.596 387.739 65.8421C387.985 66.0883 388.319 66.2266 388.667 66.2266C389.015 66.2266 389.349 66.0883 389.595 65.8421C389.841 65.596 389.979 65.2622 389.979 64.9141C389.979 64.566 389.841 64.2321 389.595 63.986C389.349 63.7398 389.015 63.6016 388.667 63.6016C388.319 63.6016 387.985 63.7398 387.739 63.986C387.492 64.2321 387.354 64.566 387.354 64.9141ZM387.354 71.4766C387.354 71.8247 387.492 72.1585 387.739 72.4046C387.985 72.6508 388.319 72.7891 388.667 72.7891C389.015 72.7891 389.349 72.6508 389.595 72.4046C389.841 72.1585 389.979 71.8247 389.979 71.4766C389.979 71.1285 389.841 70.7946 389.595 70.5485C389.349 70.3023 389.015 70.1641 388.667 70.1641C388.319 70.1641 387.985 70.3023 387.739 70.5485C387.492 70.7946 387.354 71.1285 387.354 71.4766ZM387.354 78.0391C387.354 78.3872 387.492 78.721 387.739 78.9671C387.985 79.2133 388.319 79.3516 388.667 79.3516C389.015 79.3516 389.349 79.2133 389.595 78.9671C389.841 78.721 389.979 78.3872 389.979 78.0391C389.979 77.691 389.841 77.3571 389.595 77.111C389.349 76.8648 389.015 76.7266 388.667 76.7266C388.319 76.7266 387.985 76.8648 387.739 77.111C387.492 77.3571 387.354 77.691 387.354 78.0391Z" fill="#ECECEC"/>
<g filter="url(#filter1_di_33_2806)">
<rect x="77.6666" y="99.5" width="48" height="48" rx="8" fill="#9A9AA2" fill-opacity="0.4" style="mix-blend-mode:multiply" shape-rendering="crispEdges"/>
<path fill-rule="evenodd" clip-rule="evenodd" d="M90 108.5C89.1159 108.5 88.2681 108.851 87.6429 109.476C87.0178 110.101 86.6666 110.949 86.6666 111.833V135.167C86.6666 136.051 87.0178 136.899 87.6429 137.524C88.2681 138.149 89.1159 138.5 90 138.5H113.333C114.217 138.5 115.065 138.149 115.69 137.524C116.315 136.899 116.667 136.051 116.667 135.167V111.833C116.667 110.949 116.315 110.101 115.69 109.476C115.065 108.851 114.217 108.5 113.333 108.5H90ZM109.917 119.827C110.229 119.514 110.405 119.09 110.405 118.648C110.405 118.206 110.23 117.782 109.917 117.469C109.605 117.156 109.181 116.981 108.739 116.98C108.297 116.98 107.873 117.156 107.56 117.468L99.31 125.718L95.775 122.183C95.6202 122.028 95.4365 121.906 95.2343 121.822C95.0321 121.738 94.8153 121.695 94.5964 121.695C94.1543 121.695 93.7302 121.87 93.4175 122.182C93.1047 122.495 92.9289 122.919 92.9288 123.361C92.9286 123.803 93.1041 124.227 93.4166 124.54L98.0133 129.137C98.1835 129.307 98.3857 129.442 98.6082 129.534C98.8307 129.626 99.0691 129.674 99.31 129.674C99.5508 129.674 99.7893 129.626 100.012 129.534C100.234 129.442 100.436 129.307 100.607 129.137L109.917 119.827Z" fill="url(#paint4_linear_33_2806)"/>
</g>
<g filter="url(#filter2_di_33_2806)">
<rect x="141.667" y="99.5" width="259" height="48" rx="8" fill="url(#paint5_linear_33_2806)"/>
<rect x="153.667" y="111.5" width="4" height="24" rx="2" fill="#ECECEC"/>
<path d="M170.37 117.828V130H169.146V117.828H170.37ZM174.247 130H173.074V121.772H174.094L174.23 122.945C174.638 122.078 175.556 121.551 176.712 121.551C178.004 121.551 178.973 122.231 179.364 123.302C179.738 122.231 180.741 121.551 182.067 121.551C183.852 121.551 185.025 122.707 185.025 124.611V130H183.886V124.849C183.886 123.438 183.104 122.605 181.846 122.605C180.469 122.605 179.653 123.642 179.653 124.917V130H178.497V124.832C178.497 123.438 177.698 122.622 176.457 122.622C175.08 122.622 174.247 123.642 174.247 124.9V130ZM189.748 130.204C187.997 130.204 186.96 129.218 186.96 127.773C186.96 126.26 188.116 125.308 190.037 125.155L192.757 124.934V124.662C192.757 123.047 191.788 122.537 190.581 122.537C189.153 122.537 188.303 123.183 188.303 124.288H187.232C187.232 122.622 188.592 121.551 190.615 121.551C192.519 121.551 193.913 122.503 193.913 124.679V130H192.927L192.774 128.555C192.264 129.592 191.142 130.204 189.748 130.204ZM190.02 129.252C191.754 129.252 192.757 128.045 192.757 126.26V125.818L190.326 126.005C188.779 126.141 188.15 126.821 188.15 127.739C188.15 128.742 188.898 129.252 190.02 129.252ZM195.706 125.648C195.706 123.404 197.151 121.551 199.565 121.551C200.993 121.551 202.081 122.214 202.608 123.421L202.727 121.772H203.747V129.745C203.747 132.193 202.183 133.791 199.769 133.791C197.661 133.791 196.182 132.601 195.859 130.612H197.032C197.287 131.938 198.307 132.72 199.786 132.72C201.469 132.72 202.591 131.581 202.591 129.864V127.909C202.03 129.065 200.891 129.745 199.48 129.745C197.134 129.745 195.706 127.892 195.706 125.648ZM196.879 125.631C196.879 127.314 197.916 128.691 199.65 128.691C201.435 128.691 202.489 127.399 202.489 125.631C202.489 123.88 201.469 122.588 199.667 122.588C197.899 122.588 196.879 123.965 196.879 125.631ZM209.645 130.204C207.231 130.204 205.616 128.47 205.616 125.886C205.616 123.319 207.214 121.551 209.56 121.551C211.787 121.551 213.3 123.132 213.3 125.461V126.039H206.755C206.84 128.045 207.894 129.201 209.662 129.201C211.005 129.201 211.872 128.623 212.178 127.535H213.3C212.858 129.269 211.583 130.204 209.645 130.204ZM209.56 122.554C208.013 122.554 206.993 123.574 206.789 125.189H212.127C212.127 123.608 211.107 122.554 209.56 122.554ZM218.973 121.772H220.231V120.174C220.231 118.321 221.251 117.607 222.509 117.607C222.798 117.607 223.138 117.624 223.41 117.675V118.678H222.713C221.676 118.678 221.404 119.205 221.404 120.174V121.772H223.342V122.758H221.404V130H220.231V122.758H218.973V121.772ZM224.11 125.886C224.11 123.37 225.878 121.551 228.292 121.551C230.706 121.551 232.474 123.37 232.474 125.886C232.474 128.385 230.706 130.204 228.292 130.204C225.878 130.204 224.11 128.385 224.11 125.886ZM225.3 125.869C225.3 127.807 226.524 129.15 228.292 129.15C230.043 129.15 231.284 127.807 231.284 125.869C231.284 123.965 230.043 122.605 228.292 122.605C226.524 122.605 225.3 123.965 225.3 125.869ZM238.652 121.67V122.724H238.006C236.493 122.724 235.524 123.744 235.524 125.308V130H234.351V121.772H235.456L235.541 123.047C235.864 122.163 236.731 121.585 237.887 121.585C238.142 121.585 238.363 121.602 238.652 121.67ZM246.099 129.983H244.926V117.607H246.099V123.2C246.626 122.214 247.629 121.551 249.006 121.551C251.165 121.551 252.134 122.894 252.134 124.968V130H250.961V125.223C250.961 123.302 250.06 122.622 248.785 122.622C247.017 122.622 246.099 123.931 246.099 125.512V129.983ZM257.923 130.204C255.509 130.204 253.894 128.47 253.894 125.886C253.894 123.319 255.492 121.551 257.838 121.551C260.065 121.551 261.578 123.132 261.578 125.461V126.039H255.033C255.118 128.045 256.172 129.201 257.94 129.201C259.283 129.201 260.15 128.623 260.456 127.535H261.578C261.136 129.269 259.861 130.204 257.923 130.204ZM257.838 122.554C256.291 122.554 255.271 123.574 255.067 125.189H260.405C260.405 123.608 259.385 122.554 257.838 122.554ZM267.754 121.67V122.724H267.108C265.595 122.724 264.626 123.744 264.626 125.308V130H263.453V121.772H264.558L264.643 123.047C264.966 122.163 265.833 121.585 266.989 121.585C267.244 121.585 267.465 121.602 267.754 121.67ZM268.42 125.886C268.42 123.37 270.188 121.551 272.602 121.551C275.016 121.551 276.784 123.37 276.784 125.886C276.784 128.385 275.016 130.204 272.602 130.204C270.188 130.204 268.42 128.385 268.42 125.886ZM269.61 125.869C269.61 127.807 270.834 129.15 272.602 129.15C274.353 129.15 275.594 127.807 275.594 125.869C275.594 123.965 274.353 122.605 272.602 122.605C270.834 122.605 269.61 123.965 269.61 125.869ZM282.678 127.688H283.8C283.8 128.64 284.514 129.235 285.67 129.235C286.945 129.235 287.693 128.691 287.693 127.807C287.693 127.127 287.353 126.736 286.384 126.498L284.973 126.141C283.545 125.784 282.848 125.036 282.848 123.914C282.848 122.469 284.055 121.551 285.823 121.551C287.557 121.551 288.679 122.503 288.73 124.033H287.591C287.557 123.081 286.894 122.52 285.789 122.52C284.633 122.52 283.987 123.013 283.987 123.897C283.987 124.526 284.429 124.968 285.33 125.189L286.741 125.546C288.169 125.903 288.815 126.566 288.815 127.756C288.815 129.235 287.557 130.204 285.687 130.204C283.834 130.204 282.678 129.218 282.678 127.688ZM294.197 130.204C291.783 130.204 290.168 128.47 290.168 125.886C290.168 123.319 291.766 121.551 294.112 121.551C296.339 121.551 297.852 123.132 297.852 125.461V126.039H291.307C291.392 128.045 292.446 129.201 294.214 129.201C295.557 129.201 296.424 128.623 296.73 127.535H297.852C297.41 129.269 296.135 130.204 294.197 130.204ZM294.112 122.554C292.565 122.554 291.545 123.574 291.341 125.189H296.679C296.679 123.608 295.659 122.554 294.112 122.554ZM299.15 125.903C299.15 123.319 300.731 121.551 303.128 121.551C305.032 121.551 306.426 122.656 306.749 124.356H305.576C305.27 123.217 304.284 122.588 303.145 122.588C301.479 122.588 300.306 123.863 300.306 125.886C300.306 127.841 301.394 129.15 303.06 129.15C304.284 129.15 305.27 128.47 305.593 127.416H306.783C306.392 129.099 304.93 130.204 303.06 130.204C300.731 130.204 299.15 128.487 299.15 125.903ZM310.447 130H309.291V122.758H307.642V121.772H309.291V119.171H310.447V121.772H312.096V122.758H310.447V130ZM314.201 119.511C313.725 119.511 313.334 119.12 313.334 118.644C313.334 118.168 313.725 117.76 314.201 117.76C314.677 117.76 315.085 118.168 315.085 118.644C315.085 119.12 314.677 119.511 314.201 119.511ZM313.623 130V121.772H314.796V130H313.623ZM316.664 125.886C316.664 123.37 318.432 121.551 320.846 121.551C323.26 121.551 325.028 123.37 325.028 125.886C325.028 128.385 323.26 130.204 320.846 130.204C318.432 130.204 316.664 128.385 316.664 125.886ZM317.854 125.869C317.854 127.807 319.078 129.15 320.846 129.15C322.597 129.15 323.838 127.807 323.838 125.869C323.838 123.965 322.597 122.605 320.846 122.605C319.078 122.605 317.854 123.965 317.854 125.869ZM328.077 130H326.904V121.772H327.924L328.094 123.2C328.638 122.146 329.726 121.551 330.916 121.551C333.177 121.551 334.112 122.894 334.112 124.968V130H332.939V125.223C332.939 123.302 332.072 122.622 330.712 122.622C329.029 122.622 328.077 123.846 328.077 125.699V130Z" fill="#ECECEC"/>
</g>
<g filter="url(#filter3_di_33_2806)">
<rect x="77.6666" y="163.5" width="48" height="48" rx="8" fill="#9A9AA2" fill-opacity="0.4" style="mix-blend-mode:multiply" shape-rendering="crispEdges"/>
<path fill-rule="evenodd" clip-rule="evenodd" d="M90 172.5C89.1159 172.5 88.2681 172.851 87.6429 173.476C87.0178 174.101 86.6666 174.949 86.6666 175.833V199.167C86.6666 200.051 87.0178 200.899 87.6429 201.524C88.2681 202.149 89.1159 202.5 90 202.5H113.333C114.217 202.5 115.065 202.149 115.69 201.524C116.315 200.899 116.667 200.051 116.667 199.167V175.833C116.667 174.949 116.315 174.101 115.69 173.476C115.065 172.851 114.217 172.5 113.333 172.5H90ZM109.917 183.827C110.229 183.514 110.405 183.09 110.405 182.648C110.405 182.206 110.23 181.782 109.917 181.469C109.605 181.156 109.181 180.981 108.739 180.98C108.297 180.98 107.873 181.156 107.56 181.468L99.31 189.718L95.775 186.183C95.6202 186.028 95.4365 185.906 95.2343 185.822C95.0321 185.738 94.8153 185.695 94.5964 185.695C94.1543 185.695 93.7302 185.87 93.4175 186.182C93.1047 186.495 92.9289 186.919 92.9288 187.361C92.9286 187.803 93.1041 188.227 93.4166 188.54L98.0133 193.137C98.1835 193.307 98.3857 193.442 98.6082 193.534C98.8307 193.626 99.0691 193.674 99.31 193.674C99.5508 193.674 99.7893 193.626 100.012 193.534C100.234 193.442 100.436 193.307 100.607 193.137L109.917 183.827Z" fill="url(#paint6_linear_33_2806)"/>
</g>
<g filter="url(#filter4_di_33_2806)">
<rect x="141.667" y="163.5" width="259" height="48" rx="8" fill="url(#paint7_linear_33_2806)"/>
<rect x="153.667" y="175.5" width="4" height="24" rx="2" fill="#ECECEC"/>
<path d="M174.11 194.187C170.71 194.187 168.398 191.654 168.398 187.914C168.398 184.174 170.744 181.624 174.178 181.624C176.796 181.624 178.853 183.205 179.346 185.619H178.037C177.527 183.868 176.031 182.797 174.127 182.797C171.458 182.797 169.673 184.837 169.673 187.914C169.673 190.974 171.458 193.014 174.127 193.014C176.048 193.014 177.578 191.977 178.105 190.345H179.414C178.853 192.64 176.728 194.187 174.11 194.187ZM182.365 193.983H181.192V181.607H182.365V187.2C182.892 186.214 183.895 185.551 185.272 185.551C187.431 185.551 188.4 186.894 188.4 188.968V194H187.227V189.223C187.227 187.302 186.326 186.622 185.051 186.622C183.283 186.622 182.365 187.931 182.365 189.512V193.983ZM193.101 194.204C191.35 194.204 190.313 193.218 190.313 191.773C190.313 190.26 191.469 189.308 193.39 189.155L196.11 188.934V188.662C196.11 187.047 195.141 186.537 193.934 186.537C192.506 186.537 191.656 187.183 191.656 188.288H190.585C190.585 186.622 191.945 185.551 193.968 185.551C195.872 185.551 197.266 186.503 197.266 188.679V194H196.28L196.127 192.555C195.617 193.592 194.495 194.204 193.101 194.204ZM193.373 193.252C195.107 193.252 196.11 192.045 196.11 190.26V189.818L193.679 190.005C192.132 190.141 191.503 190.821 191.503 191.739C191.503 192.742 192.251 193.252 193.373 193.252ZM200.793 194H199.62V185.772H200.64L200.81 187.2C201.354 186.146 202.442 185.551 203.632 185.551C205.893 185.551 206.828 186.894 206.828 188.968V194H205.655V189.223C205.655 187.302 204.788 186.622 203.428 186.622C201.745 186.622 200.793 187.846 200.793 189.699V194ZM208.605 189.648C208.605 187.404 210.05 185.551 212.464 185.551C213.892 185.551 214.98 186.214 215.507 187.421L215.626 185.772H216.646V193.745C216.646 196.193 215.082 197.791 212.668 197.791C210.56 197.791 209.081 196.601 208.758 194.612H209.931C210.186 195.938 211.206 196.72 212.685 196.72C214.368 196.72 215.49 195.581 215.49 193.864V191.909C214.929 193.065 213.79 193.745 212.379 193.745C210.033 193.745 208.605 191.892 208.605 189.648ZM209.778 189.631C209.778 191.314 210.815 192.691 212.549 192.691C214.334 192.691 215.388 191.399 215.388 189.631C215.388 187.88 214.368 186.588 212.566 186.588C210.798 186.588 209.778 187.965 209.778 189.631ZM222.545 194.204C220.131 194.204 218.516 192.47 218.516 189.886C218.516 187.319 220.114 185.551 222.46 185.551C224.687 185.551 226.2 187.132 226.2 189.461V190.039H219.655C219.74 192.045 220.794 193.201 222.562 193.201C223.905 193.201 224.772 192.623 225.078 191.535H226.2C225.758 193.269 224.483 194.204 222.545 194.204ZM222.46 186.554C220.913 186.554 219.893 187.574 219.689 189.189H225.027C225.027 187.608 224.007 186.554 222.46 186.554ZM234.677 194H233.521V186.758H231.872V185.772H233.521V183.171H234.677V185.772H236.326V186.758H234.677V194ZM239.027 193.983H237.854V181.607H239.027V187.2C239.554 186.214 240.557 185.551 241.934 185.551C244.093 185.551 245.062 186.894 245.062 188.968V194H243.889V189.223C243.889 187.302 242.988 186.622 241.713 186.622C239.945 186.622 239.027 187.931 239.027 189.512V193.983ZM250.85 194.204C248.436 194.204 246.821 192.47 246.821 189.886C246.821 187.319 248.419 185.551 250.765 185.551C252.992 185.551 254.505 187.132 254.505 189.461V190.039H247.96C248.045 192.045 249.099 193.201 250.867 193.201C252.21 193.201 253.077 192.623 253.383 191.535H254.505C254.063 193.269 252.788 194.204 250.85 194.204ZM250.765 186.554C249.218 186.554 248.198 187.574 247.994 189.189H253.332C253.332 187.608 252.312 186.554 250.765 186.554ZM260.178 185.772H261.436V184.174C261.436 182.321 262.456 181.607 263.714 181.607C264.003 181.607 264.343 181.624 264.615 181.675V182.678H263.918C262.881 182.678 262.609 183.205 262.609 184.174V185.772H264.547V186.758H262.609V194H261.436V186.758H260.178V185.772ZM265.316 189.886C265.316 187.37 267.084 185.551 269.498 185.551C271.912 185.551 273.68 187.37 273.68 189.886C273.68 192.385 271.912 194.204 269.498 194.204C267.084 194.204 265.316 192.385 265.316 189.886ZM266.506 189.869C266.506 191.807 267.73 193.15 269.498 193.15C271.249 193.15 272.49 191.807 272.49 189.869C272.49 187.965 271.249 186.605 269.498 186.605C267.73 186.605 266.506 187.965 266.506 189.869ZM276.729 194H275.556V185.772H276.576L276.746 187.2C277.29 186.146 278.378 185.551 279.568 185.551C281.829 185.551 282.764 186.894 282.764 188.968V194H281.591V189.223C281.591 187.302 280.724 186.622 279.364 186.622C277.681 186.622 276.729 187.846 276.729 189.699V194ZM286.989 194H285.833V186.758H284.184V185.772H285.833V183.171H286.989V185.772H288.638V186.758H286.989V194ZM294.183 191.688H295.305C295.305 192.64 296.019 193.235 297.175 193.235C298.45 193.235 299.198 192.691 299.198 191.807C299.198 191.127 298.858 190.736 297.889 190.498L296.478 190.141C295.05 189.784 294.353 189.036 294.353 187.914C294.353 186.469 295.56 185.551 297.328 185.551C299.062 185.551 300.184 186.503 300.235 188.033H299.096C299.062 187.081 298.399 186.52 297.294 186.52C296.138 186.52 295.492 187.013 295.492 187.897C295.492 188.526 295.934 188.968 296.835 189.189L298.246 189.546C299.674 189.903 300.32 190.566 300.32 191.756C300.32 193.235 299.062 194.204 297.192 194.204C295.339 194.204 294.183 193.218 294.183 191.688ZM302.829 183.511C302.353 183.511 301.962 183.12 301.962 182.644C301.962 182.168 302.353 181.76 302.829 181.76C303.305 181.76 303.713 182.168 303.713 182.644C303.713 183.12 303.305 183.511 302.829 183.511ZM302.251 194V185.772H303.424V194H302.251ZM311.514 194H305.309V193.065L310.069 186.758H305.309V185.772H311.514V186.724L306.737 193.014H311.514V194ZM316.593 194.204C314.179 194.204 312.564 192.47 312.564 189.886C312.564 187.319 314.162 185.551 316.508 185.551C318.735 185.551 320.248 187.132 320.248 189.461V190.039H313.703C313.788 192.045 314.842 193.201 316.61 193.201C317.953 193.201 318.82 192.623 319.126 191.535H320.248C319.806 193.269 318.531 194.204 316.593 194.204ZM316.508 186.554C314.961 186.554 313.941 187.574 313.737 189.189H319.075C319.075 187.608 318.055 186.554 316.508 186.554Z" fill="#ECECEC"/>
</g>
<g filter="url(#filter5_di_33_2806)">
<rect x="77.6666" y="227.5" width="48" height="48" rx="8" fill="#9A9AA2" fill-opacity="0.4" style="mix-blend-mode:multiply" shape-rendering="crispEdges"/>
</g>
<g filter="url(#filter6_di_33_2806)">
<rect x="141.667" y="227.5" width="259" height="48" rx="8" fill="url(#paint8_linear_33_2806)"/>
<rect x="153.667" y="239.5" width="4" height="24" rx="2" fill="#ECECEC"/>
<path d="M175.351 252.645H170.37V258H169.146V245.828H176.32V246.95H170.37V251.54H175.351V252.645ZM176.896 253.886C176.896 251.37 178.664 249.551 181.078 249.551C183.492 249.551 185.26 251.37 185.26 253.886C185.26 256.385 183.492 258.204 181.078 258.204C178.664 258.204 176.896 256.385 176.896 253.886ZM178.086 253.869C178.086 255.807 179.31 257.15 181.078 257.15C182.829 257.15 184.07 255.807 184.07 253.869C184.07 251.965 182.829 250.605 181.078 250.605C179.31 250.605 178.086 251.965 178.086 253.869ZM186.558 253.886C186.558 251.37 188.326 249.551 190.74 249.551C193.154 249.551 194.922 251.37 194.922 253.886C194.922 256.385 193.154 258.204 190.74 258.204C188.326 258.204 186.558 256.385 186.558 253.886ZM187.748 253.869C187.748 255.807 188.972 257.15 190.74 257.15C192.491 257.15 193.732 255.807 193.732 253.869C193.732 251.965 192.491 250.605 190.74 250.605C188.972 250.605 187.748 251.965 187.748 253.869ZM198.602 258H197.446V250.758H195.797V249.772H197.446V247.171H198.602V249.772H200.251V250.758H198.602V258ZM205.146 258.204C202.732 258.204 201.117 256.47 201.117 253.886C201.117 251.319 202.715 249.551 205.061 249.551C207.288 249.551 208.801 251.132 208.801 253.461V254.039H202.256C202.341 256.045 203.395 257.201 205.163 257.201C206.506 257.201 207.373 256.623 207.679 255.535H208.801C208.359 257.269 207.084 258.204 205.146 258.204ZM205.061 250.554C203.514 250.554 202.494 251.574 202.29 253.189H207.628C207.628 251.608 206.608 250.554 205.061 250.554ZM214.978 249.67V250.724H214.332C212.819 250.724 211.85 251.744 211.85 253.308V258H210.677V249.772H211.782L211.867 251.047C212.19 250.163 213.057 249.585 214.213 249.585C214.468 249.585 214.689 249.602 214.978 249.67ZM220.555 255.688H221.677C221.677 256.64 222.391 257.235 223.547 257.235C224.822 257.235 225.57 256.691 225.57 255.807C225.57 255.127 225.23 254.736 224.261 254.498L222.85 254.141C221.422 253.784 220.725 253.036 220.725 251.914C220.725 250.469 221.932 249.551 223.7 249.551C225.434 249.551 226.556 250.503 226.607 252.033H225.468C225.434 251.081 224.771 250.52 223.666 250.52C222.51 250.52 221.864 251.013 221.864 251.897C221.864 252.526 222.306 252.968 223.207 253.189L224.618 253.546C226.046 253.903 226.692 254.566 226.692 255.756C226.692 257.235 225.434 258.204 223.564 258.204C221.711 258.204 220.555 257.218 220.555 255.688ZM230.51 258H229.354V250.758H227.705V249.772H229.354V247.171H230.51V249.772H232.159V250.758H230.51V258ZM232.854 261.587V260.618H233.755C234.469 260.618 235.183 260.567 235.591 259.462L235.948 258.493L232.616 249.772H233.857L236.509 256.946L239.11 249.772H240.317L236.543 259.887C236.067 261.179 235.268 261.706 234.095 261.706C233.602 261.706 233.228 261.672 232.854 261.587ZM242.912 258H241.739V245.607H242.912V258ZM248.858 258.204C246.444 258.204 244.829 256.47 244.829 253.886C244.829 251.319 246.427 249.551 248.773 249.551C251 249.551 252.513 251.132 252.513 253.461V254.039H245.968C246.053 256.045 247.107 257.201 248.875 257.201C250.218 257.201 251.085 256.623 251.391 255.535H252.513C252.071 257.269 250.796 258.204 248.858 258.204ZM248.773 250.554C247.226 250.554 246.206 251.574 246.002 253.189H251.34C251.34 251.608 250.32 250.554 248.773 250.554Z" fill="#ECECEC"/>
</g>
<g filter="url(#filter7_d_33_2806)">
<path d="M86.4253 266.382L86.4255 266.381C86.5007 266.199 86.5203 265.998 86.4816 265.804C86.443 265.611 86.3479 265.433 86.2084 265.293C86.0688 265.153 85.891 265.058 85.6974 265.019C85.5039 264.981 85.3032 265 85.1207 265.075C85.1206 265.075 85.1205 265.075 85.1205 265.075L51.1187 279.075L51.1186 279.075C50.9364 279.15 50.7805 279.277 50.6703 279.44C50.5601 279.604 50.5006 279.796 50.4992 279.993C50.4978 280.19 50.5546 280.383 50.6625 280.548C50.7704 280.712 50.9245 280.842 51.1056 280.919L51.1059 280.919L63.6359 286.289L63.636 286.289C64.3437 286.593 64.9076 287.157 65.211 287.864L65.2111 287.865L70.5811 300.395L70.5812 300.395C70.6587 300.576 70.788 300.73 70.9528 300.838C71.1176 300.946 71.3106 301.003 71.5075 301.001C71.7045 301 71.8966 300.94 72.0599 300.83C72.2232 300.72 72.3502 300.564 72.4252 300.382L72.4253 300.382L86.4253 266.382Z" fill="black" stroke="white" stroke-width="2"/>
</g>
</g>
<defs>
<filter id="filter0_bd_33_2806" x="-19.5" y="-30" width="517.333" height="432" filterUnits="userSpaceOnUse" color-interpolation-filters="sRGB">
<feFlood flood-opacity="0" result="BackgroundImageFix"/>
<feGaussianBlur in="BackgroundImageFix" stdDeviation="20"/>
<feComposite in2="SourceAlpha" operator="in" result="effect1_backgroundBlur_33_2806"/>
<feColorMatrix in="SourceAlpha" type="matrix" values="0 0 0 0 0 0 0 0 0 0 0 0 0 0 0 0 0 0 127 0" result="hardAlpha"/>
<feOffset dy="10"/>
<feGaussianBlur stdDeviation="10"/>
<feComposite in2="hardAlpha" operator="out"/>
<feColorMatrix type="matrix" values="0 0 0 0 0 0 0 0 0 0 0 0 0 0 0 0 0 0 0.15 0"/>
<feBlend mode="normal" in2="effect1_backgroundBlur_33_2806" result="effect2_dropShadow_33_2806"/>
<feBlend mode="normal" in="SourceGraphic" in2="effect2_dropShadow_33_2806" result="shape"/>
</filter>
<filter id="filter1_di_33_2806" x="73.6666" y="97.5" width="56" height="56" filterUnits="userSpaceOnUse" color-interpolation-filters="sRGB">
<feFlood flood-opacity="0" result="BackgroundImageFix"/>
<feColorMatrix in="SourceAlpha" type="matrix" values="0 0 0 0 0 0 0 0 0 0 0 0 0 0 0 0 0 0 127 0" result="hardAlpha"/>
<feOffset dy="2"/>
<feGaussianBlur stdDeviation="2"/>
<feComposite in2="hardAlpha" operator="out"/>
<feColorMatrix type="matrix" values="0 0 0 0 0 0 0 0 0 0 0 0 0 0 0 0 0 0 0.15 0"/>
<feBlend mode="normal" in2="BackgroundImageFix" result="effect1_dropShadow_33_2806"/>
<feBlend mode="normal" in="SourceGraphic" in2="effect1_dropShadow_33_2806" result="shape"/>
<feColorMatrix in="SourceAlpha" type="matrix" values="0 0 0 0 0 0 0 0 0 0 0 0 0 0 0 0 0 0 127 0" result="hardAlpha"/>
<feOffset dy="1"/>
<feGaussianBlur stdDeviation="1"/>
<feComposite in2="hardAlpha" operator="arithmetic" k2="-1" k3="1"/>
<feColorMatrix type="matrix" values="0 0 0 0 0 0 0 0 0 0 0 0 0 0 0 0 0 0 0.25 0"/>
<feBlend mode="normal" in2="shape" result="effect2_innerShadow_33_2806"/>
</filter>
<filter id="filter2_di_33_2806" x="137.667" y="97.5" width="267" height="56" filterUnits="userSpaceOnUse" color-interpolation-filters="sRGB">
<feFlood flood-opacity="0" result="BackgroundImageFix"/>
<feColorMatrix in="SourceAlpha" type="matrix" values="0 0 0 0 0 0 0 0 0 0 0 0 0 0 0 0 0 0 127 0" result="hardAlpha"/>
<feOffset dy="2"/>
<feGaussianBlur stdDeviation="2"/>
<feComposite in2="hardAlpha" operator="out"/>
<feColorMatrix type="matrix" values="0 0 0 0 0 0 0 0 0 0 0 0 0 0 0 0 0 0 0.15 0"/>
<feBlend mode="normal" in2="BackgroundImageFix" result="effect1_dropShadow_33_2806"/>
<feBlend mode="normal" in="SourceGraphic" in2="effect1_dropShadow_33_2806" result="shape"/>
<feColorMatrix in="SourceAlpha" type="matrix" values="0 0 0 0 0 0 0 0 0 0 0 0 0 0 0 0 0 0 127 0" result="hardAlpha"/>
<feOffset dy="1"/>
<feGaussianBlur stdDeviation="1"/>
<feComposite in2="hardAlpha" operator="arithmetic" k2="-1" k3="1"/>
<feColorMatrix type="matrix" values="0 0 0 0 0 0 0 0 0 0 0 0 0 0 0 0 0 0 0.25 0"/>
<feBlend mode="normal" in2="shape" result="effect2_innerShadow_33_2806"/>
</filter>
<filter id="filter3_di_33_2806" x="73.6666" y="161.5" width="56" height="56" filterUnits="userSpaceOnUse" color-interpolation-filters="sRGB">
<feFlood flood-opacity="0" result="BackgroundImageFix"/>
<feColorMatrix in="SourceAlpha" type="matrix" values="0 0 0 0 0 0 0 0 0 0 0 0 0 0 0 0 0 0 127 0" result="hardAlpha"/>
<feOffset dy="2"/>
<feGaussianBlur stdDeviation="2"/>
<feComposite in2="hardAlpha" operator="out"/>
<feColorMatrix type="matrix" values="0 0 0 0 0 0 0 0 0 0 0 0 0 0 0 0 0 0 0.15 0"/>
<feBlend mode="normal" in2="BackgroundImageFix" result="effect1_dropShadow_33_2806"/>
<feBlend mode="normal" in="SourceGraphic" in2="effect1_dropShadow_33_2806" result="shape"/>
<feColorMatrix in="SourceAlpha" type="matrix" values="0 0 0 0 0 0 0 0 0 0 0 0 0 0 0 0 0 0 127 0" result="hardAlpha"/>
<feOffset dy="1"/>
<feGaussianBlur stdDeviation="1"/>
<feComposite in2="hardAlpha" operator="arithmetic" k2="-1" k3="1"/>
<feColorMatrix type="matrix" values="0 0 0 0 0 0 0 0 0 0 0 0 0 0 0 0 0 0 0.25 0"/>
<feBlend mode="normal" in2="shape" result="effect2_innerShadow_33_2806"/>
</filter>
<filter id="filter4_di_33_2806" x="137.667" y="161.5" width="267" height="56" filterUnits="userSpaceOnUse" color-interpolation-filters="sRGB">
<feFlood flood-opacity="0" result="BackgroundImageFix"/>
<feColorMatrix in="SourceAlpha" type="matrix" values="0 0 0 0 0 0 0 0 0 0 0 0 0 0 0 0 0 0 127 0" result="hardAlpha"/>
<feOffset dy="2"/>
<feGaussianBlur stdDeviation="2"/>
<feComposite in2="hardAlpha" operator="out"/>
<feColorMatrix type="matrix" values="0 0 0 0 0 0 0 0 0 0 0 0 0 0 0 0 0 0 0.15 0"/>
<feBlend mode="normal" in2="BackgroundImageFix" result="effect1_dropShadow_33_2806"/>
<feBlend mode="normal" in="SourceGraphic" in2="effect1_dropShadow_33_2806" result="shape"/>
<feColorMatrix in="SourceAlpha" type="matrix" values="0 0 0 0 0 0 0 0 0 0 0 0 0 0 0 0 0 0 127 0" result="hardAlpha"/>
<feOffset dy="1"/>
<feGaussianBlur stdDeviation="1"/>
<feComposite in2="hardAlpha" operator="arithmetic" k2="-1" k3="1"/>
<feColorMatrix type="matrix" values="0 0 0 0 0 0 0 0 0 0 0 0 0 0 0 0 0 0 0.25 0"/>
<feBlend mode="normal" in2="shape" result="effect2_innerShadow_33_2806"/>
</filter>
<filter id="filter5_di_33_2806" x="73.6666" y="225.5" width="56" height="56" filterUnits="userSpaceOnUse" color-interpolation-filters="sRGB">
<feFlood flood-opacity="0" result="BackgroundImageFix"/>
<feColorMatrix in="SourceAlpha" type="matrix" values="0 0 0 0 0 0 0 0 0 0 0 0 0 0 0 0 0 0 127 0" result="hardAlpha"/>
<feOffset dy="2"/>
<feGaussianBlur stdDeviation="2"/>
<feComposite in2="hardAlpha" operator="out"/>
<feColorMatrix type="matrix" values="0 0 0 0 0 0 0 0 0 0 0 0 0 0 0 0 0 0 0.15 0"/>
<feBlend mode="normal" in2="BackgroundImageFix" result="effect1_dropShadow_33_2806"/>
<feBlend mode="normal" in="SourceGraphic" in2="effect1_dropShadow_33_2806" result="shape"/>
<feColorMatrix in="SourceAlpha" type="matrix" values="0 0 0 0 0 0 0 0 0 0 0 0 0 0 0 0 0 0 127 0" result="hardAlpha"/>
<feOffset dy="1"/>
<feGaussianBlur stdDeviation="1"/>
<feComposite in2="hardAlpha" operator="arithmetic" k2="-1" k3="1"/>
<feColorMatrix type="matrix" values="0 0 0 0 0 0 0 0 0 0 0 0 0 0 0 0 0 0 0.25 0"/>
<feBlend mode="normal" in2="shape" result="effect2_innerShadow_33_2806"/>
</filter>
<filter id="filter6_di_33_2806" x="137.667" y="225.5" width="267" height="56" filterUnits="userSpaceOnUse" color-interpolation-filters="sRGB">
<feFlood flood-opacity="0" result="BackgroundImageFix"/>
<feColorMatrix in="SourceAlpha" type="matrix" values="0 0 0 0 0 0 0 0 0 0 0 0 0 0 0 0 0 0 127 0" result="hardAlpha"/>
<feOffset dy="2"/>
<feGaussianBlur stdDeviation="2"/>
<feComposite in2="hardAlpha" operator="out"/>
<feColorMatrix type="matrix" values="0 0 0 0 0 0 0 0 0 0 0 0 0 0 0 0 0 0 0.15 0"/>
<feBlend mode="normal" in2="BackgroundImageFix" result="effect1_dropShadow_33_2806"/>
<feBlend mode="normal" in="SourceGraphic" in2="effect1_dropShadow_33_2806" result="shape"/>
<feColorMatrix in="SourceAlpha" type="matrix" values="0 0 0 0 0 0 0 0 0 0 0 0 0 0 0 0 0 0 127 0" result="hardAlpha"/>
<feOffset dy="1"/>
<feGaussianBlur stdDeviation="1"/>
<feComposite in2="hardAlpha" operator="arithmetic" k2="-1" k3="1"/>
<feColorMatrix type="matrix" values="0 0 0 0 0 0 0 0 0 0 0 0 0 0 0 0 0 0 0.25 0"/>
<feBlend mode="normal" in2="shape" result="effect2_innerShadow_33_2806"/>
</filter>
<filter id="filter7_d_33_2806" x="25.5" y="248" width="88" height="88" filterUnits="userSpaceOnUse" color-interpolation-filters="sRGB">
<feFlood flood-opacity="0" result="BackgroundImageFix"/>
<feColorMatrix in="SourceAlpha" type="matrix" values="0 0 0 0 0 0 0 0 0 0 0 0 0 0 0 0 0 0 127 0" result="hardAlpha"/>
<feOffset dy="10"/>
<feGaussianBlur stdDeviation="10"/>
<feComposite in2="hardAlpha" operator="out"/>
<feColorMatrix type="matrix" values="0 0 0 0 0 0 0 0 0 0 0 0 0 0 0 0 0 0 0.35 0"/>
<feBlend mode="normal" in2="BackgroundImageFix" result="effect1_dropShadow_33_2806"/>
<feBlend mode="normal" in="SourceGraphic" in2="effect1_dropShadow_33_2806" result="shape"/>
</filter>
<radialGradient id="paint0_radial_33_2806" cx="0" cy="0" r="1" gradientUnits="userSpaceOnUse" gradientTransform="translate(239.167 283.122) rotate(90) scale(339.659 635.49)">
<stop stop-color="#4860CB"/>
<stop offset="1" stop-color="white" stop-opacity="0"/>
</radialGradient>
<linearGradient id="paint1_linear_33_2806" x1="457.5" y1="20.5" x2="399.292" y2="399.797" gradientUnits="userSpaceOnUse">
<stop stop-color="#5581FF"/>
<stop offset="1" stop-color="white" stop-opacity="0.2"/>
</linearGradient>
<radialGradient id="paint2_radial_33_2806" cx="0" cy="0" r="1" gradientUnits="userSpaceOnUse" gradientTransform="translate(276.192 253.596) rotate(90.224) scale(177.365 220.929)">
<stop stop-color="#FFFEFE"/>
<stop offset="1" stop-color="white" stop-opacity="0"/>
</radialGradient>
<radialGradient id="paint3_radial_33_2806" cx="0" cy="0" r="1" gradientUnits="userSpaceOnUse" gradientTransform="translate(239.167 264.636) rotate(90) scale(275.008 515.851)">
<stop stop-color="#4860CB"/>
<stop offset="1" stop-color="white" stop-opacity="0"/>
</radialGradient>
<linearGradient id="paint4_linear_33_2806" x1="87.2239" y1="111.053" x2="116.68" y2="111.581" gradientUnits="userSpaceOnUse">
<stop stop-color="#5581FF"/>
<stop offset="1" stop-color="#8BA9FF"/>
</linearGradient>
<linearGradient id="paint5_linear_33_2806" x1="146.478" y1="103.585" x2="398.503" y2="127.964" gradientUnits="userSpaceOnUse">
<stop stop-color="#5581FF"/>
<stop offset="1" stop-color="#8BA9FF"/>
</linearGradient>
<linearGradient id="paint6_linear_33_2806" x1="87.2239" y1="175.053" x2="116.68" y2="175.581" gradientUnits="userSpaceOnUse">
<stop stop-color="#5581FF"/>
<stop offset="1" stop-color="#8BA9FF"/>
</linearGradient>
<linearGradient id="paint7_linear_33_2806" x1="146.478" y1="167.585" x2="398.503" y2="191.964" gradientUnits="userSpaceOnUse">
<stop stop-color="#5581FF"/>
<stop offset="1" stop-color="#8BA9FF"/>
</linearGradient>
<linearGradient id="paint8_linear_33_2806" x1="146.478" y1="231.585" x2="398.503" y2="255.964" gradientUnits="userSpaceOnUse">
<stop stop-color="#5581FF"/>
<stop offset="1" stop-color="#8BA9FF"/>
</linearGradient>
</defs>
</svg>
