<svg width="478" height="392" viewBox="0 0 478 392" fill="none" xmlns="http://www.w3.org/2000/svg">
<g filter="url(#filter0_bd_34_140)">
<rect x="20.5" y="10" width="437.333" height="352" rx="24" fill="#0221A9" fill-opacity="0.05" style="mix-blend-mode:multiply" shape-rendering="crispEdges"/>
<rect x="20.5" y="10" width="437.333" height="352" rx="24" fill="url(#paint0_radial_34_140)" fill-opacity="0.8" style="mix-blend-mode:soft-light" shape-rendering="crispEdges"/>
<rect x="21.25" y="10.75" width="435.833" height="350.5" rx="23.25" stroke="url(#paint1_linear_34_140)" stroke-width="1.5" shape-rendering="crispEdges"/>
<g clip-path="url(#clip0_34_140)">
<rect x="61.6666" y="43.5" width="355" height="285" rx="24" fill="#ACACAC" fill-opacity="0.2" style="mix-blend-mode:luminosity"/>
<rect x="61.6666" y="43.5" width="355" height="285" rx="24" fill="#D5D5D5" fill-opacity="0.3" style="mix-blend-mode:multiply"/>
<rect x="61.6666" y="43.5" width="355" height="285" rx="24" fill="url(#paint2_radial_34_140)" fill-opacity="0.25" style="mix-blend-mode:overlay"/>
<path d="M84.7693 79.5H79.5093V64.88H84.6293C88.9493 64.88 91.9293 67.86 91.9293 72.22C91.9293 76.52 89.0093 79.5 84.7693 79.5ZM84.3893 67.24H82.0693V77.14H84.5293C87.4493 77.14 89.2293 75.26 89.2293 72.22C89.2293 69.12 87.4093 67.24 84.3893 67.24ZM98.374 79.76C95.434 79.76 93.374 77.62 93.374 74.56C93.374 71.46 95.394 69.32 98.294 69.32C101.254 69.32 103.134 71.3 103.134 74.38V75.12L95.694 75.14C95.874 76.88 96.794 77.76 98.414 77.76C99.754 77.76 100.634 77.24 100.914 76.3H103.174C102.754 78.46 100.954 79.76 98.374 79.76ZM98.314 71.32C96.874 71.32 95.994 72.1 95.754 73.58H100.714C100.714 72.22 99.774 71.32 98.314 71.32ZM104.327 76.5H106.647C106.667 77.36 107.307 77.9 108.427 77.9C109.567 77.9 110.187 77.44 110.187 76.72C110.187 76.22 109.927 75.86 109.047 75.66L107.267 75.24C105.487 74.84 104.627 74 104.627 72.42C104.627 70.48 106.267 69.32 108.547 69.32C110.767 69.32 112.267 70.6 112.287 72.52H109.967C109.947 71.68 109.387 71.14 108.447 71.14C107.487 71.14 106.927 71.58 106.927 72.32C106.927 72.88 107.367 73.24 108.207 73.44L109.987 73.86C111.647 74.24 112.487 75 112.487 76.52C112.487 78.52 110.787 79.76 108.347 79.76C105.887 79.76 104.327 78.44 104.327 76.5ZM115.565 67.64C114.725 67.64 114.065 66.98 114.065 66.16C114.065 65.34 114.725 64.7 115.565 64.7C116.365 64.7 117.025 65.34 117.025 66.16C117.025 66.98 116.365 67.64 115.565 67.64ZM114.345 79.5V69.62H116.785V79.5H114.345ZM118.746 74.34C118.746 71.46 120.626 69.3 123.446 69.3C124.926 69.3 126.086 69.92 126.666 70.98L126.806 69.62H129.066V79C129.066 82.3 127.086 84.36 123.886 84.36C121.046 84.36 119.106 82.74 118.806 80.1H121.246C121.406 81.38 122.386 82.14 123.886 82.14C125.566 82.14 126.646 81.08 126.646 79.44V77.8C126.026 78.72 124.806 79.3 123.386 79.3C120.586 79.3 118.746 77.2 118.746 74.34ZM121.206 74.28C121.206 75.94 122.266 77.18 123.866 77.18C125.546 77.18 126.586 76 126.586 74.28C126.586 72.6 125.566 71.44 123.866 71.44C122.246 71.44 121.206 72.66 121.206 74.28ZM134.031 79.5H131.591V69.62H133.851L134.051 70.9C134.671 69.9 135.871 69.32 137.211 69.32C139.691 69.32 140.971 70.86 140.971 73.42V79.5H138.531V74C138.531 72.34 137.711 71.54 136.451 71.54C134.951 71.54 134.031 72.58 134.031 74.18V79.5ZM154.959 69.58V71.84H154.059C152.299 71.84 151.199 72.78 151.199 74.7V79.5H148.759V69.64H151.059L151.199 71.08C151.619 70.1 152.559 69.44 153.879 69.44C154.219 69.44 154.559 69.48 154.959 69.58ZM160.698 79.76C157.758 79.76 155.698 77.62 155.698 74.56C155.698 71.46 157.718 69.32 160.618 69.32C163.578 69.32 165.458 71.3 165.458 74.38V75.12L158.018 75.14C158.198 76.88 159.118 77.76 160.738 77.76C162.078 77.76 162.958 77.24 163.238 76.3H165.498C165.078 78.46 163.278 79.76 160.698 79.76ZM160.638 71.32C159.198 71.32 158.318 72.1 158.078 73.58H163.038C163.038 72.22 162.098 71.32 160.638 71.32ZM166.831 74.44C166.831 71.34 168.671 69.32 171.451 69.32C172.951 69.32 174.251 69.98 174.851 71.12L175.011 69.62H177.251V84.08H174.831V78.18C174.211 79.18 172.911 79.76 171.451 79.76C168.511 79.76 166.831 77.52 166.831 74.44ZM169.271 74.56C169.271 76.32 170.311 77.56 172.011 77.56C173.711 77.56 174.811 76.34 174.811 74.56C174.811 72.78 173.711 71.54 172.011 71.54C170.311 71.54 169.271 72.8 169.271 74.56ZM186.494 69.62H188.934V79.5H186.674L186.494 78.18C185.894 79.12 184.614 79.76 183.294 79.76C181.014 79.76 179.674 78.22 179.674 75.8V69.62H182.114V74.94C182.114 76.82 182.854 77.58 184.214 77.58C185.754 77.58 186.494 76.68 186.494 74.8V69.62ZM195.679 79.76C192.739 79.76 190.679 77.62 190.679 74.56C190.679 71.46 192.699 69.32 195.599 69.32C198.559 69.32 200.439 71.3 200.439 74.38V75.12L192.999 75.14C193.179 76.88 194.099 77.76 195.719 77.76C197.059 77.76 197.939 77.24 198.219 76.3H200.479C200.059 78.46 198.259 79.76 195.679 79.76ZM195.619 71.32C194.179 71.32 193.299 72.1 193.059 73.58H198.019C198.019 72.22 197.079 71.32 195.619 71.32ZM201.631 76.5H203.951C203.971 77.36 204.611 77.9 205.731 77.9C206.871 77.9 207.491 77.44 207.491 76.72C207.491 76.22 207.231 75.86 206.351 75.66L204.571 75.24C202.791 74.84 201.931 74 201.931 72.42C201.931 70.48 203.571 69.32 205.851 69.32C208.071 69.32 209.571 70.6 209.591 72.52H207.271C207.251 71.68 206.691 71.14 205.751 71.14C204.791 71.14 204.231 71.58 204.231 72.32C204.231 72.88 204.671 73.24 205.511 73.44L207.291 73.86C208.951 74.24 209.791 75 209.791 76.52C209.791 78.52 208.091 79.76 205.651 79.76C203.191 79.76 201.631 78.44 201.631 76.5ZM215.009 79.5H212.569V71.66H210.669V69.62H212.569V66.54H215.009V69.62H216.929V71.66H215.009V79.5ZM217.686 76.5H220.006C220.026 77.36 220.666 77.9 221.786 77.9C222.926 77.9 223.546 77.44 223.546 76.72C223.546 76.22 223.286 75.86 222.406 75.66L220.626 75.24C218.846 74.84 217.986 74 217.986 72.42C217.986 70.48 219.626 69.32 221.906 69.32C224.126 69.32 225.626 70.6 225.646 72.52H223.326C223.306 71.68 222.746 71.14 221.806 71.14C220.846 71.14 220.286 71.58 220.286 72.32C220.286 72.88 220.726 73.24 221.566 73.44L223.346 73.86C225.006 74.24 225.846 75 225.846 76.52C225.846 78.52 224.146 79.76 221.706 79.76C219.246 79.76 217.686 78.44 217.686 76.5Z" fill="#ECECEC"/>
<path d="M387.354 64.9141C387.354 65.2622 387.492 65.596 387.739 65.8421C387.985 66.0883 388.319 66.2266 388.667 66.2266C389.015 66.2266 389.349 66.0883 389.595 65.8421C389.841 65.596 389.979 65.2622 389.979 64.9141C389.979 64.566 389.841 64.2321 389.595 63.986C389.349 63.7398 389.015 63.6016 388.667 63.6016C388.319 63.6016 387.985 63.7398 387.739 63.986C387.492 64.2321 387.354 64.566 387.354 64.9141ZM387.354 71.4766C387.354 71.8247 387.492 72.1585 387.739 72.4046C387.985 72.6508 388.319 72.7891 388.667 72.7891C389.015 72.7891 389.349 72.6508 389.595 72.4046C389.841 72.1585 389.979 71.8247 389.979 71.4766C389.979 71.1285 389.841 70.7946 389.595 70.5485C389.349 70.3023 389.015 70.1641 388.667 70.1641C388.319 70.1641 387.985 70.3023 387.739 70.5485C387.492 70.7946 387.354 71.1285 387.354 71.4766ZM387.354 78.0391C387.354 78.3872 387.492 78.721 387.739 78.9671C387.985 79.2133 388.319 79.3516 388.667 79.3516C389.015 79.3516 389.349 79.2133 389.595 78.9671C389.841 78.721 389.979 78.3872 389.979 78.0391C389.979 77.691 389.841 77.3571 389.595 77.111C389.349 76.8648 389.015 76.7266 388.667 76.7266C388.319 76.7266 387.985 76.8648 387.739 77.111C387.492 77.3571 387.354 77.691 387.354 78.0391Z" fill="#ECECEC"/>
<g filter="url(#filter1_di_34_140)">
<rect x="77.6666" y="99.5" width="323" height="48" rx="8" fill="url(#paint3_linear_34_140)"/>
<rect x="89.6666" y="111.5" width="4" height="24" rx="2" fill="#ECECEC"/>
<path d="M106.37 117.828V128.878H111.963V130H105.146V117.828H106.37ZM115.903 130.204C114.152 130.204 113.115 129.218 113.115 127.773C113.115 126.26 114.271 125.308 116.192 125.155L118.912 124.934V124.662C118.912 123.047 117.943 122.537 116.736 122.537C115.308 122.537 114.458 123.183 114.458 124.288H113.387C113.387 122.622 114.747 121.551 116.77 121.551C118.674 121.551 120.068 122.503 120.068 124.679V130H119.082L118.929 128.555C118.419 129.592 117.297 130.204 115.903 130.204ZM116.175 129.252C117.909 129.252 118.912 128.045 118.912 126.26V125.818L116.481 126.005C114.934 126.141 114.305 126.821 114.305 127.739C114.305 128.742 115.053 129.252 116.175 129.252ZM123.595 130H122.422V121.772H123.442L123.612 123.2C124.156 122.146 125.244 121.551 126.434 121.551C128.695 121.551 129.63 122.894 129.63 124.968V130H128.457V125.223C128.457 123.302 127.59 122.622 126.23 122.622C124.547 122.622 123.595 123.846 123.595 125.699V130ZM135.198 130.204C132.801 130.204 131.39 128.368 131.39 125.903C131.39 123.421 132.801 121.551 135.249 121.551C136.609 121.551 137.697 122.146 138.275 123.336V117.607H139.448V130H138.428L138.309 128.317C137.731 129.592 136.575 130.204 135.198 130.204ZM135.402 129.133C137.204 129.133 138.258 127.773 138.258 125.869C138.258 123.982 137.204 122.605 135.402 122.605C133.617 122.605 132.58 123.982 132.58 125.869C132.58 127.773 133.617 129.133 135.402 129.133ZM142.474 119.511C141.998 119.511 141.607 119.12 141.607 118.644C141.607 118.168 141.998 117.76 142.474 117.76C142.95 117.76 143.358 118.168 143.358 118.644C143.358 119.12 142.95 119.511 142.474 119.511ZM141.896 130V121.772H143.069V130H141.896ZM146.688 130H145.515V121.772H146.535L146.705 123.2C147.249 122.146 148.337 121.551 149.527 121.551C151.788 121.551 152.723 122.894 152.723 124.968V130H151.55V125.223C151.55 123.302 150.683 122.622 149.323 122.622C147.64 122.622 146.688 123.846 146.688 125.699V130ZM154.5 125.648C154.5 123.404 155.945 121.551 158.359 121.551C159.787 121.551 160.875 122.214 161.402 123.421L161.521 121.772H162.541V129.745C162.541 132.193 160.977 133.791 158.563 133.791C156.455 133.791 154.976 132.601 154.653 130.612H155.826C156.081 131.938 157.101 132.72 158.58 132.72C160.263 132.72 161.385 131.581 161.385 129.864V127.909C160.824 129.065 159.685 129.745 158.274 129.745C155.928 129.745 154.5 127.892 154.5 125.648ZM155.673 125.631C155.673 127.314 156.71 128.691 158.444 128.691C160.229 128.691 161.283 127.399 161.283 125.631C161.283 123.88 160.263 122.588 158.461 122.588C156.693 122.588 155.673 123.965 155.673 125.631ZM169.703 133.587V121.772H170.723L170.842 123.438C171.42 122.163 172.576 121.551 173.953 121.551C176.333 121.551 177.761 123.37 177.761 125.852C177.761 128.334 176.384 130.204 173.953 130.204C172.559 130.204 171.454 129.609 170.876 128.419V133.587H169.703ZM170.893 125.886C170.893 127.773 171.947 129.15 173.749 129.15C175.534 129.15 176.571 127.773 176.571 125.886C176.571 123.982 175.534 122.622 173.749 122.622C171.947 122.622 170.893 123.982 170.893 125.886ZM181.994 130.204C180.243 130.204 179.206 129.218 179.206 127.773C179.206 126.26 180.362 125.308 182.283 125.155L185.003 124.934V124.662C185.003 123.047 184.034 122.537 182.827 122.537C181.399 122.537 180.549 123.183 180.549 124.288H179.478C179.478 122.622 180.838 121.551 182.861 121.551C184.765 121.551 186.159 122.503 186.159 124.679V130H185.173L185.02 128.555C184.51 129.592 183.388 130.204 181.994 130.204ZM182.266 129.252C184 129.252 185.003 128.045 185.003 126.26V125.818L182.572 126.005C181.025 126.141 180.396 126.821 180.396 127.739C180.396 128.742 181.144 129.252 182.266 129.252ZM187.952 125.648C187.952 123.404 189.397 121.551 191.811 121.551C193.239 121.551 194.327 122.214 194.854 123.421L194.973 121.772H195.993V129.745C195.993 132.193 194.429 133.791 192.015 133.791C189.907 133.791 188.428 132.601 188.105 130.612H189.278C189.533 131.938 190.553 132.72 192.032 132.72C193.715 132.72 194.837 131.581 194.837 129.864V127.909C194.276 129.065 193.137 129.745 191.726 129.745C189.38 129.745 187.952 127.892 187.952 125.648ZM189.125 125.631C189.125 127.314 190.162 128.691 191.896 128.691C193.681 128.691 194.735 127.399 194.735 125.631C194.735 123.88 193.715 122.588 191.913 122.588C190.145 122.588 189.125 123.965 189.125 125.631ZM201.891 130.204C199.477 130.204 197.862 128.47 197.862 125.886C197.862 123.319 199.46 121.551 201.806 121.551C204.033 121.551 205.546 123.132 205.546 125.461V126.039H199.001C199.086 128.045 200.14 129.201 201.908 129.201C203.251 129.201 204.118 128.623 204.424 127.535H205.546C205.104 129.269 203.829 130.204 201.891 130.204ZM201.806 122.554C200.259 122.554 199.239 123.574 199.035 125.189H204.373C204.373 123.608 203.353 122.554 201.806 122.554ZM215.367 130.204C212.97 130.204 211.559 128.368 211.559 125.903C211.559 123.421 212.97 121.551 215.418 121.551C216.778 121.551 217.866 122.146 218.444 123.336V117.607H219.617V130H218.597L218.478 128.317C217.9 129.592 216.744 130.204 215.367 130.204ZM215.571 129.133C217.373 129.133 218.427 127.773 218.427 125.869C218.427 123.982 217.373 122.605 215.571 122.605C213.786 122.605 212.749 123.982 212.749 125.869C212.749 127.773 213.786 129.133 215.571 129.133ZM225.515 130.204C223.101 130.204 221.486 128.47 221.486 125.886C221.486 123.319 223.084 121.551 225.43 121.551C227.657 121.551 229.17 123.132 229.17 125.461V126.039H222.625C222.71 128.045 223.764 129.201 225.532 129.201C226.875 129.201 227.742 128.623 228.048 127.535H229.17C228.728 129.269 227.453 130.204 225.515 130.204ZM225.43 122.554C223.883 122.554 222.863 123.574 222.659 125.189H227.997C227.997 123.608 226.977 122.554 225.43 122.554ZM230.349 127.688H231.471C231.471 128.64 232.185 129.235 233.341 129.235C234.616 129.235 235.364 128.691 235.364 127.807C235.364 127.127 235.024 126.736 234.055 126.498L232.644 126.141C231.216 125.784 230.519 125.036 230.519 123.914C230.519 122.469 231.726 121.551 233.494 121.551C235.228 121.551 236.35 122.503 236.401 124.033H235.262C235.228 123.081 234.565 122.52 233.46 122.52C232.304 122.52 231.658 123.013 231.658 123.897C231.658 124.526 232.1 124.968 233.001 125.189L234.412 125.546C235.84 125.903 236.486 126.566 236.486 127.756C236.486 129.235 235.228 130.204 233.358 130.204C231.505 130.204 230.349 129.218 230.349 127.688ZM238.995 119.511C238.519 119.511 238.128 119.12 238.128 118.644C238.128 118.168 238.519 117.76 238.995 117.76C239.471 117.76 239.879 118.168 239.879 118.644C239.879 119.12 239.471 119.511 238.995 119.511ZM238.417 130V121.772H239.59V130H238.417ZM241.475 125.648C241.475 123.404 242.92 121.551 245.334 121.551C246.762 121.551 247.85 122.214 248.377 123.421L248.496 121.772H249.516V129.745C249.516 132.193 247.952 133.791 245.538 133.791C243.43 133.791 241.951 132.601 241.628 130.612H242.801C243.056 131.938 244.076 132.72 245.555 132.72C247.238 132.72 248.36 131.581 248.36 129.864V127.909C247.799 129.065 246.66 129.745 245.249 129.745C242.903 129.745 241.475 127.892 241.475 125.648ZM242.648 125.631C242.648 127.314 243.685 128.691 245.419 128.691C247.204 128.691 248.258 127.399 248.258 125.631C248.258 123.88 247.238 122.588 245.436 122.588C243.668 122.588 242.648 123.965 242.648 125.631ZM253.137 130H251.964V121.772H252.984L253.154 123.2C253.698 122.146 254.786 121.551 255.976 121.551C258.237 121.551 259.172 122.894 259.172 124.968V130H257.999V125.223C257.999 123.302 257.132 122.622 255.772 122.622C254.089 122.622 253.137 123.846 253.137 125.699V130Z" fill="#ECECEC"/>
</g>
<rect x="77.6666" y="163.5" width="323" height="47" rx="8" fill="#9A9AA2" fill-opacity="0.4" style="mix-blend-mode:multiply"/>
<rect x="78.1666" y="164" width="322" height="46" rx="7.5" stroke="#ACACAC" stroke-opacity="0.2" stroke-dasharray="8 8" style="mix-blend-mode:luminosity"/>
<rect x="78.1666" y="164" width="322" height="46" rx="7.5" stroke="#D5D5D5" stroke-opacity="0.3" stroke-dasharray="8 8" style="mix-blend-mode:multiply"/>
<rect x="78.1666" y="164" width="322" height="46" rx="7.5" stroke="url(#paint4_radial_34_140)" stroke-opacity="0.25" stroke-dasharray="8 8" style="mix-blend-mode:overlay"/>
<g filter="url(#filter2_d_34_140)">
<g filter="url(#filter3_i_34_140)">
<g clip-path="url(#clip1_34_140)">
<rect x="77.6666" y="252.677" width="323" height="48" rx="8" transform="rotate(-12 77.6666 252.677)" fill="url(#paint5_linear_34_140)"/>
<rect x="91.8993" y="261.92" width="4" height="24" rx="2" transform="rotate(-12 91.8993 261.92)" fill="#ECECEC"/>
<path d="M108.298 268.136C107.874 266.141 109.191 264.488 111.586 263.979C113.731 263.523 115.399 264.42 116.006 266.376L114.792 266.634C114.372 265.316 113.295 264.745 111.799 265.063C110.119 265.42 109.206 266.518 109.492 267.865C109.715 268.913 110.471 269.447 111.785 269.498L113.937 269.562C115.895 269.615 117.085 270.474 117.428 272.087C117.866 274.149 116.549 275.802 114.088 276.325C111.777 276.817 109.956 275.935 109.393 274.021L110.623 273.76C110.955 274.993 112.225 275.574 113.855 275.228C115.601 274.857 116.535 273.772 116.245 272.408C116.019 271.344 115.272 270.773 113.928 270.746L111.81 270.675C109.852 270.622 108.645 269.766 108.298 268.136ZM118.586 270.955C118.063 268.494 119.414 266.347 121.775 265.845C124.137 265.343 126.244 266.755 126.767 269.216C127.287 271.66 125.936 273.807 123.574 274.309C121.213 274.811 119.106 273.399 118.586 270.955ZM119.747 270.691C120.15 272.587 121.626 273.646 123.355 273.278C125.068 272.914 126.003 271.342 125.6 269.447C125.204 267.584 123.707 266.512 121.995 266.876C120.265 267.244 119.351 268.828 119.747 270.691ZM128.041 268.963C127.503 266.435 128.682 264.377 131.027 263.879C132.889 263.483 134.483 264.274 135.152 265.87L134.005 266.113C133.468 265.063 132.373 264.653 131.259 264.89C129.629 265.236 128.747 266.727 129.168 268.706C129.574 270.618 130.911 271.672 132.54 271.326C133.738 271.071 134.561 270.201 134.657 269.103L135.821 268.856C135.789 270.583 134.589 271.968 132.759 272.357C130.481 272.841 128.578 271.49 128.041 268.963ZM136.481 260.634C136.016 260.733 135.552 260.432 135.453 259.966C135.354 259.5 135.652 259.02 136.117 258.921C136.583 258.822 137.067 259.136 137.166 259.602C137.265 260.067 136.947 260.535 136.481 260.634ZM138.097 271.014L136.386 262.966L137.533 262.722L139.244 270.77L138.097 271.014ZM143.991 269.969C142.278 270.334 141.059 269.585 140.758 268.171C140.444 266.691 141.376 265.52 143.224 264.971L145.838 264.189L145.782 263.923C145.446 262.343 144.392 262.046 143.211 262.297C141.815 262.594 141.117 263.402 141.347 264.483L140.3 264.706C139.953 263.076 141.061 261.746 143.04 261.325C144.902 260.929 146.464 261.571 146.916 263.699L148.022 268.904L147.058 269.109L146.608 267.727C146.324 268.848 145.354 269.68 143.991 269.969ZM144.059 268.982C145.755 268.621 146.485 267.232 146.114 265.486L146.022 265.054L143.683 265.742C142.198 266.197 141.724 266.993 141.915 267.891C142.124 268.872 142.961 269.215 144.059 268.982ZM151.522 268.16L150.375 268.404L147.798 256.282L148.945 256.038L151.522 268.16ZM160.004 266.357L158.823 266.608L156.293 254.702L157.473 254.451L164.044 264.021L166.153 252.606L167.351 252.352L169.881 264.258L168.701 264.509L167.499 258.855C167.057 256.776 166.896 255.855 166.789 255.026L164.926 265.311L163.779 265.555L157.904 256.967C158.066 257.402 158.378 258.708 158.763 260.521L160.004 266.357ZM175.941 263.178C173.58 263.68 171.64 262.32 171.102 259.792C170.569 257.281 171.764 255.22 174.059 254.732C176.237 254.269 178.046 255.501 178.53 257.779L178.65 258.344L172.248 259.705C172.748 261.65 174.02 262.561 175.749 262.194C177.063 261.914 177.791 261.169 177.864 260.041L178.961 259.808C178.889 261.596 177.837 262.775 175.941 263.178ZM174.267 255.713C172.754 256.035 171.969 257.244 172.105 258.867L177.326 257.757C176.997 256.21 175.781 255.391 174.267 255.713ZM184.51 261.357C182.165 261.855 180.404 260.353 179.891 257.942C179.375 255.514 180.366 253.391 182.761 252.882C184.091 252.6 185.279 252.955 186.092 253.999L184.901 248.395L186.048 248.151L188.625 260.274L187.627 260.486L187.161 258.864C186.86 260.232 185.857 261.071 184.51 261.357ZM184.487 260.267C186.25 259.892 186.998 258.343 186.602 256.48C186.21 254.635 184.892 253.507 183.13 253.881C181.384 254.253 180.656 255.815 181.048 257.661C181.444 259.523 182.741 260.638 184.487 260.267ZM189.404 249.385C188.938 249.484 188.474 249.183 188.375 248.717C188.276 248.251 188.574 247.771 189.04 247.672C189.505 247.573 189.989 247.887 190.088 248.353C190.187 248.819 189.869 249.286 189.404 249.385ZM191.019 259.765L189.308 251.717L190.456 251.473L192.166 259.521L191.019 259.765ZM196.913 258.721C195.2 259.085 193.981 258.336 193.68 256.922C193.366 255.442 194.299 254.271 196.146 253.722L198.76 252.94L198.704 252.674C198.368 251.094 197.314 250.797 196.134 251.048C194.737 251.345 194.04 252.153 194.269 253.234L193.222 253.457C192.875 251.827 193.983 250.497 195.962 250.076C197.824 249.681 199.386 250.322 199.838 252.45L200.944 257.655L199.98 257.86L199.53 256.478C199.247 257.599 198.276 258.431 196.913 258.721ZM196.981 257.733C198.677 257.372 199.407 255.983 199.036 254.237L198.944 253.805L196.605 254.493C195.12 254.948 194.646 255.744 194.837 256.642C195.046 257.623 195.883 257.966 196.981 257.733ZM211.718 250.794L208.376 251.505L209.305 255.878L208.108 256.132L205.577 244.226L210.117 243.261C212.412 242.774 214.176 243.963 214.654 246.208C215.113 248.369 213.996 250.31 211.718 250.794ZM210.18 244.378L207.004 245.053L208.146 250.424L211.256 249.763C212.985 249.395 213.749 248.086 213.403 246.456C213.053 244.81 211.827 244.028 210.18 244.378ZM216.295 250.186C215.772 247.725 217.123 245.578 219.484 245.077C221.845 244.575 223.953 245.986 224.476 248.447C224.996 250.892 223.644 253.039 221.283 253.54C218.922 254.042 216.814 252.631 216.295 250.186ZM217.455 249.922C217.858 251.818 219.335 252.877 221.064 252.509C222.777 252.145 223.711 250.574 223.309 248.678C222.913 246.816 221.416 245.743 219.703 246.108C217.974 246.475 217.059 248.06 217.455 249.922ZM226.004 249.965L227.102 249.732C227.299 250.663 228.122 251.096 229.252 250.856C230.499 250.591 231.118 249.903 230.934 249.039C230.793 248.373 230.379 248.062 229.382 248.03L227.927 247.974C226.456 247.922 225.619 247.335 225.386 246.238C225.085 244.824 226.075 243.676 227.804 243.308C229.5 242.948 230.796 243.645 231.164 245.131L230.05 245.368C229.819 244.444 229.053 244.033 227.973 244.263C226.842 244.503 226.312 245.12 226.496 245.984C226.627 246.6 227.151 246.94 228.079 246.969L229.533 247.025C231.004 247.077 231.774 247.591 232.021 248.755C232.329 250.202 231.3 251.411 229.47 251.8C227.658 252.185 226.322 251.461 226.004 249.965ZM236.222 250.156L235.092 250.397L233.586 243.313L231.973 243.656L231.768 242.691L233.381 242.349L232.84 239.804L233.971 239.564L234.512 242.108L236.125 241.765L236.33 242.73L234.717 243.073L236.222 250.156Z" fill="#ECECEC"/>
</g>
</g>
<mask id="path-15-inside-1_34_140" fill="white">
<path d="M240.679 259.749C240.127 259.752 239.656 259.968 239.268 260.396C238.88 260.824 238.688 261.34 238.691 261.942L238.703 264.124L238.203 264.126L238.194 262.541C238.191 261.996 238.022 261.534 237.687 261.155C237.351 260.776 236.933 260.588 236.433 260.591C235.954 260.594 235.544 260.783 235.202 261.16C234.86 261.537 234.691 261.987 234.694 262.51L234.735 269.822L234.232 269.314L234.216 266.382C234.213 265.836 234.043 265.374 233.708 264.995C233.373 264.617 232.955 264.429 232.455 264.431C231.976 264.434 231.565 264.624 231.224 265.001C230.882 265.378 230.713 265.828 230.716 266.35L230.737 270.168C230.74 270.702 230.925 271.167 231.292 271.563L236.164 276.581C236.572 277.022 236.779 277.601 236.783 278.316C236.784 278.612 236.885 278.867 237.084 279.082C237.283 279.297 237.518 279.403 237.789 279.402L247.789 279.346C248.06 279.344 248.293 279.235 248.49 279.018C248.687 278.801 248.784 278.545 248.783 278.249L248.78 277.823C248.778 277.357 248.827 276.919 248.929 276.51L250.575 269.068C250.677 268.659 250.726 268.221 250.724 267.755L250.7 263.562C250.697 263.017 250.528 262.554 250.192 262.176C249.857 261.797 249.439 261.609 248.939 261.612C248.46 261.614 248.05 261.804 247.708 262.181C247.366 262.558 247.197 263.008 247.2 263.53L247.203 264.076L246.703 264.079L246.691 261.948C246.689 261.494 246.556 261.082 246.294 260.715C246.031 260.347 245.696 260.118 245.29 260.03C245.144 260.008 245.024 259.997 244.93 259.998C244.451 260 244.041 260.19 243.699 260.567C243.357 260.944 243.188 261.394 243.191 261.917L243.203 264.098L242.703 264.101L242.691 262.022C242.688 261.442 242.516 260.935 242.175 260.499C241.834 260.063 241.403 259.819 240.882 259.765C240.83 259.754 240.762 259.748 240.679 259.749Z"/>
</mask>
<path d="M240.679 259.749C240.127 259.752 239.656 259.968 239.268 260.396C238.88 260.824 238.688 261.34 238.691 261.942L238.703 264.124L238.203 264.126L238.194 262.541C238.191 261.996 238.022 261.534 237.687 261.155C237.351 260.776 236.933 260.588 236.433 260.591C235.954 260.594 235.544 260.783 235.202 261.16C234.86 261.537 234.691 261.987 234.694 262.51L234.735 269.822L234.232 269.314L234.216 266.382C234.213 265.836 234.043 265.374 233.708 264.995C233.373 264.617 232.955 264.429 232.455 264.431C231.976 264.434 231.565 264.624 231.224 265.001C230.882 265.378 230.713 265.828 230.716 266.35L230.737 270.168C230.74 270.702 230.925 271.167 231.292 271.563L236.164 276.581C236.572 277.022 236.779 277.601 236.783 278.316C236.784 278.612 236.885 278.867 237.084 279.082C237.283 279.297 237.518 279.403 237.789 279.402L247.789 279.346C248.06 279.344 248.293 279.235 248.49 279.018C248.687 278.801 248.784 278.545 248.783 278.249L248.78 277.823C248.778 277.357 248.827 276.919 248.929 276.51L250.575 269.068C250.677 268.659 250.726 268.221 250.724 267.755L250.7 263.562C250.697 263.017 250.528 262.554 250.192 262.176C249.857 261.797 249.439 261.609 248.939 261.612C248.46 261.614 248.05 261.804 247.708 262.181C247.366 262.558 247.197 263.008 247.2 263.53L247.203 264.076L246.703 264.079L246.691 261.948C246.689 261.494 246.556 261.082 246.294 260.715C246.031 260.347 245.696 260.118 245.29 260.03C245.144 260.008 245.024 259.997 244.93 259.998C244.451 260 244.041 260.19 243.699 260.567C243.357 260.944 243.188 261.394 243.191 261.917L243.203 264.098L242.703 264.101L242.691 262.022C242.688 261.442 242.516 260.935 242.175 260.499C241.834 260.063 241.403 259.819 240.882 259.765C240.83 259.754 240.762 259.748 240.679 259.749Z" fill="#ECECEC" stroke="#ECECEC" stroke-width="3" mask="url(#path-15-inside-1_34_140)"/>
</g>
</g>
<rect x="62.1666" y="44" width="354" height="284" rx="23.5" stroke="#0221A9" stroke-opacity="0.05" style="mix-blend-mode:multiply"/>
<rect x="62.1666" y="44" width="354" height="284" rx="23.5" stroke="url(#paint6_radial_34_140)" stroke-opacity="0.8" style="mix-blend-mode:soft-light"/>
</g>
<defs>
<filter id="filter0_bd_34_140" x="-179.5" y="-190" width="837.333" height="752" filterUnits="userSpaceOnUse" color-interpolation-filters="sRGB">
<feFlood flood-opacity="0" result="BackgroundImageFix"/>
<feGaussianBlur in="BackgroundImageFix" stdDeviation="100"/>
<feComposite in2="SourceAlpha" operator="in" result="effect1_backgroundBlur_34_140"/>
<feColorMatrix in="SourceAlpha" type="matrix" values="0 0 0 0 0 0 0 0 0 0 0 0 0 0 0 0 0 0 127 0" result="hardAlpha"/>
<feOffset dy="10"/>
<feGaussianBlur stdDeviation="10"/>
<feComposite in2="hardAlpha" operator="out"/>
<feColorMatrix type="matrix" values="0 0 0 0 0 0 0 0 0 0 0 0 0 0 0 0 0 0 0.35 0"/>
<feBlend mode="normal" in2="effect1_backgroundBlur_34_140" result="effect2_dropShadow_34_140"/>
<feBlend mode="normal" in="SourceGraphic" in2="effect2_dropShadow_34_140" result="shape"/>
</filter>
<filter id="filter1_di_34_140" x="73.6666" y="97.5" width="331" height="56" filterUnits="userSpaceOnUse" color-interpolation-filters="sRGB">
<feFlood flood-opacity="0" result="BackgroundImageFix"/>
<feColorMatrix in="SourceAlpha" type="matrix" values="0 0 0 0 0 0 0 0 0 0 0 0 0 0 0 0 0 0 127 0" result="hardAlpha"/>
<feOffset dy="2"/>
<feGaussianBlur stdDeviation="2"/>
<feComposite in2="hardAlpha" operator="out"/>
<feColorMatrix type="matrix" values="0 0 0 0 0 0 0 0 0 0 0 0 0 0 0 0 0 0 0.15 0"/>
<feBlend mode="normal" in2="BackgroundImageFix" result="effect1_dropShadow_34_140"/>
<feBlend mode="normal" in="SourceGraphic" in2="effect1_dropShadow_34_140" result="shape"/>
<feColorMatrix in="SourceAlpha" type="matrix" values="0 0 0 0 0 0 0 0 0 0 0 0 0 0 0 0 0 0 127 0" result="hardAlpha"/>
<feOffset dy="1"/>
<feGaussianBlur stdDeviation="1"/>
<feComposite in2="hardAlpha" operator="arithmetic" k2="-1" k3="1"/>
<feColorMatrix type="matrix" values="0 0 0 0 0 0 0 0 0 0 0 0 0 0 0 0 0 0 0.25 0"/>
<feBlend mode="normal" in2="shape" result="effect2_innerShadow_34_140"/>
</filter>
<filter id="filter2_d_34_140" x="47.6666" y="170.522" width="385.921" height="174.107" filterUnits="userSpaceOnUse" color-interpolation-filters="sRGB">
<feFlood flood-opacity="0" result="BackgroundImageFix"/>
<feColorMatrix in="SourceAlpha" type="matrix" values="0 0 0 0 0 0 0 0 0 0 0 0 0 0 0 0 0 0 127 0" result="hardAlpha"/>
<feOffset dy="15"/>
<feGaussianBlur stdDeviation="15"/>
<feComposite in2="hardAlpha" operator="out"/>
<feColorMatrix type="matrix" values="0 0 0 0 0 0 0 0 0 0 0 0 0 0 0 0 0 0 0.25 0"/>
<feBlend mode="normal" in2="BackgroundImageFix" result="effect1_dropShadow_34_140"/>
<feBlend mode="normal" in="SourceGraphic" in2="effect1_dropShadow_34_140" result="shape"/>
</filter>
<filter id="filter3_i_34_140" x="77.6666" y="185.522" width="325.921" height="116.107" filterUnits="userSpaceOnUse" color-interpolation-filters="sRGB">
<feFlood flood-opacity="0" result="BackgroundImageFix"/>
<feBlend mode="normal" in="SourceGraphic" in2="BackgroundImageFix" result="shape"/>
<feColorMatrix in="SourceAlpha" type="matrix" values="0 0 0 0 0 0 0 0 0 0 0 0 0 0 0 0 0 0 127 0" result="hardAlpha"/>
<feOffset dy="2"/>
<feGaussianBlur stdDeviation="2"/>
<feComposite in2="hardAlpha" operator="arithmetic" k2="-1" k3="1"/>
<feColorMatrix type="matrix" values="0 0 0 0 0 0 0 0 0 0 0 0 0 0 0 0 0 0 0.25 0"/>
<feBlend mode="normal" in2="shape" result="effect1_innerShadow_34_140"/>
</filter>
<radialGradient id="paint0_radial_34_140" cx="0" cy="0" r="1" gradientUnits="userSpaceOnUse" gradientTransform="translate(239.167 283.122) rotate(90) scale(339.659 635.49)">
<stop stop-color="#4860CB"/>
<stop offset="1" stop-color="white" stop-opacity="0"/>
</radialGradient>
<linearGradient id="paint1_linear_34_140" x1="239.167" y1="362" x2="207.754" y2="12.826" gradientUnits="userSpaceOnUse">
<stop stop-color="white" stop-opacity="0.19"/>
<stop offset="1" stop-color="#5581FF"/>
</linearGradient>
<radialGradient id="paint2_radial_34_140" cx="0" cy="0" r="1" gradientUnits="userSpaceOnUse" gradientTransform="translate(276.192 253.596) rotate(90.224) scale(177.365 220.929)">
<stop stop-color="#FFFEFE"/>
<stop offset="1" stop-color="white" stop-opacity="0"/>
</radialGradient>
<linearGradient id="paint3_linear_34_140" x1="83.6666" y1="103.585" x2="396.359" y2="141.306" gradientUnits="userSpaceOnUse">
<stop stop-color="#5581FF"/>
<stop offset="1" stop-color="#8BA9FF"/>
</linearGradient>
<radialGradient id="paint4_radial_34_140" cx="0" cy="0" r="1" gradientUnits="userSpaceOnUse" gradientTransform="translate(272.855 198.147) rotate(91.2356) scale(29.2563 200.969)">
<stop stop-color="#FFFEFE"/>
<stop offset="1" stop-color="white" stop-opacity="0"/>
</radialGradient>
<linearGradient id="paint5_linear_34_140" x1="83.6666" y1="256.762" x2="396.359" y2="294.484" gradientUnits="userSpaceOnUse">
<stop stop-color="#5581FF"/>
<stop offset="1" stop-color="#8BA9FF"/>
</linearGradient>
<radialGradient id="paint6_radial_34_140" cx="0" cy="0" r="1" gradientUnits="userSpaceOnUse" gradientTransform="translate(239.167 264.636) rotate(90) scale(275.008 515.851)">
<stop stop-color="#4860CB"/>
<stop offset="1" stop-color="white" stop-opacity="0"/>
</radialGradient>
<clipPath id="clip0_34_140">
<rect x="61.6666" y="43.5" width="355" height="285" rx="24" fill="white"/>
</clipPath>
<clipPath id="clip1_34_140">
<rect x="77.6666" y="252.677" width="323" height="48" rx="8" transform="rotate(-12 77.6666 252.677)" fill="white"/>
</clipPath>
</defs>
</svg>
