<svg xmlns="http://www.w3.org/2000/svg" version="1.1" xmlns:xlink="http://www.w3.org/1999/xlink" xmlns:svgjs="http://svgjs.dev/svgjs" viewBox="0 0 1422 800" opacity="1"><defs><linearGradient x1="50%" y1="0%" x2="50%" y2="100%" id="oooscillate-grad"><stop stop-color="hsl(105, 20%, 84%)" stop-opacity="1" offset="0%"></stop><stop stop-color="hsl(0, 0%, 83%)" stop-opacity="1" offset="100%"></stop></linearGradient></defs><g stroke-width="2" stroke="url(#oooscillate-grad)" fill="none" stroke-linecap="round"><path d="M 0 1430 Q 355.5 -100 711 400 Q 1066.5 900 1422 1430" stroke-dasharray="18 8" opacity="0.26"></path><path d="M 0 1408 Q 355.5 -100 711 400 Q 1066.5 900 1422 1408" stroke-dasharray="1 13" opacity="0.38"></path><path d="M 0 1386 Q 355.5 -100 711 400 Q 1066.5 900 1422 1386" stroke-dasharray="3 16" opacity="0.28"></path><path d="M 0 1364 Q 355.5 -100 711 400 Q 1066.5 900 1422 1364" stroke-dasharray="12 19" opacity="0.67"></path><path d="M 0 1342 Q 355.5 -100 711 400 Q 1066.5 900 1422 1342" stroke-dasharray="10 13" opacity="0.17"></path><path d="M 0 1320 Q 355.5 -100 711 400 Q 1066.5 900 1422 1320" stroke-dasharray="15 13" opacity="0.57"></path><path d="M 0 1298 Q 355.5 -100 711 400 Q 1066.5 900 1422 1298" stroke-dasharray="1 18" opacity="0.24"></path><path d="M 0 1276 Q 355.5 -100 711 400 Q 1066.5 900 1422 1276" stroke-dasharray="12 6" opacity="0.41"></path><path d="M 0 1254 Q 355.5 -100 711 400 Q 1066.5 900 1422 1254" stroke-dasharray="6 7" opacity="0.87"></path><path d="M 0 1232 Q 355.5 -100 711 400 Q 1066.5 900 1422 1232" stroke-dasharray="13 13" opacity="0.25"></path><path d="M 0 1210 Q 355.5 -100 711 400 Q 1066.5 900 1422 1210" stroke-dasharray="10 13" opacity="0.71"></path><path d="M 0 1188 Q 355.5 -100 711 400 Q 1066.5 900 1422 1188" stroke-dasharray="12 16" opacity="0.92"></path><path d="M 0 1166 Q 355.5 -100 711 400 Q 1066.5 900 1422 1166" stroke-dasharray="8 13" opacity="0.96"></path><path d="M 0 1144 Q 355.5 -100 711 400 Q 1066.5 900 1422 1144" stroke-dasharray="6 8" opacity="0.63"></path><path d="M 0 1122 Q 355.5 -100 711 400 Q 1066.5 900 1422 1122" stroke-dasharray="3 13" opacity="0.13"></path><path d="M 0 1100 Q 355.5 -100 711 400 Q 1066.5 900 1422 1100" stroke-dasharray="18 20" opacity="0.19"></path><path d="M 0 1078 Q 355.5 -100 711 400 Q 1066.5 900 1422 1078" stroke-dasharray="18 5" opacity="0.16"></path><path d="M 0 1056 Q 355.5 -100 711 400 Q 1066.5 900 1422 1056" stroke-dasharray="19 13" opacity="0.46"></path><path d="M 0 1034 Q 355.5 -100 711 400 Q 1066.5 900 1422 1034" stroke-dasharray="18 7" opacity="0.15"></path><path d="M 0 1012 Q 355.5 -100 711 400 Q 1066.5 900 1422 1012" stroke-dasharray="14 9" opacity="0.53"></path><path d="M 0 990 Q 355.5 -100 711 400 Q 1066.5 900 1422 990" stroke-dasharray="11 9" opacity="0.50"></path><path d="M 0 968 Q 355.5 -100 711 400 Q 1066.5 900 1422 968" stroke-dasharray="5 11" opacity="0.79"></path><path d="M 0 946 Q 355.5 -100 711 400 Q 1066.5 900 1422 946" stroke-dasharray="6 16" opacity="0.10"></path><path d="M 0 924 Q 355.5 -100 711 400 Q 1066.5 900 1422 924" stroke-dasharray="13 19" opacity="0.67"></path><path d="M 0 902 Q 355.5 -100 711 400 Q 1066.5 900 1422 902" stroke-dasharray="2 15" opacity="0.19"></path><path d="M 0 880 Q 355.5 -100 711 400 Q 1066.5 900 1422 880" stroke-dasharray="2 8" opacity="0.46"></path><path d="M 0 858 Q 355.5 -100 711 400 Q 1066.5 900 1422 858" stroke-dasharray="13 9" opacity="0.53"></path><path d="M 0 836 Q 355.5 -100 711 400 Q 1066.5 900 1422 836" stroke-dasharray="0 8" opacity="0.34"></path><path d="M 0 814 Q 355.5 -100 711 400 Q 1066.5 900 1422 814" stroke-dasharray="13 12" opacity="0.31"></path><path d="M 0 792 Q 355.5 -100 711 400 Q 1066.5 900 1422 792" stroke-dasharray="3 11" opacity="0.09"></path><path d="M 0 770 Q 355.5 -100 711 400 Q 1066.5 900 1422 770" stroke-dasharray="18 4" opacity="0.51"></path><path d="M 0 748 Q 355.5 -100 711 400 Q 1066.5 900 1422 748" stroke-dasharray="13 5" opacity="0.32"></path><path d="M 0 726 Q 355.5 -100 711 400 Q 1066.5 900 1422 726" stroke-dasharray="0 17" opacity="0.39"></path><path d="M 0 704 Q 355.5 -100 711 400 Q 1066.5 900 1422 704" stroke-dasharray="8 2" opacity="0.16"></path><path d="M 0 682 Q 355.5 -100 711 400 Q 1066.5 900 1422 682" stroke-dasharray="10 12" opacity="0.26"></path><path d="M 0 660 Q 355.5 -100 711 400 Q 1066.5 900 1422 660" stroke-dasharray="2 9" opacity="0.43"></path><path d="M 0 638 Q 355.5 -100 711 400 Q 1066.5 900 1422 638" stroke-dasharray="19 20" opacity="0.55"></path><path d="M 0 616 Q 355.5 -100 711 400 Q 1066.5 900 1422 616" stroke-dasharray="10 2" opacity="0.49"></path><path d="M 0 594 Q 355.5 -100 711 400 Q 1066.5 900 1422 594" stroke-dasharray="14 7" opacity="0.66"></path><path d="M 0 572 Q 355.5 -100 711 400 Q 1066.5 900 1422 572" stroke-dasharray="2 20" opacity="0.29"></path><path d="M 0 550 Q 355.5 -100 711 400 Q 1066.5 900 1422 550" stroke-dasharray="12 4" opacity="0.48"></path><path d="M 0 528 Q 355.5 -100 711 400 Q 1066.5 900 1422 528" stroke-dasharray="11 6" opacity="0.59"></path><path d="M 0 506 Q 355.5 -100 711 400 Q 1066.5 900 1422 506" stroke-dasharray="10 1" opacity="0.43"></path><path d="M 0 484 Q 355.5 -100 711 400 Q 1066.5 900 1422 484" stroke-dasharray="6 10" opacity="0.46"></path><path d="M 0 462 Q 355.5 -100 711 400 Q 1066.5 900 1422 462" stroke-dasharray="2 0" opacity="0.52"></path><path d="M 0 440 Q 355.5 -100 711 400 Q 1066.5 900 1422 440" stroke-dasharray="16 19" opacity="0.16"></path><path d="M 0 418 Q 355.5 -100 711 400 Q 1066.5 900 1422 418" stroke-dasharray="20 16" opacity="0.67"></path><path d="M 0 396 Q 355.5 -100 711 400 Q 1066.5 900 1422 396" stroke-dasharray="11 11" opacity="0.33"></path><path d="M 0 374 Q 355.5 -100 711 400 Q 1066.5 900 1422 374" stroke-dasharray="19 4" opacity="0.67"></path><path d="M 0 352 Q 355.5 -100 711 400 Q 1066.5 900 1422 352" stroke-dasharray="1 16" opacity="0.72"></path><path d="M 0 330 Q 355.5 -100 711 400 Q 1066.5 900 1422 330" stroke-dasharray="8 14" opacity="0.74"></path><path d="M 0 308 Q 355.5 -100 711 400 Q 1066.5 900 1422 308" stroke-dasharray="19 1" opacity="0.57"></path><path d="M 0 286 Q 355.5 -100 711 400 Q 1066.5 900 1422 286" stroke-dasharray="16 17" opacity="0.42"></path><path d="M 0 264 Q 355.5 -100 711 400 Q 1066.5 900 1422 264" stroke-dasharray="3 17" opacity="0.81"></path><path d="M 0 242 Q 355.5 -100 711 400 Q 1066.5 900 1422 242" stroke-dasharray="8 16" opacity="0.66"></path><path d="M 0 220 Q 355.5 -100 711 400 Q 1066.5 900 1422 220" stroke-dasharray="12 8" opacity="0.15"></path><path d="M 0 198 Q 355.5 -100 711 400 Q 1066.5 900 1422 198" stroke-dasharray="8 5" opacity="0.47"></path><path d="M 0 176 Q 355.5 -100 711 400 Q 1066.5 900 1422 176" stroke-dasharray="9 19" opacity="0.82"></path><path d="M 0 154 Q 355.5 -100 711 400 Q 1066.5 900 1422 154" stroke-dasharray="11 14" opacity="0.80"></path><path d="M 0 132 Q 355.5 -100 711 400 Q 1066.5 900 1422 132" stroke-dasharray="9 14" opacity="0.56"></path><path d="M 0 110 Q 355.5 -100 711 400 Q 1066.5 900 1422 110" stroke-dasharray="3 20" opacity="0.69"></path><path d="M 0 88 Q 355.5 -100 711 400 Q 1066.5 900 1422 88" stroke-dasharray="14 19" opacity="0.90"></path><path d="M 0 66 Q 355.5 -100 711 400 Q 1066.5 900 1422 66" stroke-dasharray="13 9" opacity="0.69"></path><path d="M 0 44 Q 355.5 -100 711 400 Q 1066.5 900 1422 44" stroke-dasharray="8 1" opacity="0.85"></path></g></svg>