<svg width="165" height="27" viewBox="0 0 165 27" fill="none" xmlns="http://www.w3.org/2000/svg">
<path d="M7.77858 24.3357C10.9715 24.3357 13.5304 23.4752 15.4553 21.7542C17.4027 20.0105 18.3765 17.395 18.3765 13.9077C18.3765 10.4203 17.2782 7.64633 15.0816 5.58563C12.9077 3.52493 10.2129 2.49458 6.99733 2.49458C4.93663 2.49458 3.14766 2.55119 1.63045 2.66441V24.064C3.10237 24.2452 5.15175 24.3357 7.77858 24.3357ZM6.99733 1C10.7338 1 13.8588 2.16622 16.3724 4.49866C18.886 6.80846 20.1428 9.95613 20.1428 13.9417C20.1428 15.9571 19.8144 17.746 19.1577 19.3085C18.5237 20.8484 17.6405 22.0826 16.5083 23.011C14.1758 24.8905 11.2659 25.8303 7.77858 25.8303C5.49143 25.8303 2.89857 25.7058 0 25.4567V1.23777C2.3098 1.07926 4.64224 1 6.99733 1Z" fill="url(#paint0_linear_11_267)"/>
<path d="M27.2906 25.5246V3.47964H28.8531V25.5246H27.2906Z" fill="url(#paint1_linear_11_267)"/>
<path d="M44.211 20.905L51.5819 3.47964H53.2124L43.7354 25.6605H42.8183L33.3413 3.47964H35.0397L43.3618 23.0789C43.475 22.7393 43.7581 22.0146 44.211 20.905Z" fill="url(#paint2_linear_11_267)"/>
<path d="M57.104 17.8819L53.9451 25.5246H52.3486L61.5878 3.34376H62.5049L71.812 25.5246H70.0797L66.8867 17.8819H57.104ZM61.9614 5.85737C61.6217 6.8764 61.316 7.72559 61.0443 8.40494L57.6475 16.5572H66.3432L62.9804 8.43891C62.4596 7.17078 62.1199 6.31027 61.9614 5.85737Z" fill="url(#paint3_linear_11_267)"/>
<mask id="path-2-outside-1_11_267" maskUnits="userSpaceOnUse" x="75.4733" y="-0.0149231" width="89" height="27" fill="black">
<rect fill="white" x="75.4733" y="-0.0149231" width="89" height="27"/>
<path d="M84.5385 23.2828C87.4371 23.2828 89.7582 22.5015 91.5019 20.939C93.2682 19.3765 94.1514 17.0214 94.1514 13.8737C94.1514 10.7261 93.155 8.22379 91.1622 6.3669C89.1921 4.51 86.7577 3.58155 83.8592 3.58155C81.7985 3.58155 80.2133 3.62684 79.1037 3.71742V23.045C80.4624 23.2035 82.274 23.2828 84.5385 23.2828ZM83.8592 2.18888C87.2559 2.18888 90.0866 3.24188 92.3511 5.34787C94.6382 7.43122 95.7818 10.2732 95.7818 13.8737C95.7818 17.4743 94.7288 20.1804 92.6228 21.992C90.5395 23.8036 87.8447 24.7094 84.5385 24.7094C82.2514 24.7094 79.8963 24.5962 77.4733 24.3697V2.39269C79.2849 2.25682 81.4135 2.18888 83.8592 2.18888Z"/>
<path d="M107.034 3.34378C105.811 3.34378 104.815 3.63817 104.045 4.22694C103.275 4.81571 102.89 5.64226 102.89 6.70657C102.89 7.92941 103.399 9.02769 104.418 10.0014C105.143 10.7034 106.071 11.4507 107.204 12.2433C108.359 13.0132 109.151 13.568 109.581 13.9077C110.012 14.2474 110.532 14.7116 111.144 15.3004C112.254 16.41 112.808 17.6894 112.808 19.1387C112.808 21.0183 112.174 22.4449 110.906 23.4186C109.661 24.3697 107.906 24.8453 105.641 24.8453C103.399 24.8453 101.52 24.2565 100.003 23.079L100.818 21.8901C102.358 22.9318 103.988 23.4526 105.709 23.4526C107.43 23.4526 108.766 23.0903 109.717 22.3656C110.691 21.641 111.178 20.622 111.178 19.3086C111.178 18.1763 110.691 17.1346 109.717 16.1835C109.038 15.5042 108.121 14.7682 106.966 13.9756C105.834 13.1831 105.041 12.6169 104.588 12.2773C104.135 11.9149 103.603 11.4394 102.992 10.8506C101.837 9.69572 101.259 8.35966 101.259 6.84244C101.259 5.32522 101.792 4.13636 102.856 3.27585C103.943 2.41533 105.437 1.98508 107.34 1.98508C109.242 1.98508 110.951 2.35872 112.469 3.10601L111.891 4.36281C110.487 3.68346 108.868 3.34378 107.034 3.34378Z"/>
<path d="M128.276 3.44568C125.762 3.44568 123.645 4.4081 121.924 6.33293C120.225 8.23512 119.376 10.5789 119.376 13.3642C119.376 16.1496 120.338 18.516 122.263 20.4635C124.188 22.3883 126.453 23.3507 129.057 23.3507C131.684 23.3507 133.722 23.045 135.171 22.4336V13.3642H136.733V23.1469C134.967 24.2339 132.465 24.7773 129.227 24.7773C125.988 24.7773 123.26 23.6791 121.04 21.4825C118.821 19.2859 117.712 16.5911 117.712 13.3982C117.712 10.1826 118.708 7.48783 120.701 5.3139C122.716 3.13997 125.309 2.05301 128.479 2.05301C131.038 2.05301 133.541 2.4493 135.986 3.24188L135.579 4.53265C133.223 3.808 130.789 3.44568 128.276 3.44568Z"/>
<path d="M144.148 24.4377V2.25682H144.895L159.365 18.9009C159.886 19.4897 160.362 20.0785 160.792 20.6673C161.245 21.2334 161.483 21.5278 161.505 21.5504C161.46 21.0069 161.437 19.9426 161.437 18.3575V2.39269H163V24.5735H162.253L147.511 7.65767L145.643 5.38184C145.688 5.83474 145.71 6.89906 145.71 8.57479V24.4377H144.148Z"/>
</mask>
<path d="M84.5385 23.2828C87.4371 23.2828 89.7582 22.5015 91.5019 20.939C93.2682 19.3765 94.1514 17.0214 94.1514 13.8737C94.1514 10.7261 93.155 8.22379 91.1622 6.3669C89.1921 4.51 86.7577 3.58155 83.8592 3.58155C81.7985 3.58155 80.2133 3.62684 79.1037 3.71742V23.045C80.4624 23.2035 82.274 23.2828 84.5385 23.2828ZM83.8592 2.18888C87.2559 2.18888 90.0866 3.24188 92.3511 5.34787C94.6382 7.43122 95.7818 10.2732 95.7818 13.8737C95.7818 17.4743 94.7288 20.1804 92.6228 21.992C90.5395 23.8036 87.8447 24.7094 84.5385 24.7094C82.2514 24.7094 79.8963 24.5962 77.4733 24.3697V2.39269C79.2849 2.25682 81.4135 2.18888 83.8592 2.18888Z" fill="white"/>
<path d="M107.034 3.34378C105.811 3.34378 104.815 3.63817 104.045 4.22694C103.275 4.81571 102.89 5.64226 102.89 6.70657C102.89 7.92941 103.399 9.02769 104.418 10.0014C105.143 10.7034 106.071 11.4507 107.204 12.2433C108.359 13.0132 109.151 13.568 109.581 13.9077C110.012 14.2474 110.532 14.7116 111.144 15.3004C112.254 16.41 112.808 17.6894 112.808 19.1387C112.808 21.0183 112.174 22.4449 110.906 23.4186C109.661 24.3697 107.906 24.8453 105.641 24.8453C103.399 24.8453 101.52 24.2565 100.003 23.079L100.818 21.8901C102.358 22.9318 103.988 23.4526 105.709 23.4526C107.43 23.4526 108.766 23.0903 109.717 22.3656C110.691 21.641 111.178 20.622 111.178 19.3086C111.178 18.1763 110.691 17.1346 109.717 16.1835C109.038 15.5042 108.121 14.7682 106.966 13.9756C105.834 13.1831 105.041 12.6169 104.588 12.2773C104.135 11.9149 103.603 11.4394 102.992 10.8506C101.837 9.69572 101.259 8.35966 101.259 6.84244C101.259 5.32522 101.792 4.13636 102.856 3.27585C103.943 2.41533 105.437 1.98508 107.34 1.98508C109.242 1.98508 110.951 2.35872 112.469 3.10601L111.891 4.36281C110.487 3.68346 108.868 3.34378 107.034 3.34378Z" fill="white"/>
<path d="M128.276 3.44568C125.762 3.44568 123.645 4.4081 121.924 6.33293C120.225 8.23512 119.376 10.5789 119.376 13.3642C119.376 16.1496 120.338 18.516 122.263 20.4635C124.188 22.3883 126.453 23.3507 129.057 23.3507C131.684 23.3507 133.722 23.045 135.171 22.4336V13.3642H136.733V23.1469C134.967 24.2339 132.465 24.7773 129.227 24.7773C125.988 24.7773 123.26 23.6791 121.04 21.4825C118.821 19.2859 117.712 16.5911 117.712 13.3982C117.712 10.1826 118.708 7.48783 120.701 5.3139C122.716 3.13997 125.309 2.05301 128.479 2.05301C131.038 2.05301 133.541 2.4493 135.986 3.24188L135.579 4.53265C133.223 3.808 130.789 3.44568 128.276 3.44568Z" fill="white"/>
<path d="M144.148 24.4377V2.25682H144.895L159.365 18.9009C159.886 19.4897 160.362 20.0785 160.792 20.6673C161.245 21.2334 161.483 21.5278 161.505 21.5504C161.46 21.0069 161.437 19.9426 161.437 18.3575V2.39269H163V24.5735H162.253L147.511 7.65767L145.643 5.38184C145.688 5.83474 145.71 6.89906 145.71 8.57479V24.4377H144.148Z" fill="white"/>
<path d="M84.5385 23.2828C87.4371 23.2828 89.7582 22.5015 91.5019 20.939C93.2682 19.3765 94.1514 17.0214 94.1514 13.8737C94.1514 10.7261 93.155 8.22379 91.1622 6.3669C89.1921 4.51 86.7577 3.58155 83.8592 3.58155C81.7985 3.58155 80.2133 3.62684 79.1037 3.71742V23.045C80.4624 23.2035 82.274 23.2828 84.5385 23.2828ZM83.8592 2.18888C87.2559 2.18888 90.0866 3.24188 92.3511 5.34787C94.6382 7.43122 95.7818 10.2732 95.7818 13.8737C95.7818 17.4743 94.7288 20.1804 92.6228 21.992C90.5395 23.8036 87.8447 24.7094 84.5385 24.7094C82.2514 24.7094 79.8963 24.5962 77.4733 24.3697V2.39269C79.2849 2.25682 81.4135 2.18888 83.8592 2.18888Z" stroke="white" stroke-width="2.83064" mask="url(#path-2-outside-1_11_267)"/>
<path d="M107.034 3.34378C105.811 3.34378 104.815 3.63817 104.045 4.22694C103.275 4.81571 102.89 5.64226 102.89 6.70657C102.89 7.92941 103.399 9.02769 104.418 10.0014C105.143 10.7034 106.071 11.4507 107.204 12.2433C108.359 13.0132 109.151 13.568 109.581 13.9077C110.012 14.2474 110.532 14.7116 111.144 15.3004C112.254 16.41 112.808 17.6894 112.808 19.1387C112.808 21.0183 112.174 22.4449 110.906 23.4186C109.661 24.3697 107.906 24.8453 105.641 24.8453C103.399 24.8453 101.52 24.2565 100.003 23.079L100.818 21.8901C102.358 22.9318 103.988 23.4526 105.709 23.4526C107.43 23.4526 108.766 23.0903 109.717 22.3656C110.691 21.641 111.178 20.622 111.178 19.3086C111.178 18.1763 110.691 17.1346 109.717 16.1835C109.038 15.5042 108.121 14.7682 106.966 13.9756C105.834 13.1831 105.041 12.6169 104.588 12.2773C104.135 11.9149 103.603 11.4394 102.992 10.8506C101.837 9.69572 101.259 8.35966 101.259 6.84244C101.259 5.32522 101.792 4.13636 102.856 3.27585C103.943 2.41533 105.437 1.98508 107.34 1.98508C109.242 1.98508 110.951 2.35872 112.469 3.10601L111.891 4.36281C110.487 3.68346 108.868 3.34378 107.034 3.34378Z" stroke="white" stroke-width="2.83064" mask="url(#path-2-outside-1_11_267)"/>
<path d="M128.276 3.44568C125.762 3.44568 123.645 4.4081 121.924 6.33293C120.225 8.23512 119.376 10.5789 119.376 13.3642C119.376 16.1496 120.338 18.516 122.263 20.4635C124.188 22.3883 126.453 23.3507 129.057 23.3507C131.684 23.3507 133.722 23.045 135.171 22.4336V13.3642H136.733V23.1469C134.967 24.2339 132.465 24.7773 129.227 24.7773C125.988 24.7773 123.26 23.6791 121.04 21.4825C118.821 19.2859 117.712 16.5911 117.712 13.3982C117.712 10.1826 118.708 7.48783 120.701 5.3139C122.716 3.13997 125.309 2.05301 128.479 2.05301C131.038 2.05301 133.541 2.4493 135.986 3.24188L135.579 4.53265C133.223 3.808 130.789 3.44568 128.276 3.44568Z" stroke="white" stroke-width="2.83064" mask="url(#path-2-outside-1_11_267)"/>
<path d="M144.148 24.4377V2.25682H144.895L159.365 18.9009C159.886 19.4897 160.362 20.0785 160.792 20.6673C161.245 21.2334 161.483 21.5278 161.505 21.5504C161.46 21.0069 161.437 19.9426 161.437 18.3575V2.39269H163V24.5735H162.253L147.511 7.65767L145.643 5.38184C145.688 5.83474 145.71 6.89906 145.71 8.57479V24.4377H144.148Z" stroke="white" stroke-width="2.83064" mask="url(#path-2-outside-1_11_267)"/>
<defs>
<linearGradient id="paint0_linear_11_267" x1="33.8625" y1="-4.19704" x2="33.8625" y2="32.6012" gradientUnits="userSpaceOnUse">
<stop stop-color="#EBEDE3"/>
<stop offset="0.515625" stop-color="#FF79D3"/>
<stop offset="1" stop-color="#FF536B"/>
</linearGradient>
<linearGradient id="paint1_linear_11_267" x1="33.8625" y1="-4.19704" x2="33.8625" y2="32.6012" gradientUnits="userSpaceOnUse">
<stop stop-color="#EBEDE3"/>
<stop offset="0.515625" stop-color="#FF79D3"/>
<stop offset="1" stop-color="#FF536B"/>
</linearGradient>
<linearGradient id="paint2_linear_11_267" x1="33.8625" y1="-4.19704" x2="33.8625" y2="32.6012" gradientUnits="userSpaceOnUse">
<stop stop-color="#EBEDE3"/>
<stop offset="0.515625" stop-color="#FF79D3"/>
<stop offset="1" stop-color="#FF536B"/>
</linearGradient>
<linearGradient id="paint3_linear_11_267" x1="33.8625" y1="-4.19704" x2="33.8625" y2="32.6012" gradientUnits="userSpaceOnUse">
<stop stop-color="#EBEDE3"/>
<stop offset="0.515625" stop-color="#FF79D3"/>
<stop offset="1" stop-color="#FF536B"/>
</linearGradient>
</defs>
</svg>
