<svg width="1440" height="1264" viewBox="0 0 1440 1264" fill="none" xmlns="http://www.w3.org/2000/svg">
<g clip-path="url(#clip0_326_1061)">
<circle cx="176.5" cy="293.5" r="1.5" fill="#B1B1B1"/>
<circle cx="175.5" cy="252.5" r="0.5" fill="#B1B1B1"/>
<circle cx="195.5" cy="262.5" r="0.5" fill="#B1B1B1"/>
<circle cx="195.5" cy="222.5" r="0.5" fill="#B1B1B1"/>
<circle cx="156.5" cy="173.5" r="1.5" fill="#B1B1B1"/>
<circle cx="155.5" cy="132.5" r="0.5" fill="#B1B1B1"/>
<circle cx="175.5" cy="142.5" r="0.5" fill="#B1B1B1"/>
<circle cx="175.5" cy="102.5" r="0.5" fill="#B1B1B1"/>
<circle cx="275.5" cy="222.5" r="0.5" fill="#B1B1B1"/>
<circle cx="275.5" cy="182.5" r="0.5" fill="#B1B1B1"/>
<circle cx="295.5" cy="192.5" r="0.5" fill="#B1B1B1"/>
<circle cx="295.5" cy="152.5" r="0.5" fill="#B1B1B1"/>
<circle cx="5.5" cy="452.5" r="0.5" fill="#B1B1B1"/>
<circle cx="5.5" cy="412.5" r="0.5" fill="#B1B1B1"/>
<circle cx="25.5" cy="422.5" r="0.5" fill="#B1B1B1"/>
<circle cx="25.5" cy="382.5" r="0.5" fill="#B1B1B1"/>
<circle cx="5.5" cy="302.5" r="0.5" fill="#B1B1B1"/>
<circle cx="5.5" cy="262.5" r="0.5" fill="#B1B1B1"/>
<circle cx="105.5" cy="382.5" r="0.5" fill="#B1B1B1"/>
<circle cx="105.5" cy="342.5" r="0.5" fill="#B1B1B1"/>
<circle cx="125.5" cy="352.5" r="0.5" fill="#B1B1B1"/>
<circle cx="125.5" cy="312.5" r="0.5" fill="#B1B1B1"/>
<circle cx="255.5" cy="102.5" r="0.5" fill="#B1B1B1"/>
<circle cx="256" cy="63" r="1" fill="#B1B1B1"/>
<circle cx="275.5" cy="72.5" r="0.5" fill="#B1B1B1"/>
<circle cx="275.5" cy="32.5" r="0.5" fill="#B1B1B1"/>
<circle cx="365.5" cy="322.5" r="0.5" fill="#B1B1B1"/>
<circle cx="365.5" cy="282.5" r="0.5" fill="#B1B1B1"/>
<circle cx="385.5" cy="292.5" r="0.5" fill="#B1B1B1"/>
<circle cx="385.5" cy="252.5" r="0.5" fill="#B1B1B1"/>
<circle cx="345.5" cy="202.5" r="0.5" fill="#B1B1B1"/>
<circle cx="345.5" cy="162.5" r="0.5" fill="#B1B1B1"/>
<circle cx="366.5" cy="173.5" r="1.5" fill="#B1B1B1"/>
<circle cx="365.5" cy="132.5" r="0.5" fill="#B1B1B1"/>
<circle cx="465.5" cy="252.5" r="0.5" fill="#B1B1B1"/>
<circle cx="466" cy="213" r="1" fill="#B1B1B1"/>
<circle cx="485.5" cy="222.5" r="0.5" fill="#B1B1B1"/>
<circle cx="485.5" cy="182.5" r="0.5" fill="#B1B1B1"/>
<circle cx="445.5" cy="132.5" r="0.5" fill="#B1B1B1"/>
<circle cx="445.5" cy="92.5" r="0.5" fill="#B1B1B1"/>
<circle cx="465.5" cy="102.5" r="0.5" fill="#B1B1B1"/>
<circle cx="465.5" cy="62.5" r="0.5" fill="#B1B1B1"/>
<circle cx="545.5" cy="282.5" r="0.5" fill="#B1B1B1"/>
<circle cx="545.5" cy="242.5" r="0.5" fill="#B1B1B1"/>
<circle cx="565.5" cy="252.5" r="0.5" fill="#B1B1B1"/>
<circle cx="565.5" cy="212.5" r="0.5" fill="#B1B1B1"/>
<circle cx="525.5" cy="162.5" r="0.5" fill="#B1B1B1"/>
<circle cx="525.5" cy="122.5" r="0.5" fill="#B1B1B1"/>
<circle cx="545.5" cy="132.5" r="0.5" fill="#B1B1B1"/>
<circle cx="545.5" cy="92.5" r="0.5" fill="#B1B1B1"/>
<circle cx="645.5" cy="212.5" r="0.5" fill="#B1B1B1"/>
<circle cx="645.5" cy="172.5" r="0.5" fill="#B1B1B1"/>
<circle cx="665.5" cy="182.5" r="0.5" fill="#B1B1B1"/>
<circle cx="666" cy="143" r="1" fill="#B1B1B1"/>
<circle cx="625.5" cy="92.5" r="0.5" fill="#B1B1B1"/>
<circle cx="625.5" cy="52.5" r="0.5" fill="#B1B1B1"/>
<circle cx="645.5" cy="62.5" r="0.5" fill="#B1B1B1"/>
<circle cx="645.5" cy="22.5" r="0.5" fill="#B1B1B1"/>
<circle cx="735.5" cy="312.5" r="0.5" fill="#B1B1B1"/>
<circle cx="736.5" cy="273.5" r="1.5" fill="#B1B1B1"/>
<circle cx="755.5" cy="282.5" r="0.5" fill="#B1B1B1"/>
<circle cx="755.5" cy="242.5" r="0.5" fill="#B1B1B1"/>
<circle cx="715.5" cy="192.5" r="0.5" fill="#B1B1B1"/>
<circle cx="715.5" cy="152.5" r="0.5" fill="#B1B1B1"/>
<circle cx="735.5" cy="162.5" r="0.5" fill="#B1B1B1"/>
<circle cx="735.5" cy="122.5" r="0.5" fill="#B1B1B1"/>
<circle cx="835.5" cy="242.5" r="0.5" fill="#B1B1B1"/>
<circle cx="835.5" cy="202.5" r="0.5" fill="#B1B1B1"/>
<circle cx="855.5" cy="212.5" r="0.5" fill="#B1B1B1"/>
<circle cx="855.5" cy="172.5" r="0.5" fill="#B1B1B1"/>
<circle cx="815.5" cy="122.5" r="0.5" fill="#B1B1B1"/>
<circle cx="816" cy="83" r="1" fill="#B1B1B1"/>
<circle cx="835.5" cy="92.5" r="0.5" fill="#B1B1B1"/>
<circle cx="835.5" cy="52.5" r="0.5" fill="#B1B1B1"/>
<circle cx="755.5" cy="402.5" r="0.5" fill="#B1B1B1"/>
<circle cx="755.5" cy="362.5" r="0.5" fill="#B1B1B1"/>
<circle cx="775.5" cy="372.5" r="0.5" fill="#B1B1B1"/>
<circle cx="775.5" cy="332.5" r="0.5" fill="#B1B1B1"/>
<circle cx="735.5" cy="282.5" r="0.5" fill="#B1B1B1"/>
<circle cx="735.5" cy="242.5" r="0.5" fill="#B1B1B1"/>
<circle cx="755.5" cy="252.5" r="0.5" fill="#B1B1B1"/>
<circle cx="755.5" cy="212.5" r="0.5" fill="#B1B1B1"/>
<circle cx="855.5" cy="332.5" r="0.5" fill="#B1B1B1"/>
<circle cx="855.5" cy="292.5" r="0.5" fill="#B1B1B1"/>
<circle cx="875.5" cy="302.5" r="0.5" fill="#B1B1B1"/>
<circle cx="876.5" cy="263.5" r="1.5" fill="#B1B1B1"/>
<circle cx="835.5" cy="212.5" r="0.5" fill="#B1B1B1"/>
<circle cx="835.5" cy="172.5" r="0.5" fill="#B1B1B1"/>
<circle cx="855.5" cy="182.5" r="0.5" fill="#B1B1B1"/>
<circle cx="855.5" cy="142.5" r="0.5" fill="#B1B1B1"/>
<circle cx="945.5" cy="432.5" r="0.5" fill="#B1B1B1"/>
<circle cx="946" cy="393" r="1" fill="#B1B1B1"/>
<circle cx="965.5" cy="402.5" r="0.5" fill="#B1B1B1"/>
<circle cx="965.5" cy="362.5" r="0.5" fill="#B1B1B1"/>
<circle cx="925.5" cy="312.5" r="0.5" fill="#B1B1B1"/>
<circle cx="925.5" cy="272.5" r="0.5" fill="#B1B1B1"/>
<circle cx="945.5" cy="282.5" r="0.5" fill="#B1B1B1"/>
<circle cx="945.5" cy="242.5" r="0.5" fill="#B1B1B1"/>
<circle cx="1045.5" cy="362.5" r="0.5" fill="#B1B1B1"/>
<circle cx="1045.5" cy="322.5" r="0.5" fill="#B1B1B1"/>
<circle cx="1065.5" cy="332.5" r="0.5" fill="#B1B1B1"/>
<circle cx="1065.5" cy="292.5" r="0.5" fill="#B1B1B1"/>
<circle cx="1026" cy="243" r="1" fill="#B1B1B1"/>
<circle cx="1025.5" cy="202.5" r="0.5" fill="#B1B1B1"/>
<circle cx="1045.5" cy="212.5" r="0.5" fill="#B1B1B1"/>
<circle cx="1045.5" cy="172.5" r="0.5" fill="#B1B1B1"/>
<circle cx="1125.5" cy="392.5" r="0.5" fill="#B1B1B1"/>
<circle cx="1125.5" cy="352.5" r="0.5" fill="#B1B1B1"/>
<circle cx="1145.5" cy="362.5" r="0.5" fill="#B1B1B1"/>
<circle cx="1145.5" cy="322.5" r="0.5" fill="#B1B1B1"/>
<circle cx="1105.5" cy="272.5" r="0.5" fill="#B1B1B1"/>
<circle cx="1105.5" cy="232.5" r="0.5" fill="#B1B1B1"/>
<circle cx="1125.5" cy="242.5" r="0.5" fill="#B1B1B1"/>
<circle cx="1125.5" cy="202.5" r="0.5" fill="#B1B1B1"/>
<circle cx="1225.5" cy="322.5" r="0.5" fill="#B1B1B1"/>
<circle cx="1225.5" cy="282.5" r="0.5" fill="#B1B1B1"/>
<circle cx="1245.5" cy="292.5" r="0.5" fill="#B1B1B1"/>
<circle cx="1245.5" cy="252.5" r="0.5" fill="#B1B1B1"/>
<circle cx="1205.5" cy="202.5" r="0.5" fill="#B1B1B1"/>
<circle cx="1205.5" cy="162.5" r="0.5" fill="#B1B1B1"/>
<circle cx="1225.5" cy="172.5" r="0.5" fill="#B1B1B1"/>
<circle cx="1226" cy="133" r="1" fill="#B1B1B1"/>
<circle cx="1315.5" cy="422.5" r="0.5" fill="#B1B1B1"/>
<circle cx="1315.5" cy="382.5" r="0.5" fill="#B1B1B1"/>
<circle cx="1335.5" cy="392.5" r="0.5" fill="#B1B1B1"/>
<circle cx="1335.5" cy="352.5" r="0.5" fill="#B1B1B1"/>
<circle cx="1295.5" cy="302.5" r="0.5" fill="#B1B1B1"/>
<circle cx="1295.5" cy="262.5" r="0.5" fill="#B1B1B1"/>
<circle cx="1316.5" cy="273.5" r="1.5" fill="#B1B1B1"/>
<circle cx="1315.5" cy="232.5" r="0.5" fill="#B1B1B1"/>
<circle cx="1415.5" cy="352.5" r="0.5" fill="#B1B1B1"/>
<circle cx="1415.5" cy="312.5" r="0.5" fill="#B1B1B1"/>
<circle cx="1435.5" cy="322.5" r="0.5" fill="#B1B1B1"/>
<circle cx="1435.5" cy="282.5" r="0.5" fill="#B1B1B1"/>
<circle cx="1395.5" cy="232.5" r="0.5" fill="#B1B1B1"/>
<circle cx="1395.5" cy="192.5" r="0.5" fill="#B1B1B1"/>
<circle cx="1415.5" cy="202.5" r="0.5" fill="#B1B1B1"/>
<circle cx="1415.5" cy="162.5" r="0.5" fill="#B1B1B1"/>
<circle cx="36" cy="253" r="1" fill="#B1B1B1"/>
<circle cx="35.5" cy="212.5" r="0.5" fill="#B1B1B1"/>
<circle cx="55.5" cy="222.5" r="0.5" fill="#B1B1B1"/>
<circle cx="55.5" cy="182.5" r="0.5" fill="#B1B1B1"/>
<circle cx="15.5" cy="132.5" r="0.5" fill="#B1B1B1"/>
<circle cx="15.5" cy="92.5" r="0.5" fill="#B1B1B1"/>
<circle cx="35.5" cy="102.5" r="0.5" fill="#B1B1B1"/>
<circle cx="35.5" cy="62.5" r="0.5" fill="#B1B1B1"/>
<circle cx="135.5" cy="182.5" r="0.5" fill="#B1B1B1"/>
<circle cx="135.5" cy="142.5" r="0.5" fill="#B1B1B1"/>
<circle cx="155.5" cy="152.5" r="0.5" fill="#B1B1B1"/>
<circle cx="155.5" cy="112.5" r="0.5" fill="#B1B1B1"/>
<circle cx="115.5" cy="62.5" r="0.5" fill="#B1B1B1"/>
<circle cx="115.5" cy="22.5" r="0.5" fill="#B1B1B1"/>
<circle cx="135.5" cy="32.5" r="0.5" fill="#B1B1B1"/>
<circle cx="225.5" cy="282.5" r="0.5" fill="#B1B1B1"/>
<circle cx="225.5" cy="242.5" r="0.5" fill="#B1B1B1"/>
<circle cx="246.5" cy="253.5" r="1.5" fill="#B1B1B1"/>
<circle cx="245.5" cy="212.5" r="0.5" fill="#B1B1B1"/>
<circle cx="205.5" cy="162.5" r="0.5" fill="#B1B1B1"/>
<circle cx="206.5" cy="123.5" r="1.5" fill="#B1B1B1"/>
<circle cx="225.5" cy="132.5" r="0.5" fill="#B1B1B1"/>
<circle cx="225.5" cy="92.5" r="0.5" fill="#B1B1B1"/>
<circle cx="325.5" cy="212.5" r="0.5" fill="#B1B1B1"/>
<circle cx="326" cy="173" r="1" fill="#B1B1B1"/>
<circle cx="345.5" cy="182.5" r="0.5" fill="#B1B1B1"/>
<circle cx="345.5" cy="142.5" r="0.5" fill="#B1B1B1"/>
<circle cx="305.5" cy="92.5" r="0.5" fill="#B1B1B1"/>
<circle cx="305.5" cy="52.5" r="0.5" fill="#B1B1B1"/>
<circle cx="325.5" cy="62.5" r="0.5" fill="#B1B1B1"/>
<circle cx="325.5" cy="22.5" r="0.5" fill="#B1B1B1"/>
<circle cx="405.5" cy="242.5" r="0.5" fill="#B1B1B1"/>
<circle cx="405.5" cy="202.5" r="0.5" fill="#B1B1B1"/>
<circle cx="425.5" cy="212.5" r="0.5" fill="#B1B1B1"/>
<circle cx="425.5" cy="172.5" r="0.5" fill="#B1B1B1"/>
<circle cx="385.5" cy="122.5" r="0.5" fill="#B1B1B1"/>
<circle cx="385.5" cy="82.5" r="0.5" fill="#B1B1B1"/>
<circle cx="405.5" cy="92.5" r="0.5" fill="#B1B1B1"/>
<circle cx="405.5" cy="52.5" r="0.5" fill="#B1B1B1"/>
<circle cx="505.5" cy="172.5" r="0.5" fill="#B1B1B1"/>
<circle cx="505.5" cy="132.5" r="0.5" fill="#B1B1B1"/>
<circle cx="525.5" cy="142.5" r="0.5" fill="#B1B1B1"/>
<circle cx="525.5" cy="102.5" r="0.5" fill="#B1B1B1"/>
<circle cx="485.5" cy="52.5" r="0.5" fill="#B1B1B1"/>
<circle cx="505.5" cy="22.5" r="0.5" fill="#B1B1B1"/>
<circle cx="595.5" cy="272.5" r="0.5" fill="#B1B1B1"/>
<circle cx="595.5" cy="232.5" r="0.5" fill="#B1B1B1"/>
<circle cx="615.5" cy="242.5" r="0.5" fill="#B1B1B1"/>
<circle cx="615.5" cy="202.5" r="0.5" fill="#B1B1B1"/>
<circle cx="575.5" cy="152.5" r="0.5" fill="#B1B1B1"/>
<circle cx="575.5" cy="112.5" r="0.5" fill="#B1B1B1"/>
<circle cx="595.5" cy="122.5" r="0.5" fill="#B1B1B1"/>
<circle cx="595.5" cy="82.5" r="0.5" fill="#B1B1B1"/>
<circle cx="695.5" cy="202.5" r="0.5" fill="#B1B1B1"/>
<circle cx="695.5" cy="162.5" r="0.5" fill="#B1B1B1"/>
<circle cx="715.5" cy="172.5" r="0.5" fill="#B1B1B1"/>
<circle cx="715.5" cy="132.5" r="0.5" fill="#B1B1B1"/>
<circle cx="675.5" cy="82.5" r="0.5" fill="#B1B1B1"/>
<circle cx="675.5" cy="42.5" r="0.5" fill="#B1B1B1"/>
<circle cx="695.5" cy="52.5" r="0.5" fill="#B1B1B1"/>
<circle cx="616.5" cy="363.5" r="1.5" fill="#B1B1B1"/>
<circle cx="615.5" cy="322.5" r="0.5" fill="#B1B1B1"/>
<circle cx="635.5" cy="332.5" r="0.5" fill="#B1B1B1"/>
<circle cx="635.5" cy="292.5" r="0.5" fill="#B1B1B1"/>
<circle cx="595.5" cy="242.5" r="0.5" fill="#B1B1B1"/>
<circle cx="595.5" cy="202.5" r="0.5" fill="#B1B1B1"/>
<circle cx="615.5" cy="212.5" r="0.5" fill="#B1B1B1"/>
<circle cx="615.5" cy="172.5" r="0.5" fill="#B1B1B1"/>
<circle cx="715.5" cy="292.5" r="0.5" fill="#B1B1B1"/>
<circle cx="715.5" cy="252.5" r="0.5" fill="#B1B1B1"/>
<circle cx="735.5" cy="262.5" r="0.5" fill="#B1B1B1"/>
<circle cx="735.5" cy="222.5" r="0.5" fill="#B1B1B1"/>
<circle cx="695.5" cy="172.5" r="0.5" fill="#B1B1B1"/>
<circle cx="696.5" cy="133.5" r="1.5" fill="#B1B1B1"/>
<circle cx="715.5" cy="142.5" r="0.5" fill="#B1B1B1"/>
<circle cx="715.5" cy="102.5" r="0.5" fill="#B1B1B1"/>
<circle cx="805.5" cy="392.5" r="0.5" fill="#B1B1B1"/>
<circle cx="805.5" cy="352.5" r="0.5" fill="#B1B1B1"/>
<circle cx="825.5" cy="362.5" r="0.5" fill="#B1B1B1"/>
<circle cx="825.5" cy="322.5" r="0.5" fill="#B1B1B1"/>
<circle cx="785.5" cy="272.5" r="0.5" fill="#B1B1B1"/>
<circle cx="785.5" cy="232.5" r="0.5" fill="#B1B1B1"/>
<circle cx="805.5" cy="242.5" r="0.5" fill="#B1B1B1"/>
<circle cx="805.5" cy="202.5" r="0.5" fill="#B1B1B1"/>
<circle cx="906.5" cy="323.5" r="1.5" fill="#B1B1B1"/>
<circle cx="905.5" cy="282.5" r="0.5" fill="#B1B1B1"/>
<circle cx="925.5" cy="292.5" r="0.5" fill="#B1B1B1"/>
<circle cx="925.5" cy="252.5" r="0.5" fill="#B1B1B1"/>
<circle cx="885.5" cy="202.5" r="0.5" fill="#B1B1B1"/>
<circle cx="885.5" cy="162.5" r="0.5" fill="#B1B1B1"/>
<circle cx="905.5" cy="172.5" r="0.5" fill="#B1B1B1"/>
<circle cx="905.5" cy="132.5" r="0.5" fill="#B1B1B1"/>
<circle cx="985.5" cy="352.5" r="0.5" fill="#B1B1B1"/>
<circle cx="985.5" cy="312.5" r="0.5" fill="#B1B1B1"/>
<circle cx="1005.5" cy="322.5" r="0.5" fill="#B1B1B1"/>
<circle cx="1005.5" cy="282.5" r="0.5" fill="#B1B1B1"/>
<circle cx="965.5" cy="232.5" r="0.5" fill="#B1B1B1"/>
<circle cx="966.5" cy="193.5" r="1.5" fill="#B1B1B1"/>
<circle cx="985.5" cy="202.5" r="0.5" fill="#B1B1B1"/>
<circle cx="985.5" cy="162.5" r="0.5" fill="#B1B1B1"/>
<circle cx="1085.5" cy="282.5" r="0.5" fill="#B1B1B1"/>
<circle cx="1085.5" cy="242.5" r="0.5" fill="#B1B1B1"/>
<circle cx="1105.5" cy="252.5" r="0.5" fill="#B1B1B1"/>
<circle cx="1105.5" cy="212.5" r="0.5" fill="#B1B1B1"/>
<circle cx="1065.5" cy="162.5" r="0.5" fill="#B1B1B1"/>
<circle cx="1065.5" cy="122.5" r="0.5" fill="#B1B1B1"/>
<circle cx="1085.5" cy="132.5" r="0.5" fill="#B1B1B1"/>
<circle cx="1085.5" cy="92.5" r="0.5" fill="#B1B1B1"/>
<circle cx="1175.5" cy="382.5" r="0.5" fill="#B1B1B1"/>
<circle cx="1175.5" cy="342.5" r="0.5" fill="#B1B1B1"/>
<circle cx="1195.5" cy="352.5" r="0.5" fill="#B1B1B1"/>
<circle cx="1195.5" cy="312.5" r="0.5" fill="#B1B1B1"/>
<circle cx="1155.5" cy="262.5" r="0.5" fill="#B1B1B1"/>
<circle cx="1155.5" cy="222.5" r="0.5" fill="#B1B1B1"/>
<circle cx="1176.5" cy="233.5" r="1.5" fill="#B1B1B1"/>
<circle cx="1175.5" cy="192.5" r="0.5" fill="#B1B1B1"/>
<circle cx="1275.5" cy="312.5" r="0.5" fill="#B1B1B1"/>
<circle cx="1275.5" cy="272.5" r="0.5" fill="#B1B1B1"/>
<circle cx="1295.5" cy="282.5" r="0.5" fill="#B1B1B1"/>
<circle cx="1295.5" cy="242.5" r="0.5" fill="#B1B1B1"/>
<circle cx="1255.5" cy="192.5" r="0.5" fill="#B1B1B1"/>
<circle cx="1255.5" cy="152.5" r="0.5" fill="#B1B1B1"/>
<circle cx="1275.5" cy="162.5" r="0.5" fill="#B1B1B1"/>
<circle cx="1275.5" cy="122.5" r="0.5" fill="#B1B1B1"/>
<circle cx="1275.5" cy="472.5" r="0.5" fill="#B1B1B1"/>
<circle cx="1275.5" cy="432.5" r="0.5" fill="#B1B1B1"/>
<circle cx="1375.5" cy="552.5" r="0.5" fill="#B1B1B1"/>
<circle cx="1375.5" cy="512.5" r="0.5" fill="#B1B1B1"/>
<circle cx="1396.5" cy="523.5" r="1.5" fill="#B1B1B1"/>
<circle cx="1395.5" cy="482.5" r="0.5" fill="#B1B1B1"/>
<circle cx="1355.5" cy="432.5" r="0.5" fill="#B1B1B1"/>
<circle cx="1355.5" cy="392.5" r="0.5" fill="#B1B1B1"/>
<circle cx="1375.5" cy="402.5" r="0.5" fill="#B1B1B1"/>
<circle cx="1375.5" cy="362.5" r="0.5" fill="#B1B1B1"/>
</g>
<g style="mix-blend-mode:color-dodge" filter="url(#filter0_f_326_1061)">
<ellipse cx="721.5" cy="1194" rx="896.5" ry="929" fill="url(#paint0_linear_326_1061)"/>
</g>
<g style="mix-blend-mode:color-dodge" filter="url(#filter1_f_326_1061)">
<circle cx="720" cy="495" r="158" fill="white"/>
</g>
<g style="mix-blend-mode:color-dodge" filter="url(#filter2_f_326_1061)">
<ellipse cx="696.5" cy="1101" rx="876.5" ry="929" fill="url(#paint1_linear_326_1061)"/>
</g>
<path d="M1618 1124C1618 1637.07 1202.07 2053 689 2053C175.927 2053 -240 1637.07 -240 1124C-240 610.927 175.927 195 689 195C1202.07 195 1618 610.927 1618 1124Z" fill="#12131E"/>
<defs>
<filter id="filter0_f_326_1061" x="-440" y="0" width="2323" height="2388" filterUnits="userSpaceOnUse" color-interpolation-filters="sRGB">
<feFlood flood-opacity="0" result="BackgroundImageFix"/>
<feBlend mode="normal" in="SourceGraphic" in2="BackgroundImageFix" result="shape"/>
<feGaussianBlur stdDeviation="132.5" result="effect1_foregroundBlur_326_1061"/>
</filter>
<filter id="filter1_f_326_1061" x="306" y="81" width="828" height="828" filterUnits="userSpaceOnUse" color-interpolation-filters="sRGB">
<feFlood flood-opacity="0" result="BackgroundImageFix"/>
<feBlend mode="normal" in="SourceGraphic" in2="BackgroundImageFix" result="shape"/>
<feGaussianBlur stdDeviation="128" result="effect1_foregroundBlur_326_1061"/>
</filter>
<filter id="filter2_f_326_1061" x="-220" y="132" width="1833" height="1938" filterUnits="userSpaceOnUse" color-interpolation-filters="sRGB">
<feFlood flood-opacity="0" result="BackgroundImageFix"/>
<feBlend mode="normal" in="SourceGraphic" in2="BackgroundImageFix" result="shape"/>
<feGaussianBlur stdDeviation="20" result="effect1_foregroundBlur_326_1061"/>
</filter>
<linearGradient id="paint0_linear_326_1061" x1="721.5" y1="265" x2="721.5" y2="2123" gradientUnits="userSpaceOnUse">
<stop stop-color="#02B7DF"/>
<stop offset="1" stop-color="#02B7DF" stop-opacity="0"/>
</linearGradient>
<linearGradient id="paint1_linear_326_1061" x1="696.5" y1="172" x2="696.5" y2="2030" gradientUnits="userSpaceOnUse">
<stop stop-color="#02D2DF"/>
<stop offset="1" stop-color="#BCF4F8" stop-opacity="0"/>
</linearGradient>
<clipPath id="clip0_326_1061">
<rect width="1459" height="1147" fill="white" transform="translate(-19 16)"/>
</clipPath>
</defs>
</svg>
