<svg width="145" height="144" viewBox="0 0 145 144" fill="none" xmlns="http://www.w3.org/2000/svg">
<path d="M127.631 97.8679C127.6 97.8132 127.557 97.7686 127.522 97.7167L127.525 97.7153L88.7817 30.6127L88.7601 30.6243C88.4402 30.114 87.974 29.7121 87.4223 29.4708L87.477 29.4391L75.9772 22.7979L88.7514 44.9235L117.808 95.25L117.805 95.2515C117.839 95.3033 117.883 95.3479 117.914 95.4026C118.313 96.094 118.421 96.9154 118.214 97.6862C118.008 98.4571 117.504 99.1145 116.813 99.5139L116.833 99.5499L73.833 124.375L75.6949 127.6C75.7324 127.679 75.7583 127.761 75.8029 127.839C76.1912 128.508 76.8232 129.002 77.567 129.217C78.3108 129.432 79.1089 129.352 79.7946 128.992L79.8018 129.004L126.551 102.014L126.531 101.978C127.222 101.578 127.726 100.921 127.932 100.151C128.138 99.3799 128.03 98.5589 127.631 97.8679Z" fill="#ACACAC" fill-opacity="0.2" style="mix-blend-mode:luminosity"/>
<path d="M127.631 97.8679C127.6 97.8132 127.557 97.7686 127.522 97.7167L127.525 97.7153L88.7817 30.6127L88.7601 30.6243C88.4402 30.114 87.974 29.7121 87.4223 29.4708L87.477 29.4391L75.9772 22.7979L88.7514 44.9235L117.808 95.25L117.805 95.2515C117.839 95.3033 117.883 95.3479 117.914 95.4026C118.313 96.094 118.421 96.9154 118.214 97.6862C118.008 98.4571 117.504 99.1145 116.813 99.5139L116.833 99.5499L73.833 124.375L75.6949 127.6C75.7324 127.679 75.7583 127.761 75.8029 127.839C76.1912 128.508 76.8232 129.002 77.567 129.217C78.3108 129.432 79.1089 129.352 79.7946 128.992L79.8018 129.004L126.551 102.014L126.531 101.978C127.222 101.578 127.726 100.921 127.932 100.151C128.138 99.3799 128.03 98.5589 127.631 97.8679Z" fill="#D5D5D5" fill-opacity="0.3" style="mix-blend-mode:multiply"/>
<path d="M127.631 97.8679C127.6 97.8132 127.557 97.7686 127.522 97.7167L127.525 97.7153L88.7817 30.6127L88.7601 30.6243C88.4402 30.114 87.974 29.7121 87.4223 29.4708L87.477 29.4391L75.9772 22.7979L88.7514 44.9235L117.808 95.25L117.805 95.2515C117.839 95.3033 117.883 95.3479 117.914 95.4026C118.313 96.094 118.421 96.9154 118.214 97.6862C118.008 98.4571 117.504 99.1145 116.813 99.5139L116.833 99.5499L73.833 124.375L75.6949 127.6C75.7324 127.679 75.7583 127.761 75.8029 127.839C76.1912 128.508 76.8232 129.002 77.567 129.217C78.3108 129.432 79.1089 129.352 79.7946 128.992L79.8018 129.004L126.551 102.014L126.531 101.978C127.222 101.578 127.726 100.921 127.932 100.151C128.138 99.3799 128.03 98.5589 127.631 97.8679Z" fill="url(#paint0_radial_335_625)" fill-opacity="0.25" style="mix-blend-mode:overlay"/>
<path d="M127.198 98.1175C127.199 98.1189 127.199 98.1198 127.2 98.1202C127.531 98.6959 127.621 99.3795 127.449 100.021C127.277 100.664 126.857 101.212 126.281 101.545L125.854 101.792L125.874 101.827L79.8488 128.399L79.5624 128.549C78.9909 128.849 78.3258 128.916 77.7058 128.737C77.0864 128.558 76.5599 128.147 76.2362 127.589C76.2302 127.579 76.2223 127.562 76.2077 127.527C76.2056 127.522 76.203 127.516 76.2 127.508C76.1872 127.477 76.1675 127.429 76.147 127.386L76.1382 127.367L76.1279 127.35L74.5161 124.558L117.083 99.9829L117.51 99.7361L117.473 99.6695C118.067 99.2031 118.499 98.5541 118.697 97.8157C118.908 97.0286 118.838 96.1964 118.505 95.4603L118.506 95.4598L118.5 95.4492C118.454 95.3484 118.403 95.2496 118.347 95.1529L118.347 95.1521C118.313 95.0928 118.276 95.0449 118.255 95.0186C118.25 95.0116 118.245 95.0059 118.241 95.0011L118.241 95L89.1844 44.6735L77.3434 24.1643L86.4781 29.4397L86.3167 29.5331L87.222 29.9289C87.6816 30.1299 88.07 30.4648 88.3364 30.8898L88.584 31.2848L88.5904 31.2814L126.826 97.5055L126.792 97.5228L127.106 97.9941C127.123 98.0191 127.139 98.0409 127.152 98.0578C127.161 98.0694 127.171 98.0828 127.178 98.0919L127.183 98.0986C127.191 98.1084 127.195 98.1143 127.198 98.1175Z" stroke="url(#paint1_linear_335_625)" stroke-opacity="0.4" style="mix-blend-mode:hard-light"/>
<path d="M106.887 96.6882C107.578 96.2888 108.082 95.6314 108.288 94.8606C108.495 94.0897 108.387 93.2683 107.988 92.577C107.957 92.5222 107.913 92.4776 107.879 92.4258L107.882 92.4243L69.1384 25.3217L69.1168 25.3333C68.797 24.8231 68.3308 24.4211 67.7791 24.1798L67.8338 24.1481L51.9794 14.9941V15.0574C51.5781 14.8287 51.1294 14.6958 50.6683 14.6691C50.2072 14.6424 49.7462 14.7225 49.3212 14.9033L49.3039 14.8731L49.0072 15.0445C49.0015 15.0488 48.9943 15.0488 48.9885 15.0531C48.9828 15.0574 48.9784 15.0617 48.9712 15.0646L18.4677 32.6758C18.0208 32.9344 17.6484 33.3042 17.3867 33.7494C17.1251 34.1945 16.983 34.6997 16.9744 35.216L16.9644 35.2102V53.5184L16.9946 53.5011C16.9269 54.116 17.0378 54.7568 17.3704 55.3342C17.3906 55.3688 17.4165 55.3947 17.4381 55.4278L56.0517 122.31C56.0892 122.389 56.1151 122.471 56.1597 122.549C56.548 123.219 57.18 123.713 57.9238 123.928C58.6676 124.143 59.4657 124.062 60.1514 123.703L60.1586 123.714L106.908 96.7242L106.887 96.6882ZM43.0442 39.6339C42.0909 40.1843 40.9957 40.4397 39.8973 40.3677C38.7988 40.2957 37.7463 39.8996 36.873 39.2294C35.9997 38.5592 35.3447 37.6451 34.991 36.6027C34.6372 35.5603 34.6005 34.4363 34.8855 33.3731C35.1705 32.3098 35.7644 31.3549 36.5921 30.6291C37.4198 29.9034 38.4442 29.4395 39.5356 29.2959C40.6271 29.1524 41.7365 29.3357 42.7237 29.8228C43.711 30.3098 44.5316 31.0787 45.0818 32.0321C45.4476 32.665 45.6851 33.3637 45.7807 34.0883C45.8763 34.813 45.8281 35.5494 45.6389 36.2554C45.4496 36.9615 45.1231 37.6232 44.6778 38.2029C44.2326 38.7827 43.6775 39.2689 43.0442 39.6339Z" fill="#ACACAC" fill-opacity="0.2" style="mix-blend-mode:luminosity"/>
<path d="M106.887 96.6882C107.578 96.2888 108.082 95.6314 108.288 94.8606C108.495 94.0897 108.387 93.2683 107.988 92.577C107.957 92.5222 107.913 92.4776 107.879 92.4258L107.882 92.4243L69.1384 25.3217L69.1168 25.3333C68.797 24.8231 68.3308 24.4211 67.7791 24.1798L67.8338 24.1481L51.9794 14.9941V15.0574C51.5781 14.8287 51.1294 14.6958 50.6683 14.6691C50.2072 14.6424 49.7462 14.7225 49.3212 14.9033L49.3039 14.8731L49.0072 15.0445C49.0015 15.0488 48.9943 15.0488 48.9885 15.0531C48.9828 15.0574 48.9784 15.0617 48.9712 15.0646L18.4677 32.6758C18.0208 32.9344 17.6484 33.3042 17.3867 33.7494C17.1251 34.1945 16.983 34.6997 16.9744 35.216L16.9644 35.2102V53.5184L16.9946 53.5011C16.9269 54.116 17.0378 54.7568 17.3704 55.3342C17.3906 55.3688 17.4165 55.3947 17.4381 55.4278L56.0517 122.31C56.0892 122.389 56.1151 122.471 56.1597 122.549C56.548 123.219 57.18 123.713 57.9238 123.928C58.6676 124.143 59.4657 124.062 60.1514 123.703L60.1586 123.714L106.908 96.7242L106.887 96.6882ZM43.0442 39.6339C42.0909 40.1843 40.9957 40.4397 39.8973 40.3677C38.7988 40.2957 37.7463 39.8996 36.873 39.2294C35.9997 38.5592 35.3447 37.6451 34.991 36.6027C34.6372 35.5603 34.6005 34.4363 34.8855 33.3731C35.1705 32.3098 35.7644 31.3549 36.5921 30.6291C37.4198 29.9034 38.4442 29.4395 39.5356 29.2959C40.6271 29.1524 41.7365 29.3357 42.7237 29.8228C43.711 30.3098 44.5316 31.0787 45.0818 32.0321C45.4476 32.665 45.6851 33.3637 45.7807 34.0883C45.8763 34.813 45.8281 35.5494 45.6389 36.2554C45.4496 36.9615 45.1231 37.6232 44.6778 38.2029C44.2326 38.7827 43.6775 39.2689 43.0442 39.6339Z" fill="#D5D5D5" fill-opacity="0.3" style="mix-blend-mode:multiply"/>
<path d="M106.887 96.6882C107.578 96.2888 108.082 95.6314 108.288 94.8606C108.495 94.0897 108.387 93.2683 107.988 92.577C107.957 92.5222 107.913 92.4776 107.879 92.4258L107.882 92.4243L69.1384 25.3217L69.1168 25.3333C68.797 24.8231 68.3308 24.4211 67.7791 24.1798L67.8338 24.1481L51.9794 14.9941V15.0574C51.5781 14.8287 51.1294 14.6958 50.6683 14.6691C50.2072 14.6424 49.7462 14.7225 49.3212 14.9033L49.3039 14.8731L49.0072 15.0445C49.0015 15.0488 48.9943 15.0488 48.9885 15.0531C48.9828 15.0574 48.9784 15.0617 48.9712 15.0646L18.4677 32.6758C18.0208 32.9344 17.6484 33.3042 17.3867 33.7494C17.1251 34.1945 16.983 34.6997 16.9744 35.216L16.9644 35.2102V53.5184L16.9946 53.5011C16.9269 54.116 17.0378 54.7568 17.3704 55.3342C17.3906 55.3688 17.4165 55.3947 17.4381 55.4278L56.0517 122.31C56.0892 122.389 56.1151 122.471 56.1597 122.549C56.548 123.219 57.18 123.713 57.9238 123.928C58.6676 124.143 59.4657 124.062 60.1514 123.703L60.1586 123.714L106.908 96.7242L106.887 96.6882ZM43.0442 39.6339C42.0909 40.1843 40.9957 40.4397 39.8973 40.3677C38.7988 40.2957 37.7463 39.8996 36.873 39.2294C35.9997 38.5592 35.3447 37.6451 34.991 36.6027C34.6372 35.5603 34.6005 34.4363 34.8855 33.3731C35.1705 32.3098 35.7644 31.3549 36.5921 30.6291C37.4198 29.9034 38.4442 29.4395 39.5356 29.2959C40.6271 29.1524 41.7365 29.3357 42.7237 29.8228C43.711 30.3098 44.5316 31.0787 45.0818 32.0321C45.4476 32.665 45.6851 33.3637 45.7807 34.0883C45.8763 34.813 45.8281 35.5494 45.6389 36.2554C45.4496 36.9615 45.1231 37.6232 44.6778 38.2029C44.2326 38.7827 43.6775 39.2689 43.0442 39.6339Z" fill="url(#paint2_radial_335_625)" fill-opacity="0.25" style="mix-blend-mode:overlay"/>
<path d="M106.636 96.2553L106.196 96.5096L106.218 96.5454L60.2058 123.109L59.9192 123.26C59.3477 123.559 58.6825 123.627 58.0626 123.447C57.4432 123.269 56.9167 122.857 56.5931 122.3C56.587 122.289 56.5791 122.273 56.5645 122.238C56.5623 122.233 56.5597 122.226 56.5568 122.219C56.544 122.188 56.5243 122.14 56.5037 122.096L56.495 122.078L56.4847 122.06L17.8711 55.1778L17.8643 55.1661L17.8569 55.1547C17.843 55.1333 17.8298 55.1153 17.8197 55.102C17.8108 55.0903 17.8005 55.0773 17.7974 55.0733C17.7971 55.073 17.7969 55.0726 17.7966 55.0723C17.5267 54.5974 17.4351 54.0693 17.4916 53.5558L17.599 52.5798L17.4644 52.6568V35.8252L17.4744 35.2243C17.4815 34.7943 17.5998 34.3735 17.8178 34.0028C18.0356 33.6322 18.3457 33.3242 18.7177 33.1088C18.7179 33.1088 18.718 33.1087 18.7181 33.1086L49.2084 15.505C49.2186 15.4997 49.228 15.4943 49.2366 15.489C49.2457 15.4843 49.2554 15.4788 49.2655 15.4727L49.2807 15.4639L49.5169 15.3634C49.871 15.2128 50.2552 15.146 50.6394 15.1682C51.0236 15.1905 51.3975 15.3013 51.7318 15.4918L52.4794 15.9179V15.8601L66.8349 24.1488L66.6737 24.2422L67.5788 24.6379C68.0384 24.8389 68.4268 25.1738 68.6932 25.5988L68.9408 25.9938L68.9472 25.9904L107.183 92.2145L107.149 92.2318L107.463 92.7031C107.479 92.7282 107.496 92.7499 107.508 92.7668C107.513 92.7734 107.519 92.7805 107.524 92.7872C107.531 92.7956 107.537 92.8032 107.54 92.8076C107.551 92.822 107.556 92.8279 107.556 92.8292C107.888 93.4052 107.977 94.0892 107.805 94.7311C107.633 95.374 107.213 95.9222 106.636 96.2553ZM39.8645 40.8666C41.0616 40.9451 42.255 40.6669 43.2939 40.0671C43.9841 39.6693 44.5891 39.1393 45.0744 38.5075C45.5596 37.8757 45.9156 37.1544 46.1218 36.3849C46.3281 35.6154 46.3806 34.8128 46.2764 34.0229C46.1723 33.2333 45.9135 32.4718 45.5149 31.7822C44.9152 30.7431 44.0209 29.9052 42.945 29.3744C41.8691 28.8436 40.6599 28.6438 39.4704 28.8002C38.281 28.9566 37.1646 29.4623 36.2625 30.2532C35.3604 31.0441 34.7131 32.0848 34.4025 33.2436C34.0919 34.4024 34.1319 35.6273 34.5175 36.7634C34.903 37.8995 35.6169 38.8957 36.5686 39.626C37.5204 40.3564 38.6674 40.7881 39.8645 40.8666Z" stroke="url(#paint3_linear_335_625)" stroke-opacity="0.4" style="mix-blend-mode:hard-light"/>
<defs>
<radialGradient id="paint0_radial_335_625" cx="0" cy="0" r="1" gradientUnits="userSpaceOnUse" gradientTransform="translate(100.934 22.8425) rotate(90) scale(132.836 67.5812)">
<stop stop-color="#FFFEFE"/>
<stop offset="1" stop-color="white" stop-opacity="0"/>
</radialGradient>
<linearGradient id="paint1_linear_335_625" x1="74" y1="10" x2="14.3553" y2="83.2633" gradientUnits="userSpaceOnUse">
<stop stop-color="white" stop-opacity="0.8"/>
<stop offset="0.49467" stop-color="#FF0024"/>
<stop offset="1" stop-color="white" stop-opacity="0.8"/>
</linearGradient>
<radialGradient id="paint2_radial_335_625" cx="0" cy="0" r="1" gradientUnits="userSpaceOnUse" gradientTransform="translate(72.2131 95.2981) rotate(90.1503) scale(68.0717 56.8982)">
<stop stop-color="#FFFEFE"/>
<stop offset="1" stop-color="white" stop-opacity="0"/>
</radialGradient>
<linearGradient id="paint3_linear_335_625" x1="67.5" y1="12" x2="38.5585" y2="129.633" gradientUnits="userSpaceOnUse">
<stop stop-color="white" stop-opacity="0.8"/>
<stop offset="0.49467" stop-color="#FF0024"/>
<stop offset="1" stop-color="white" stop-opacity="0.8"/>
</linearGradient>
</defs>
</svg>
