<svg width="144" height="144" viewBox="0 0 144 144" fill="none" xmlns="http://www.w3.org/2000/svg">
<path d="M18.0001 103.5V126H40.5001L106.86 59.5798L84.3601 37.0798L18.0001 103.5ZM135.66 110.16L110.16 135.66L78.9601 104.46L89.5801 93.8398L95.5801 99.8398L110.4 84.9598L118.92 93.4798L110.16 102L116.52 108L125.04 99.5998L135.66 110.16ZM39.6601 64.9798L8.34009 33.8398L33.8401 8.33984L44.4001 18.9598L29.5801 33.8398L36.0001 40.1998L50.7601 25.3198L59.2801 33.8398L50.7601 42.2998L56.7601 48.2998L39.6601 64.9798ZM124.26 41.9998C126.6 39.6598 126.6 35.9998 124.26 33.5398L110.22 19.7398C108 17.3998 104.1 17.3998 101.76 19.7398L90.7201 30.7198L113.22 53.2198L124.26 41.9998Z" fill="#ACACAC" fill-opacity="0.2" style="mix-blend-mode:luminosity"/>
<path d="M18.0001 103.5V126H40.5001L106.86 59.5798L84.3601 37.0798L18.0001 103.5ZM135.66 110.16L110.16 135.66L78.9601 104.46L89.5801 93.8398L95.5801 99.8398L110.4 84.9598L118.92 93.4798L110.16 102L116.52 108L125.04 99.5998L135.66 110.16ZM39.6601 64.9798L8.34009 33.8398L33.8401 8.33984L44.4001 18.9598L29.5801 33.8398L36.0001 40.1998L50.7601 25.3198L59.2801 33.8398L50.7601 42.2998L56.7601 48.2998L39.6601 64.9798ZM124.26 41.9998C126.6 39.6598 126.6 35.9998 124.26 33.5398L110.22 19.7398C108 17.3998 104.1 17.3998 101.76 19.7398L90.7201 30.7198L113.22 53.2198L124.26 41.9998Z" fill="#D5D5D5" fill-opacity="0.3" style="mix-blend-mode:multiply"/>
<path d="M18.0001 103.5V126H40.5001L106.86 59.5798L84.3601 37.0798L18.0001 103.5ZM135.66 110.16L110.16 135.66L78.9601 104.46L89.5801 93.8398L95.5801 99.8398L110.4 84.9598L118.92 93.4798L110.16 102L116.52 108L125.04 99.5998L135.66 110.16ZM39.6601 64.9798L8.34009 33.8398L33.8401 8.33984L44.4001 18.9598L29.5801 33.8398L36.0001 40.1998L50.7601 25.3198L59.2801 33.8398L50.7601 42.2998L56.7601 48.2998L39.6601 64.9798ZM124.26 41.9998C126.6 39.6598 126.6 35.9998 124.26 33.5398L110.22 19.7398C108 17.3998 104.1 17.3998 101.76 19.7398L90.7201 30.7198L113.22 53.2198L124.26 41.9998Z" fill="url(#paint0_radial_335_485)" fill-opacity="0.25" style="mix-blend-mode:overlay"/>
<path d="M125.039 100.303L134.952 110.161L110.16 134.953L79.6672 104.46L89.5801 94.547L95.2265 100.193L95.5808 100.548L95.9344 100.193L110.401 85.6677L118.208 93.4749L109.811 101.641L109.437 102.005L109.817 102.364L116.177 108.364L116.528 108.694L116.871 108.356L125.039 100.303ZM36.3551 40.552L50.7615 26.0284L58.5717 33.8386L50.4078 41.945L50.0517 42.2986L50.4065 42.6534L56.0486 48.2954L39.6634 64.2781L9.04822 33.8388L33.8391 9.04795L43.6947 18.9596L29.2258 33.487L28.872 33.8422L29.2282 34.1951L35.6482 40.5551L36.0032 40.9067L36.3551 40.552ZM123.907 41.6463L123.904 41.6492L113.217 52.5099L91.4282 30.7208L102.113 20.0944L102.114 20.0934C104.264 17.9434 107.84 17.9571 109.857 20.084L109.863 20.0903L109.87 20.0964L123.903 33.8904C126.059 36.1622 126.045 39.5082 123.907 41.6463ZM40.2929 125.5H18.5001V103.707L84.3602 37.7871L106.153 59.58L40.2929 125.5Z" stroke="url(#paint1_linear_335_485)" stroke-opacity="0.4" style="mix-blend-mode:hard-light"/>
<defs>
<radialGradient id="paint0_radial_335_485" cx="0" cy="0" r="1" gradientUnits="userSpaceOnUse" gradientTransform="translate(85.2792 102.198) rotate(90.1798) scale(79.2353 79.236)">
<stop stop-color="#FFFEFE"/>
<stop offset="1" stop-color="white" stop-opacity="0"/>
</radialGradient>
<linearGradient id="paint1_linear_335_485" x1="71.5001" y1="8" x2="60.9864" y2="148.212" gradientUnits="userSpaceOnUse">
<stop stop-color="white" stop-opacity="0.8"/>
<stop offset="0.49467" stop-color="#FF0024"/>
<stop offset="1" stop-color="white" stop-opacity="0.8"/>
</linearGradient>
</defs>
</svg>
