<svg width="145" height="144" viewBox="0 0 145 144" fill="none" xmlns="http://www.w3.org/2000/svg">
<path d="M84.0005 66V119.5H61.0005V66V64.7929L60.1469 65.6464L39.5005 86.2929L25.6876 72.48L72.5005 25.6671L119.313 72.48L105.5 86.2929L84.854 65.6464L84.0005 64.7929V66Z" fill="#ACACAC" fill-opacity="0.2" style="mix-blend-mode:luminosity"/>
<path d="M84.0005 66V119.5H61.0005V66V64.7929L60.1469 65.6464L39.5005 86.2929L25.6876 72.48L72.5005 25.6671L119.313 72.48L105.5 86.2929L84.854 65.6464L84.0005 64.7929V66Z" fill="#D5D5D5" fill-opacity="0.3" style="mix-blend-mode:multiply"/>
<path d="M84.0005 66V119.5H61.0005V66V64.7929L60.1469 65.6464L39.5005 86.2929L25.6876 72.48L72.5005 25.6671L119.313 72.48L105.5 86.2929L84.854 65.6464L84.0005 64.7929V66Z" fill="url(#paint0_radial_312_520)" fill-opacity="0.25" style="mix-blend-mode:overlay"/>
<path d="M84.0005 66V119.5H61.0005V66V64.7929L60.1469 65.6464L39.5005 86.2929L25.6876 72.48L72.5005 25.6671L119.313 72.48L105.5 86.2929L84.854 65.6464L84.0005 64.7929V66Z" stroke="url(#paint1_linear_312_520)"/>
<defs>
<radialGradient id="paint0_radial_312_520" cx="0" cy="0" r="1" gradientUnits="userSpaceOnUse" gradientTransform="translate(72.5007 24.9998) rotate(90) scale(118.5 118.501)">
<stop stop-color="#FFFEFE"/>
<stop offset="1" stop-color="white" stop-opacity="0"/>
</radialGradient>
<linearGradient id="paint1_linear_312_520" x1="27.314" y1="28.0024" x2="122.093" y2="101.518" gradientUnits="userSpaceOnUse">
<stop stop-color="#5581FF"/>
<stop offset="1" stop-color="white" stop-opacity="0.19"/>
</linearGradient>
</defs>
</svg>
