<svg width="145" height="144" viewBox="0 0 145 144" fill="none" xmlns="http://www.w3.org/2000/svg">
<mask id="path-1-inside-1_312_476" fill="white">
<path d="M117.5 12H27.5C23.5218 12 19.7064 13.5804 16.8934 16.3934C14.0804 19.2064 12.5 23.0218 12.5 27V117C12.5 120.978 14.0804 124.794 16.8934 127.607C19.7064 130.42 23.5218 132 27.5 132H117.5C121.478 132 125.294 130.42 128.107 127.607C130.92 124.794 132.5 120.978 132.5 117V27C132.5 23.0218 130.92 19.2064 128.107 16.3934C125.294 13.5804 121.478 12 117.5 12ZM64.7 103.2C64.7 105.11 63.9414 106.941 62.5912 108.291C61.2409 109.641 59.4096 110.4 57.5 110.4H35.3C31.34 110.4 28.1 107.16 28.1 103.2V34.8C28.1 32.8904 28.8586 31.0591 30.2088 29.7088C31.5591 28.3586 33.3904 27.6 35.3 27.6H57.5C61.46 27.6 64.7 30.84 64.7 34.8V103.2ZM116.9 73.2C116.9 77.16 113.66 80.4 109.7 80.4H87.5C83.54 80.4 80.3 77.16 80.3 73.2V34.8C80.3 30.84 83.54 27.6 87.5 27.6H109.7C113.66 27.6 116.9 30.84 116.9 34.8V73.2Z"/>
</mask>
<path d="M117.5 12H27.5C23.5218 12 19.7064 13.5804 16.8934 16.3934C14.0804 19.2064 12.5 23.0218 12.5 27V117C12.5 120.978 14.0804 124.794 16.8934 127.607C19.7064 130.42 23.5218 132 27.5 132H117.5C121.478 132 125.294 130.42 128.107 127.607C130.92 124.794 132.5 120.978 132.5 117V27C132.5 23.0218 130.92 19.2064 128.107 16.3934C125.294 13.5804 121.478 12 117.5 12ZM64.7 103.2C64.7 105.11 63.9414 106.941 62.5912 108.291C61.2409 109.641 59.4096 110.4 57.5 110.4H35.3C31.34 110.4 28.1 107.16 28.1 103.2V34.8C28.1 32.8904 28.8586 31.0591 30.2088 29.7088C31.5591 28.3586 33.3904 27.6 35.3 27.6H57.5C61.46 27.6 64.7 30.84 64.7 34.8V103.2ZM116.9 73.2C116.9 77.16 113.66 80.4 109.7 80.4H87.5C83.54 80.4 80.3 77.16 80.3 73.2V34.8C80.3 30.84 83.54 27.6 87.5 27.6H109.7C113.66 27.6 116.9 30.84 116.9 34.8V73.2Z" fill="#ACACAC" fill-opacity="0.2" style="mix-blend-mode:luminosity"/>
<path d="M117.5 12H27.5C23.5218 12 19.7064 13.5804 16.8934 16.3934C14.0804 19.2064 12.5 23.0218 12.5 27V117C12.5 120.978 14.0804 124.794 16.8934 127.607C19.7064 130.42 23.5218 132 27.5 132H117.5C121.478 132 125.294 130.42 128.107 127.607C130.92 124.794 132.5 120.978 132.5 117V27C132.5 23.0218 130.92 19.2064 128.107 16.3934C125.294 13.5804 121.478 12 117.5 12ZM64.7 103.2C64.7 105.11 63.9414 106.941 62.5912 108.291C61.2409 109.641 59.4096 110.4 57.5 110.4H35.3C31.34 110.4 28.1 107.16 28.1 103.2V34.8C28.1 32.8904 28.8586 31.0591 30.2088 29.7088C31.5591 28.3586 33.3904 27.6 35.3 27.6H57.5C61.46 27.6 64.7 30.84 64.7 34.8V103.2ZM116.9 73.2C116.9 77.16 113.66 80.4 109.7 80.4H87.5C83.54 80.4 80.3 77.16 80.3 73.2V34.8C80.3 30.84 83.54 27.6 87.5 27.6H109.7C113.66 27.6 116.9 30.84 116.9 34.8V73.2Z" fill="#D5D5D5" fill-opacity="0.3" style="mix-blend-mode:multiply"/>
<path d="M117.5 12H27.5C23.5218 12 19.7064 13.5804 16.8934 16.3934C14.0804 19.2064 12.5 23.0218 12.5 27V117C12.5 120.978 14.0804 124.794 16.8934 127.607C19.7064 130.42 23.5218 132 27.5 132H117.5C121.478 132 125.294 130.42 128.107 127.607C130.92 124.794 132.5 120.978 132.5 117V27C132.5 23.0218 130.92 19.2064 128.107 16.3934C125.294 13.5804 121.478 12 117.5 12ZM64.7 103.2C64.7 105.11 63.9414 106.941 62.5912 108.291C61.2409 109.641 59.4096 110.4 57.5 110.4H35.3C31.34 110.4 28.1 107.16 28.1 103.2V34.8C28.1 32.8904 28.8586 31.0591 30.2088 29.7088C31.5591 28.3586 33.3904 27.6 35.3 27.6H57.5C61.46 27.6 64.7 30.84 64.7 34.8V103.2ZM116.9 73.2C116.9 77.16 113.66 80.4 109.7 80.4H87.5C83.54 80.4 80.3 77.16 80.3 73.2V34.8C80.3 30.84 83.54 27.6 87.5 27.6H109.7C113.66 27.6 116.9 30.84 116.9 34.8V73.2Z" fill="url(#paint0_radial_312_476)" fill-opacity="0.25" style="mix-blend-mode:overlay"/>
<path d="M117.5 12H27.5C23.5218 12 19.7064 13.5804 16.8934 16.3934C14.0804 19.2064 12.5 23.0218 12.5 27V117C12.5 120.978 14.0804 124.794 16.8934 127.607C19.7064 130.42 23.5218 132 27.5 132H117.5C121.478 132 125.294 130.42 128.107 127.607C130.92 124.794 132.5 120.978 132.5 117V27C132.5 23.0218 130.92 19.2064 128.107 16.3934C125.294 13.5804 121.478 12 117.5 12ZM64.7 103.2C64.7 105.11 63.9414 106.941 62.5912 108.291C61.2409 109.641 59.4096 110.4 57.5 110.4H35.3C31.34 110.4 28.1 107.16 28.1 103.2V34.8C28.1 32.8904 28.8586 31.0591 30.2088 29.7088C31.5591 28.3586 33.3904 27.6 35.3 27.6H57.5C61.46 27.6 64.7 30.84 64.7 34.8V103.2ZM116.9 73.2C116.9 77.16 113.66 80.4 109.7 80.4H87.5C83.54 80.4 80.3 77.16 80.3 73.2V34.8C80.3 30.84 83.54 27.6 87.5 27.6H109.7C113.66 27.6 116.9 30.84 116.9 34.8V73.2Z" stroke="url(#paint1_linear_312_476)" stroke-width="2" mask="url(#path-1-inside-1_312_476)"/>
<path d="M117.5 12H27.5C23.5218 12 19.7064 13.5804 16.8934 16.3934C14.0804 19.2064 12.5 23.0218 12.5 27V117C12.5 120.978 14.0804 124.794 16.8934 127.607C19.7064 130.42 23.5218 132 27.5 132H117.5C121.478 132 125.294 130.42 128.107 127.607C130.92 124.794 132.5 120.978 132.5 117V27C132.5 23.0218 130.92 19.2064 128.107 16.3934C125.294 13.5804 121.478 12 117.5 12ZM64.7 103.2C64.7 105.11 63.9414 106.941 62.5912 108.291C61.2409 109.641 59.4096 110.4 57.5 110.4H35.3C31.34 110.4 28.1 107.16 28.1 103.2V34.8C28.1 32.8904 28.8586 31.0591 30.2088 29.7088C31.5591 28.3586 33.3904 27.6 35.3 27.6H57.5C61.46 27.6 64.7 30.84 64.7 34.8V103.2ZM116.9 73.2C116.9 77.16 113.66 80.4 109.7 80.4H87.5C83.54 80.4 80.3 77.16 80.3 73.2V34.8C80.3 30.84 83.54 27.6 87.5 27.6H109.7C113.66 27.6 116.9 30.84 116.9 34.8V73.2Z" stroke="url(#paint2_linear_312_476)" stroke-width="2" mask="url(#path-1-inside-1_312_476)"/>
<defs>
<radialGradient id="paint0_radial_312_476" cx="0" cy="0" r="1" gradientUnits="userSpaceOnUse" gradientTransform="translate(72.5003 12.0502) rotate(90) scale(149.621 149.622)">
<stop stop-color="#FFFEFE"/>
<stop offset="1" stop-color="white" stop-opacity="0"/>
</radialGradient>
<linearGradient id="paint1_linear_312_476" x1="15.4464" y1="15.8415" x2="135.116" y2="108.664" gradientUnits="userSpaceOnUse">
<stop stop-color="#5581FF"/>
<stop offset="0.209544" stop-color="white" stop-opacity="0.19"/>
</linearGradient>
<linearGradient id="paint2_linear_312_476" x1="124.722" y1="12" x2="12.5" y2="132" gradientUnits="userSpaceOnUse">
<stop stop-color="#5581FF"/>
<stop offset="0.314057" stop-color="white" stop-opacity="0"/>
</linearGradient>
</defs>
</svg>
