<svg xmlns="http://www.w3.org/2000/svg" version="1.1" xmlns:xlink="http://www.w3.org/1999/xlink" xmlns:svgjs="http://svgjs.dev/svgjs" viewBox="0 0 800 800"><defs><linearGradient x1="50%" y1="0%" x2="50%" y2="100%" id="ccchaos-grad"><stop stop-color="hsl(0, 0%, 0%)" stop-opacity="1" offset="0%"></stop><stop stop-color="hsl(324, 100%, 32%)" stop-opacity="1" offset="100%"></stop></linearGradient></defs><g stroke-width="1" stroke="url(#ccchaos-grad)" fill="none" stroke-linecap="round"><path d="M436.81 -110.59Q457.34 -103.05 476.85 -95.06 495.08 -86.59 511.79 -77.64 526.77 -68.25 539.9 -58.52 551.07 -48.55 560.28 -38.48 567.57 -28.49 573.06 -18.72 576.93 -9.33 579.45 -0.47 581.54 14.93 582.77 28.27 586.85 38.84 595.18 48.65 602.78 53.61 612.82 58.96 625.52 64.89 641.01 71.57 659.33 79.12 680.44 87.61 704.2 97.03 730.37 107.32 758.63 118.33 788.58 129.87 819.75 141.71 851.62 153.56 886.28 169.56 914.94 185.55 934.14 201.54 941.52 217.53 936.2 233.53 918.82 249.52 891.49 265.51 857.54 281.5 821.09 297.5 786.57 313.49 758.18 329.48 739.37 345.47 732.42 361.47 738.18 377.46 755.95 393.45 783.57 409.45 817.68 425.44 854.14 441.43 888.51 457.42 916.62 473.42 935.05 489.41 941.56 505.4 935.36 521.4 917.2 537.39 889.29 553.38 855.03 569.37 818.57 585.37 784.35 601.36 756.52 617.35 738.48 633.35 735.11 661.29 739.89 665.99 742.69 671.22 744.87 678.91 745.93 689.13 745.48 701.75 743.13 716.48 738.62 732.87 731.73 750.38 722.34 768.33 710.42 786.05 696.01 802.85 679.23 818.1 660.3 831.26 639.46 841.93 617.03 849.89 593.36 855.09 568.83 857.68 543.82 857.98 518.74 856.48 493.95 853.82 469.79 850.7 446.59 847.88 424.59 846.11 404.02 846.07 385.02 848.32 367.68 853.31 352.02 861.25 336.08 856.43 322.43 858.06 309.81 863.97 296.23 868.04 288.32 867.31 279.51 864.18 269.7 858.37 258.81 849.76 246.84 838.46 233.82 824.72 219.81 808.99 204.94 791.83 189.34 773.9 173.17 755.9 156.61 738.5 139.84 722.37 123.05 708.03 106.4 695.91 90.04 686.25 74.11 679.15 58.7 674.5 43.88 672.04 29.67 671.38 16.06 671.98 3.02 673.25 -9.53 674.56 -21.71 675.26 -33.64 674.8 -33.42 658.64 -33.62 642.49 -34.24 626.33 -35.19 610.18 -36.36 594.02 -37.61 577.87 -38.79 561.71 -39.74 545.55 -40.36 529.4 -40.57 513.24 -40.35 497.09 -39.72 480.93 -38.76 464.78 -37.58 448.62 -36.33 432.47 -35.17 416.31 -34.22 400.16 -33.61 384 -33.42 367.85 -33.65 351.69 -34.3 335.54 -35.27 319.38 -36.45 303.23 -37.7 287.07 -38.86 270.92 -39.8 254.76 -40.39 238.61 -40.57 222.45 -40.32 206.3 -39.66 190.14 -38.68 173.99 -37.5 157.83 -23.27 146.42 -9.64 134.69 3.4 122.92 15.93 111.38 28 100.31 39.75 89.91 51.28 80.33 62.77 71.65 74.37 63.89 86.24 57 98.55 50.86 111.43 45.33 125 40.22 139.37 35.3 154.59 30.38 170.68 25.23 187.63 19.69 205.36 13.6 223.79 6.89 242.77 -0.5 262.11 -8.58 281.62 -17.28 301.07 -26.51 320.22 -36.14 338.82 -46.02 356.63 -55.99 373.44 -65.9 389.04 -75.61 403.27 -85 416.01 -93.98 432 -106.56 436.81 -110.59" stroke-dasharray="0 0" transform="rotate(0, 400, 400)" opacity="0.38"></path><path d="M449.81 -85.02Q465.02 -77.89 478.8 -70.3 491.03 -62.23 501.66 -53.67 510.66 -44.67 518.07 -35.3 523.97 -25.67 528.51 -15.91 531.88 -6.16 534.31 3.41 537.47 21.21 540.58 37.34 547.04 50.14 557.51 61.07 565.81 65.68 576.22 70.05 588.92 74.35 603.98 78.81 621.44 83.6 641.25 88.94 663.3 94.96 687.39 101.8 713.28 109.52 740.65 118.15 769.12 127.65 798.29 137.91 827.71 148.79 856.9 160.09 884.62 175 904.63 189.91 914.73 204.82 913.83 219.73 902.03 234.64 880.62 249.55 851.93 264.46 819.09 279.37 785.7 294.27 755.39 309.18 731.49 324.09 716.59 339 712.33 353.91 719.17 368.82 736.37 383.73 762.04 398.64 793.38 413.54 826.97 428.45 859.15 443.36 886.39 458.27 905.73 473.18 915.05 488.09 913.33 503 900.76 517.9 878.72 532.81 849.61 547.72 816.61 562.63 783.32 577.54 753.38 592.45 730.06 607.35 715.9 622.26 712.46 637.17 693.59 647.81 694.6 666.56 696.36 678.88 697.62 692.97 698 708.46 697.16 724.86 694.79 741.63 690.65 758.2 684.56 773.99 676.41 788.48 666.12 801.22 653.72 811.84 639.28 820.12 622.92 825.99 604.83 829.49 585.23 830.85 564.38 830.41 542.57 828.65 520.1 826.11 497.28 823.42 474.43 821.19 451.82 820.05 429.74 820.53 408.43 823.1 388.11 828.08 368.93 835.67 350.55 832.24 335.75 836.67 328.24 839.13 319.76 840.63 310.21 840.63 299.58 838.71 287.87 834.55 275.12 827.97 261.4 818.95 246.83 807.63 231.54 794.27 215.68 779.26 199.42 763.1 182.91 746.32 166.33 729.51 149.84 713.25 133.58 698.05 117.68 684.39 102.24 672.62 87.33 662.97 73.01 655.55 59.27 650.32 46.12 647.1 33.51 645.6 21.36 645.44 9.59 646.14 -1.9 647.18 -13.26 648.05 -13.29 632.96 -13.39 617.87 -13.56 602.79 -13.77 587.7 -14.01 572.61 -14.25 557.52 -14.46 542.43 -14.62 527.35 -14.71 512.26 -14.72 497.17 -14.66 482.08 -14.52 466.99 -14.32 451.91 -14.09 436.82 -13.85 421.73 -13.62 406.64 -13.44 391.55 -13.31 376.47 -13.26 361.38 -13.29 346.29 -13.4 331.2 -13.57 316.11 -13.79 301.03 -14.03 285.94 -14.27 270.85 -14.47 255.76 -14.63 240.67 -14.71 225.58 -14.72 210.5 -14.65 195.41 -14.5 180.32 -14.3 165.23 -0.83 153.82 12.12 142.52 24.55 131.58 36.46 121.19 47.89 111.51 58.9 102.65 69.6 94.67 80.09 87.57 90.51 81.29 101 75.72 111.7 70.72 122.76 66.1 134.33 61.69 146.52 57.27 159.44 52.66 173.17 47.69 187.77 42.22 203.25 36.15 219.6 29.42 236.77 22.02 254.67 13.97 273.18 5.35 292.14 -3.73 311.39 -13.17 330.71 -22.8 349.88 -32.49 368.7 -42.08 386.92 -51.45 404.34 -60.5 420.74 -69.13 442.88 -81.16 449.81 -85.02" stroke-dasharray="0 0" transform="rotate(9.5, 400, 400)" opacity="0.10"></path><path d="M445.95 -59.44Q455.61 -52.73 463.94 -45.56 470.98 -37.9 476.81 -29.76 481.54 -21.18 485.34 -12.22 488.37 -2.97 490.86 6.44 493.05 15.9 495.2 25.25 497.59 34.37 500.48 43.12 504.15 51.37 508.86 59.04 514.87 66.07 522.38 72.42 531.59 78.11 542.65 83.2 555.65 87.76 570.65 91.92 587.65 95.83 606.59 99.66 627.38 103.6 649.85 107.82 673.79 112.51 698.95 117.81 725.04 123.84 751.71 130.69 778.61 138.4 805.38 146.96 831.63 156.32 856.97 166.37 876.47 180.22 887.63 194.08 889.37 207.94 881.52 221.79 864.84 235.65 840.96 249.51 812.2 263.36 781.38 277.22 751.5 291.08 725.46 304.93 705.81 318.79 694.47 332.65 692.54 346.51 700.2 360.36 716.72 374.22 740.48 388.08 769.16 401.93 799.97 415.79 829.91 429.65 856.05 443.5 875.84 457.36 887.36 471.22 889.49 485.08 882.01 498.93 865.65 512.79 842.02 526.65 813.41 540.5 782.61 554.36 752.63 568.22 726.39 582.08 706.44 595.93 694.75 609.79 681.67 610.26 671.01 611.87 657.39 620.67 649.49 634.97 648.21 645.39 647.98 657.52 648.46 671.1 649.29 685.77 650.15 701.14 650.69 716.76 650.61 732.14 649.62 746.83 647.46 760.39 643.92 772.45 638.84 782.7 632.08 790.94 623.58 797.07 613.32 801.13 601.3 803.25 587.61 803.66 572.34 802.73 555.66 800.88 537.73 798.58 518.77 796.35 498.99 794.71 478.65 794.14 457.97 795.09 437.21 797.91 416.6 802.87 396.34 810.09 386.52 804.84 374.53 804.78 366.93 806.79 358.29 809.19 348.57 811.46 337.77 813.1 325.92 813.64 313.08 812.68 299.33 809.89 284.8 805.08 269.61 798.15 253.9 789.12 237.83 778.12 221.54 765.41 205.2 751.31 188.94 736.22 172.9 720.61 157.2 704.95 141.93 689.71 127.16 675.33 112.95 662.2 99.33 650.64 86.29 640.87 73.81 633.01 61.84 627.08 50.33 622.99 39.18 620.54 28.3 619.47 12.38 612.69 7.6 591.94 8.17 577.92 8.81 563.9 9.46 549.89 10.08 535.87 10.58 521.85 10.93 507.83 11.09 493.81 11.04 479.8 10.8 465.78 10.37 451.76 9.82 437.74 9.18 423.72 8.52 409.7 7.91 395.69 7.4 381.67 7.05 367.65 6.88 353.63 6.92 339.61 7.17 325.6 7.59 311.58 8.14 297.56 8.78 283.54 9.44 269.53 10.05 255.51 10.56 241.49 10.92 227.47 11.09 213.45 11.05 199.44 10.81 185.42 10.39 171.4 23.17 160.74 35.5 150.54 47.35 140.97 58.7 132.15 69.56 124.14 79.97 116.97 89.96 110.63 99.63 105.03 109.07 100.09 118.37 95.64 127.68 91.54 137.12 87.61 146.81 83.66 156.9 79.53 167.5 75.06 178.74 70.12 190.7 64.62 203.47 58.48 217.1 51.69 231.62 44.26 247.01 36.24 263.26 27.71 280.29 18.78 298.02 9.57 316.32 0.21 335.04 -9.14 354.03 -18.38 373.08 -27.39 392.01 -36.05 410.6 -44.31 428.65 -52.11 445.95 -59.44 445.95 -59.44 445.95 -59.44" stroke-dasharray="0 0" transform="rotate(19, 400, 400)" opacity="0.30"></path><path d="M426.55 -33.86Q436.29 -20.59 443.95 -5.9 446.96 2.22 449.79 10.74 452.63 19.57 455.71 28.59 459.24 37.71 463.44 46.79 468.49 55.71 474.61 64.34 481.96 72.57 490.69 80.3 500.93 87.46 512.75 93.99 526.23 99.87 541.36 105.13 558.13 109.8 576.48 113.98 596.29 117.75 617.44 121.26 639.73 124.65 662.96 128.09 686.89 131.74 711.25 135.75 735.76 140.28 760.12 145.44 784.03 151.33 807.19 158.01 829.31 165.5 850.12 173.78 861.05 186.66 863.94 199.54 858.53 212.42 845.3 225.29 825.38 238.17 800.5 251.05 772.81 263.93 744.71 276.8 718.62 289.68 696.79 302.56 681.13 315.44 672.97 328.31 673.03 341.19 681.29 354.07 697.06 366.95 718.95 379.82 745.09 392.7 773.2 405.58 800.87 418.45 825.69 431.33 845.52 444.21 858.66 457.09 863.95 469.96 860.95 482.84 849.92 495.72 831.8 508.59 808.17 521.47 781.06 534.35 752.83 547.23 725.9 560.1 702.62 572.98 684.98 585.86 668.61 588.64 654.3 592.87 642.05 598.68 631.83 606.13 623.54 615.21 617.05 625.82 612.2 637.79 608.78 650.88 606.56 664.78 605.31 679.16 604.75 693.62 604.61 707.8 604.64 721.31 604.55 733.81 604.09 744.99 603.04 754.62 597.7 767.71 588.9 775.46 582.18 776.49 574.03 776.24 564.42 775.03 553.38 773.23 540.94 771.25 527.21 769.52 512.27 768.44 496.28 768.41 479.38 769.76 461.75 772.78 443.56 777.66 425 784.51 411.09 779.13 394.09 778.36 383.74 779.86 372.37 781.84 360.03 783.87 346.79 785.52 332.77 786.41 318.07 786.16 302.83 784.5 287.17 781.19 271.25 776.09 255.19 769.16 239.13 760.43 223.2 750.02 207.52 738.15 192.19 725.08 177.3 711.14 162.91 696.7 149.07 682.15 135.81 667.87 123.13 654.23 111.02 641.56 99.44 630.14 88.35 620.18 77.69 611.83 67.36 605.13 57.3 600.09 47.4 596.58 33.09 587.43 29.82 567.44 31.21 554.45 32.67 541.46 34.07 528.47 35.29 515.48 36.23 502.48 36.8 489.49 36.95 476.5 36.68 463.51 36 450.52 34.97 437.53 33.69 424.54 32.26 411.54 30.81 398.55 29.46 385.56 28.33 372.57 27.52 359.58 27.09 346.59 27.09 333.59 27.51 320.6 28.32 307.61 29.44 294.62 30.79 281.63 32.24 268.64 33.67 255.64 34.96 242.65 35.99 229.66 36.67 216.67 36.95 203.68 36.8 190.68 36.24 177.69 48.41 168.43 60.2 159.84 71.58 152.01 82.49 144.97 92.93 138.72 102.89 133.21 112.39 128.37 121.48 124.08 130.21 120.22 138.65 116.63 146.9 113.16 155.06 109.64 163.23 105.93 171.54 101.89 180.1 97.39 189.03 92.36 198.46 86.74 208.47 80.49 219.18 73.61 230.65 66.16 242.94 58.18 256.11 49.77 270.15 41.03 285.06 32.08 300.81 23.04 317.34 14.04 334.56 5.19 352.37 -3.4 370.62 -11.66 389.19 -19.51 407.89 -26.92 426.55 -33.86 426.55 -33.86 426.55 -33.86" stroke-dasharray="0 0" transform="rotate(28.5, 400, 400)" opacity="0.70"></path><path d="M398.18 -8.3Q405.18 4.1 412.09 17.88 415.88 25.54 420.12 33.59 424.97 41.94 430.59 50.53 437.13 59.26 444.7 68.01 453.42 76.67 463.38 85.13 474.65 93.29 487.26 101.04 501.24 108.3 516.56 115.01 533.18 121.12 551.02 126.63 569.99 131.55 589.95 135.91 610.75 139.77 632.21 143.24 654.12 146.41 676.29 149.42 698.48 152.4 720.47 155.49 742.01 158.85 762.88 162.59 782.84 166.85 801.69 171.72 819.24 177.29 835.29 183.59 838.16 195.58 833.93 207.57 822.95 219.56 806.04 231.55 784.48 243.54 759.93 255.53 734.23 267.52 709.36 279.51 687.19 291.5 669.43 303.49 657.4 315.48 652.04 327.47 653.75 339.46 662.4 351.46 677.32 363.45 697.4 375.44 721.09 387.43 746.6 399.42 771.99 411.41 795.33 423.4 814.84 435.39 829.03 447.38 836.84 459.37 837.66 471.36 831.44 483.35 818.64 495.34 800.24 507.33 777.64 519.33 752.56 531.32 726.9 543.31 702.62 555.3 681.56 567.29 663 572.7 646.04 579.52 630.75 587.73 617.17 597.27 605.3 608.02 595.12 619.79 586.57 632.37 579.54 645.48 573.93 658.83 569.58 672.13 566.32 685.06 563.98 697.32 562.35 708.65 561.22 718.82 554.15 745.16 546.46 748.69 534.59 745.77 519.29 742.93 509.58 742.39 498.73 742.84 486.78 744.54 473.81 747.7 459.91 752.48 445.18 758.95 435.81 755.11 425.44 752.82 414.1 751.9 401.85 752.1 388.77 753.13 374.97 754.68 360.54 756.41 345.6 757.97 330.27 759.03 314.68 759.3 298.95 758.49 283.21 756.4 267.57 752.86 252.14 747.78 237.02 741.12 222.28 732.93 208.02 723.31 194.26 712.42 181.06 700.47 168.43 687.74 156.39 674.49 144.9 661.05 133.96 647.72 123.51 634.81 113.5 622.58 103.87 611.3 94.55 601.17 85.45 592.33 76.5 584.88 67.6 578.85 58.69 574.21 49.68 570.89 51.45 558.84 53.48 546.8 55.63 534.76 57.73 522.72 59.62 510.67 61.16 498.63 62.24 486.59 62.76 474.55 62.69 462.5 62.03 450.46 60.85 438.42 59.21 426.38 57.26 414.33 55.13 402.29 52.99 390.25 51.01 378.21 49.33 366.16 48.08 354.12 47.35 342.08 47.21 330.04 47.66 318 48.66 305.95 50.15 293.91 52.01 281.87 54.09 269.83 56.25 257.78 58.3 245.74 60.11 233.7 61.52 221.66 62.44 209.62 62.8 197.57 62.56 185.53 74.24 178.09 85.61 171.38 96.63 165.4 107.25 160.13 117.42 155.51 127.14 151.45 136.38 147.84 145.17 144.55 161.32 138.35 176.45 131.9 190.63 123.82 204.8 114.23 212.13 108.44 219.77 102.05 227.83 95.11 236.4 87.65 245.58 79.75 255.45 71.5 266.08 63 277.51 54.36 289.79 45.68 302.94 37.08 316.94 28.65 331.77 20.49 347.38 12.67 363.72 5.24 380.69 -1.75 398.18 -8.3 398.18 -8.3 398.18 -8.3" stroke-dasharray="0 0" transform="rotate(38, 400, 400)" opacity="0.42"></path><path d="M370.4 17.26Q379.37 28.81 389.77 41.65 396.1 48.81 403.23 56.35 411.27 64.2 420.27 72.31 430.3 80.58 441.41 88.94 453.61 97.27 466.91 105.5 481.28 113.5 496.7 121.2 513.09 128.51 530.39 135.36 548.48 141.7 567.25 147.49 586.56 152.71 606.28 157.37 626.22 161.51 646.24 165.16 666.15 168.4 685.76 171.32 704.91 174.02 723.41 176.61 741.1 179.22 757.81 181.96 773.4 184.97 787.74 188.35 804.47 200.02 798.47 219.02 783.65 230.22 764.74 241.42 743 252.62 719.86 263.81 696.87 275.01 675.54 286.21 657.3 297.41 643.34 308.6 634.6 319.8 631.65 331 634.69 342.19 643.52 353.39 657.55 364.59 675.86 375.79 697.22 386.98 720.23 398.18 743.35 409.38 765.06 420.57 783.91 431.77 798.66 442.97 808.32 454.17 812.27 465.36 810.22 476.56 802.33 487.76 789.11 498.95 771.44 510.15 750.5 521.35 727.66 532.54 704.45 543.74 682.4 554.94 662.9 562.66 644.48 571.51 627.26 581.38 611.33 592.13 596.75 603.58 583.56 615.54 571.78 627.78 561.4 640.05 552.37 652.12 544.65 663.74 538.15 674.7 532.77 684.78 525.26 701.05 519.94 713.55 505.96 718.83 496.31 716.59 484.15 717.97 469.22 722.65 460.11 727.29 450.09 733.37 437.58 729.69 424.35 727.33 410.51 726.16 396.15 725.98 381.38 726.58 366.3 727.7 351.03 729.1 335.67 730.48 320.34 731.59 305.14 732.16 290.16 731.98 275.49 730.83 261.19 728.56 247.34 725.05 233.99 720.23 221.17 714.07 208.91 706.6 197.21 697.91 186.08 688.11 175.5 677.37 165.44 665.88 155.86 653.87 146.72 641.57 137.95 629.22 129.5 617.08 121.3 605.37 113.27 594.31 105.35 584.08 97.46 574.85 89.53 566.71 81.51 559.76 73.33 554 75.93 542.82 78.66 531.64 81.36 520.45 83.83 509.27 85.91 498.08 87.47 486.9 88.4 475.71 88.64 464.53 88.17 453.35 87.03 442.16 85.3 430.98 83.07 419.79 80.51 408.61 77.79 397.42 75.07 386.24 72.56 375.06 70.4 363.87 68.74 352.69 67.7 341.5 67.34 330.32 67.69 319.13 68.72 307.95 70.37 296.76 72.52 285.58 75.03 274.39 77.74 263.21 80.47 252.03 83.03 240.84 85.26 229.66 87.01 218.47 88.16 207.29 88.64 196.1 99.91 190.6 110.97 185.75 121.74 181.49 132.17 177.76 142.23 174.47 151.88 171.5 161.09 168.75 169.85 166.09 185.78 160.45 200.45 154.07 213.41 145.61 225.71 135.58 231.65 129.6 237.62 123.11 243.7 116.12 249.99 108.71 256.59 100.95 263.58 92.92 271.06 84.71 279.11 76.43 287.81 68.16 297.21 60 307.37 52.03 318.33 44.34 330.12 36.97 342.73 29.99 363.28 20.34 370.4 17.26" stroke-dasharray="0 0" transform="rotate(47.5, 400, 400)" opacity="0.72"></path><path d="M352.63 42.84Q359.1 47.88 366.22 53.31 374.06 59.15 382.68 65.4 392.11 72.03 402.4 79.03 413.56 86.34 425.59 93.92 438.48 101.69 452.21 109.59 466.74 117.52 482.02 125.42 497.97 133.2 514.51 140.76 531.56 148.04 549.01 154.96 566.73 161.46 584.63 167.49 602.55 173.03 620.37 178.05 637.96 182.55 655.18 186.56 671.9 190.09 687.99 193.21 703.32 195.98 717.78 198.47 731.27 200.78 743.69 203.01 754.98 205.26 765.07 207.62 773.05 216.92 758.7 234.09 741.8 244.57 722.46 255.05 701.77 265.53 680.92 276.01 661.11 286.48 643.46 296.96 628.99 307.44 618.53 317.92 612.67 328.4 611.75 338.88 615.81 349.35 624.64 359.83 637.73 370.31 654.31 380.79 673.46 391.27 694.06 401.75 714.95 412.22 734.92 422.7 752.84 433.18 767.68 443.66 778.59 454.14 784.94 464.61 786.38 475.09 782.82 485.57 774.47 496.05 761.79 506.53 745.53 517.01 726.6 527.48 706.1 537.96 685.18 548.44 665.92 557.7 647.27 567.66 629.34 578.2 612.26 589.14 596.1 600.32 580.95 611.55 566.87 622.64 553.89 633.4 542.05 643.65 531.34 653.23 521.76 662 513.27 669.83 499.84 681.81 489.14 690.51 465.56 691.51 457.49 692.14 448.75 698.23 438.04 707.79 423.68 704.28 409.05 701.9 394.24 700.52 379.36 700.02 364.5 700.22 349.75 700.94 335.18 701.98 320.89 703.12 306.93 704.16 293.37 704.88 280.25 705.11 267.63 704.65 255.53 703.36 243.98 701.12 232.97 697.84 222.5 693.45 212.58 687.95 203.17 681.34 194.24 673.69 185.76 665.07 177.67 655.59 169.94 645.41 162.5 634.68 155.29 623.58 148.26 612.3 141.33 601.03 134.46 589.96 127.57 579.27 120.62 569.13 113.55 559.67 106.31 551.03 98.86 543.29 102.09 532.88 105.25 522.47 108.17 512.05 110.68 501.64 112.64 491.23 113.93 480.82 114.48 470.41 114.25 459.99 113.27 449.58 111.59 439.17 109.3 428.76 106.54 418.35 103.46 407.93 100.23 397.52 97.06 387.11 94.1 376.7 91.54 366.29 89.52 355.87 88.16 345.46 87.54 335.05 87.68 324.64 88.58 314.23 90.2 303.81 92.43 293.4 95.15 282.99 98.21 272.58 101.42 262.16 104.61 251.75 107.6 241.34 110.21 230.93 112.29 220.51 113.72 210.1 124.64 206.36 135.41 203.08 145.99 200.19 156.32 197.6 166.35 195.2 176.04 192.9 185.36 190.6 194.28 188.2 210.59 182.52 225.58 175.79 238.47 166.77 250.27 156.25 260.72 143.37 270.74 129.31 275.68 121.75 280.7 114 285.88 106.15 291.31 98.28 297.07 90.47 303.24 82.79 309.89 75.32 317.1 68.12 324.93 61.24 333.44 54.72 347.65 45.71 352.63 42.84" stroke-dasharray="0 0" transform="rotate(57, 400, 400)" opacity="0.73"></path><path d="M350.89 68.42Q360.12 73.04 370.02 78.03 380.6 83.38 391.86 89.12 403.79 95.21 416.36 101.65 429.56 108.39 443.33 115.39 457.63 122.61 472.4 129.99 487.56 137.46 503.05 144.95 518.78 152.39 534.66 159.72 550.6 166.86 566.51 173.74 582.28 180.31 597.82 186.52 613.02 192.31 627.79 197.67 642.03 202.56 655.66 206.99 668.59 210.95 680.75 214.46 692.06 217.57 702.46 220.3 719.89 224.8 734.29 228.79 735.58 236.57 716.04 252.26 698.69 262.06 680.24 271.86 661.57 281.66 643.61 291.47 627.23 301.27 613.23 311.07 602.29 320.87 594.95 330.68 591.56 340.48 592.29 350.28 597.1 360.08 605.76 369.88 617.84 379.69 632.77 389.49 649.8 399.29 668.11 409.09 686.8 418.89 704.97 428.7 721.72 438.5 736.24 448.3 747.83 458.1 755.91 467.9 760.09 477.71 760.17 487.51 756.15 497.31 748.21 507.11 736.75 516.91 722.33 526.72 705.65 536.52 687.52 546.32 669.54 556.07 651.76 566.11 634.3 576.29 617.27 586.48 600.76 596.53 584.86 606.31 569.65 615.66 555.18 624.47 541.52 632.63 528.72 640.03 516.79 646.61 505.76 652.31 495.63 657.09 486.4 660.96 470.96 665.67 457.93 668.07 432.29 665.53 424.71 667.03 419.3 673.17 413.12 682.22 398.87 678.9 384.76 676.51 370.86 674.98 357.23 674.2 343.94 674.06 331.03 674.4 318.55 675.08 306.54 675.94 295.01 676.82 283.99 677.55 273.5 677.99 263.52 677.99 254.07 677.41 245.12 676.14 228.85 670.73 213.85 662.64 206.98 656.99 200.42 650.44 194.09 643.05 187.96 634.89 181.96 626.07 176.06 616.69 170.18 606.89 164.3 596.79 158.34 586.54 152.28 576.29 146.07 566.19 139.68 556.36 133.07 546.95 126.22 538.06 129.72 528.36 132.94 518.66 135.73 508.96 137.94 499.25 139.47 489.55 140.25 479.85 140.23 470.15 139.42 460.44 137.86 450.74 135.63 441.04 132.82 431.34 129.59 421.63 126.08 411.93 122.47 402.23 118.94 392.53 115.65 382.82 112.77 373.12 110.43 363.42 108.76 353.72 107.83 344.01 107.69 334.31 108.35 324.61 109.76 314.91 111.88 305.2 114.58 295.5 117.74 285.8 121.21 276.09 124.81 266.39 128.38 256.69 131.73 246.99 134.7 237.28 137.15 227.58 147.69 225.17 158.16 222.99 168.52 220.97 178.73 219.02 188.73 217.05 198.48 214.99 207.96 212.75 217.11 210.26 225.9 207.47 234.32 204.3 249.72 196.5 263.85 187.34 275.9 175.96 286.81 163.4 296.11 149.35 304.73 134.77 312.76 119.98 320.83 105.47 329.65 92 339.35 79.43 347.88 71.08 350.89 68.42" stroke-dasharray="0 0" transform="rotate(66.5, 400, 400)" opacity="0.81"></path><path d="M365.77 93.99Q377.02 98.2 388.75 102.74 400.93 107.62 413.53 112.83 426.49 118.37 439.78 124.22 453.35 130.36 467.14 136.76 481.08 143.39 495.12 150.18 509.18 157.11 523.2 164.11 537.1 171.13 550.82 178.1 564.28 184.98 577.41 191.7 590.14 198.22 602.41 204.47 614.16 210.41 625.33 216.02 635.86 221.24 645.7 226.07 654.83 230.49 663.2 234.48 677.2 241.08 688.79 246.56 692.05 256.92 672.01 272.36 655.59 281.49 639.06 290.62 623.1 299.76 608.37 308.89 595.47 318.02 584.93 327.15 577.18 336.28 572.54 345.42 571.2 354.55 573.22 363.68 578.51 372.81 586.85 381.95 597.9 391.08 611.22 400.21 626.25 409.34 642.37 418.47 658.93 427.61 675.25 436.74 690.66 445.87 704.52 455 716.26 464.13 725.41 473.27 731.6 482.4 734.55 491.53 734.17 500.66 730.45 509.79 723.56 518.92 713.77 528.06 701.49 537.19 687.23 546.32 671.3 555.52 655.29 564.67 639.3 573.64 623.39 582.34 607.66 590.67 592.19 598.53 577.05 605.84 562.31 612.54 548.04 618.56 534.3 623.87 521.12 628.43 508.56 632.25 496.66 635.33 485.42 637.7 474.88 639.4 465.05 640.5 447.83 641 432.65 640.47 413.29 638.99 402.05 639.2 390.91 647.09 383.76 656.64 371.5 653.52 359.64 651.18 348.19 649.54 337.2 648.54 326.67 648.09 316.62 648.09 307.07 648.43 297.99 648.98 281.51 650.22 266.37 651.03 253.24 650.06 241.13 647.46 230.3 641.5 219.99 633.3 210.11 621.43 200.22 607.55 195.18 599.59 190.01 591.17 184.7 582.38 179.21 573.33 173.52 564.11 167.6 554.85 161.43 545.65 155.01 536.62 158.36 527.59 161.24 518.57 163.54 509.55 165.15 500.53 166.03 491.5 166.12 482.48 165.42 473.46 163.97 464.43 161.83 455.41 159.07 446.39 155.82 437.37 152.21 428.34 148.38 419.32 144.49 410.3 140.71 401.27 137.19 392.25 134.06 383.23 131.47 374.2 129.51 365.18 128.27 356.16 127.8 347.13 128.11 338.11 129.2 329.09 131.02 320.07 133.49 311.04 136.52 302.02 139.97 293 143.72 283.97 147.59 274.95 151.44 265.93 161.82 251.56 178.59 244.59 188.63 242.91 198.61 241.11 208.48 239.14 218.2 236.94 227.74 234.45 237.07 231.64 246.14 228.47 254.93 224.91 263.4 220.95 271.53 216.58 279.31 211.81 286.7 206.64 293.71 201.1 300.31 195.22 312.12 182.49 322.76 169.13 331.63 155.26 339.59 141.42 346.43 128.16 352.88 115.54 362.48 99.14 365.77 93.99" stroke-dasharray="0 0" transform="rotate(76, 400, 400)" opacity="0.11"></path><path d="M392.21 119.56Q415.92 127.45 440.23 136.53 464.79 146.76 489.22 158.05 513.11 170.21 536.07 182.96 557.72 195.97 577.71 208.88 595.74 221.34 611.55 232.98 624.99 243.53 635.97 252.77 649.55 266.29 656.73 275.92 628.14 292.79 599.8 309.66 575.52 326.53 558.58 343.41 551.24 360.28 554.49 377.15 567.91 394.02 589.67 410.89 616.86 427.76 645.82 444.63 672.65 461.5 693.74 478.37 706.25 495.24 708.51 512.11 700.2 528.98 682.45 545.85 655.45 561.23 627.65 575.2 599.57 587.3 571.7 597.2 544.51 604.74 518.42 609.91 493.8 612.93 470.93 614.14 450.03 614.07 431.25 613.34 414.61 612.61 400.08 612.6 387.56 613.96 376.86 617.23 367.74 622.85 359.9 631.07 342.16 625.9 326.19 623.04 311.93 622.04 299.26 622.31 288 623.18 277.93 623.95 268.79 623.94 260.3 622.53 252.16 619.23 244.11 613.69 235.85 605.76 227.16 595.44 217.83 582.95 207.7 568.63 196.65 552.99 184.62 536.6 189.58 519.92 191.9 503.24 191.27 486.56 187.77 469.88 181.89 453.21 174.4 436.53 166.32 419.85 158.73 403.17 152.66 386.49 148.91 369.81 148.01 353.13 150.05 336.46 154.78 319.78 161.56 303.1 169.47 286.42 177.45 269.74 196.4 266.64 215.5 262.8 234.53 257.9 253.24 251.71 271.38 244.13 288.72 235.13 305.03 224.83 320.13 213.41 333.88 201.15 346.18 188.38 357 175.46 366.38 162.74 374.4 150.55 381.22 139.17 389.64 124.18 392.21 119.56" stroke-dasharray="0 0" transform="rotate(85.5, 400, 400)" opacity="0.64"></path><path d="M421.3 145.14Q442.42 152.18 463.16 160.24 483.26 169.3 502.45 179.31 520.48 190.13 537.14 201.58 552.24 213.42 565.63 225.38 577.21 237.2 586.93 248.58 594.81 259.26 600.91 269.03 607.7 284.56 610.82 296.46 585.84 311.84 563.16 327.21 545.27 342.59 534.13 357.97 530.94 373.34 536.05 388.72 548.92 404.1 568.13 419.47 591.58 434.85 616.71 450.22 640.79 465.6 661.17 480.97 675.64 496.35 682.61 511.72 681.32 527.1 671.92 542.48 650.32 554.04 627.52 564 603.85 572.16 579.66 578.45 555.29 582.91 531.09 585.69 507.37 587.05 484.42 587.35 462.49 587.02 441.82 586.53 422.55 586.38 404.8 587.06 388.65 588.99 374.1 592.54 361.11 597.99 349.6 605.49 338.42 600.66 328.52 597.67 312.22 596.27 298 596.9 285.03 596.09 271.5 591.79 263.94 586.82 255.69 579.98 246.65 571.26 236.73 560.76 225.92 548.7 214.21 535.41 217.28 520.17 217.7 504.93 215.42 489.68 210.7 474.44 204.03 459.2 196.16 443.96 187.95 428.72 180.28 413.48 174 398.24 169.79 382.99 168.12 367.75 169.16 352.51 172.81 337.27 178.66 322.03 186.07 306.79 194.24 291.54 211.61 287.78 229.34 283.02 247.27 277.11 265.23 270 283.03 261.69 300.46 252.27 317.34 241.89 333.48 230.76 348.7 219.13 362.86 207.27 375.83 195.45 387.53 183.95 397.91 172.99 406.96 162.79 418.01 149.31 421.3 145.14" stroke-dasharray="0 0" transform="rotate(95, 400, 400)" opacity="0.79"></path><path d="M443.18 170.71Q459.37 176.91 474.68 183.96 488.98 191.86 502.13 200.57 514.04 210 524.65 220.05 533.91 230.56 541.8 241.34 548.37 252.2 553.67 262.92 557.79 273.3 560.87 283.14 564.28 300.08 566.24 314.19 546.33 327.96 529.68 341.72 517.72 355.48 511.5 369.25 511.54 383.01 517.85 396.78 529.88 410.54 546.58 424.3 566.52 438.07 587.97 451.83 609.07 465.59 628.01 479.36 643.14 493.12 653.16 506.88 657.2 520.65 654.91 534.41 638.63 542.09 621.07 548.35 602.42 553.19 582.89 556.66 562.7 558.9 542.07 560.11 521.24 560.54 500.42 560.48 479.83 560.25 459.67 560.2 440.13 560.65 421.37 561.92 403.52 564.29 386.68 567.98 370.94 573.15 356.35 579.92 337.08 571.43 324.36 570.04 313.05 569.94 300.16 567.98 292.56 565.24 284.19 561.18 275.03 555.71 265.07 548.78 254.32 540.45 242.82 530.8 243.69 517.1 242.16 503.4 238.37 489.7 232.64 476 225.48 462.3 217.49 448.59 209.37 434.89 201.83 421.19 195.5 407.49 190.95 393.79 188.57 380.09 188.55 366.38 190.91 352.68 195.43 338.98 201.73 325.28 209.26 311.58 224.65 306.71 240.52 300.86 256.77 294 273.3 286.17 289.97 277.45 306.66 267.96 323.21 257.87 339.47 247.35 355.3 236.61 370.54 225.84 385.07 215.27 398.75 205.06 411.48 195.38 423.17 186.38 438.46 174.42 443.18 170.71" stroke-dasharray="0 0" transform="rotate(104.50000000000001, 400, 400)" opacity="0.33"></path><path d="M450.44 196.29Q461.02 201.66 470.69 207.71 479.42 214.45 487.2 221.86 494.03 229.9 499.93 238.49 504.93 247.54 509.1 256.94 512.51 266.55 515.25 276.25 517.44 285.87 519.2 295.28 521.98 312.58 524.79 328.09 510.57 340.14 499.69 352.18 492.87 364.23 490.57 376.27 492.94 388.32 499.83 400.37 510.76 412.41 525.03 424.46 541.69 436.5 559.62 448.55 577.64 460.6 594.56 472.64 609.26 484.69 620.75 496.73 624.07 516.98 607.21 528.53 593.54 530.93 578.94 532.51 563.51 533.4 547.39 533.79 530.7 533.88 513.59 533.88 496.2 533.99 478.66 534.45 461.13 535.46 443.73 537.21 426.59 539.85 409.83 543.54 393.56 548.35 377.86 554.34 364.29 545.75 353.19 543.51 341.36 543.49 327.63 542.76 319.58 541.48 310.85 539.42 301.45 536.43 291.4 532.43 280.74 527.37 269.53 521.24 268.2 509.19 264.93 497.13 259.94 485.08 253.56 473.03 246.21 460.98 238.39 448.93 230.6 436.88 223.37 424.82 217.18 412.77 212.43 400.72 209.44 388.67 208.41 376.61 209.41 364.56 212.37 352.51 217.09 340.46 223.27 328.4 236.34 322.46 249.92 315.73 263.95 308.26 278.4 300.14 293.17 291.45 308.21 282.33 323.4 272.9 338.67 263.3 353.89 253.69 368.97 244.2 383.8 234.97 398.27 226.11 412.26 217.75 425.68 209.95 444.44 199.54 450.44 196.29" stroke-dasharray="0 0" transform="rotate(114, 400, 400)" opacity="0.60"></path><path d="M440.64 221.87Q451.42 231.75 460.41 243.23 466.8 257.18 471.96 272.38 475.78 288.95 479.29 305.82 483.19 322.25 487.9 337.85 479.16 348.1 473.3 358.36 470.59 368.62 471.17 378.88 475.01 389.13 481.93 399.39 491.57 409.65 503.49 419.9 517.08 430.16 531.7 440.42 546.62 450.67 561.12 460.93 574.5 471.19 586.09 481.44 585.63 502.09 566.45 506.91 555.65 507.22 544.16 507.4 532.04 507.57 519.36 507.87 506.18 508.44 492.58 509.39 478.65 510.85 464.47 512.92 450.12 515.68 435.68 519.22 421.24 523.57 406.87 528.76 392.54 520.38 379.88 517.46 366.5 517.09 351.44 516.74 342.96 516.24 333.96 515.37 324.48 514.01 314.56 512.07 304.22 509.48 293.53 506.18 290.34 495.87 285.77 485.55 280.04 475.24 273.42 464.93 266.25 454.62 258.87 444.3 251.64 433.99 244.92 423.68 239.03 413.36 234.26 403.05 230.84 392.74 228.94 382.42 228.65 372.11 229.99 361.8 232.89 351.48 237.21 341.17 247.76 334.57 258.76 327.48 270.2 319.96 282.07 312.08 294.34 303.93 306.96 295.6 319.89 287.19 333.09 278.8 346.51 270.51 360.07 262.42 373.71 254.61 387.36 247.15 400.96 240.1 414.42 233.52 434.16 224.65 440.64 221.87" stroke-dasharray="0 0" transform="rotate(123.5, 400, 400)" opacity="0.68"></path><path d="M417.09 247.44Q422.75 255.3 427.48 264.71 431.59 275.64 435.46 287.92 439.48 301.29 444.05 315.38 449.57 329.76 456.45 343.97 450.43 360.86 453.1 377.74 464.1 394.63 481.94 411.52 504.23 428.4 527.97 445.29 549.96 462.17 567.25 479.06 557.39 480.28 545.32 480.91 531.08 481.53 514.78 482.73 496.61 485.08 476.81 489.05 455.68 495.01 433.54 503.2 424.11 497.62 412.98 494.01 400.13 491.98 385.63 491.01 369.59 490.52 352.2 489.93 333.67 488.65 314.26 486.15 304.57 469.11 292.25 452.06 278.95 435.02 266.46 417.97 256.47 400.93 250.31 383.88 248.81 366.83 252.18 349.78 268.51 336.44 286.26 322.4 305.42 308.12 325.9 294.05 347.54 280.62 370.14 268.2 393.43 257.08 417.09 247.44 417.09 247.44 417.09 247.44" stroke-dasharray="0 0" transform="rotate(133, 400, 400)" opacity="0.19"></path><path d="M387.75 273.01Q395.69 286.88 404.34 303.81 409.56 313.9 415.6 324.71 422.61 336.06 430.76 347.72 430.8 361.02 436.13 374.32 446.29 387.61 460.39 400.91 477.23 414.21 495.35 427.5 513.17 440.8 529.17 454.1 516.01 455.75 499.04 458.68 488.29 461.55 476.3 465.57 463.12 470.9 448.87 477.62 437.29 472.93 424.6 469.5 410.9 467.15 396.28 465.65 380.89 464.74 364.86 464.13 348.33 463.52 331.48 462.62 321.37 449.17 310.1 435.71 298.65 422.26 288.01 408.81 279.09 395.35 272.67 381.9 269.31 368.44 269.28 354.99 280.68 343.39 293.03 331.75 306.39 320.31 320.77 309.29 336.15 298.91 352.49 289.33 369.73 280.67 387.75 273.01 387.75 273.01 387.75 273.01" stroke-dasharray="0 0" transform="rotate(142.5, 400, 400)" opacity="0.48"></path><path d="M362.56 298.59Q371.64 308.52 382.06 320.28 388.21 327.2 394.99 334.64 402.44 342.56 410.62 350.88 413.97 360.69 420.01 370.51 428.44 380.32 438.85 390.13 450.72 399.94 463.49 409.75 473.91 434.04 461.91 442.49 455.12 446.88 447.67 452.04 435.94 448.36 423.78 445.39 411.24 443.05 398.39 441.27 385.3 439.95 372.05 438.98 358.71 438.26 345.34 437.65 336.34 427.73 327.07 417.8 318 407.87 309.56 397.94 302.16 388.02 296.17 378.09 291.88 368.16 289.49 358.23 296.62 349.45 304.25 340.89 312.45 332.65 321.23 324.8 330.62 317.41 340.64 310.56 356.92 301.43 362.56 298.59" stroke-dasharray="0 0" transform="rotate(152, 400, 400)" opacity="0.24"></path><path d="M350.03 324.17Q359.57 330.3 370.24 337.57 382.13 345.97 395.27 355.44 404.49 368.34 417.3 381.25 432.59 394.15 449.03 407.05 440.85 414.97 430.33 426.47 411.88 421.66 393.29 418.02 374.74 415.38 356.41 413.53 343.3 400.51 331.1 387.48 320.89 374.45 313.54 361.42 321.28 350.68 329.87 340.81 344.72 328.05 350.03 324.17" stroke-dasharray="0 0" transform="rotate(161.5, 400, 400)" opacity="0.54"></path></g></svg>