<svg width="145" height="144" viewBox="0 0 145 144" fill="none" xmlns="http://www.w3.org/2000/svg">
<path d="M108.5 18H36.5C31.7261 18 27.1477 19.8964 23.7721 23.2721C20.3964 26.6477 18.5 31.2261 18.5 36V108C18.5 112.774 20.3964 117.352 23.7721 120.728C27.1477 124.104 31.7261 126 36.5 126H108.5C113.274 126 117.852 124.104 121.228 120.728C124.604 117.352 126.5 112.774 126.5 108V36C126.5 31.2261 124.604 26.6477 121.228 23.2721C117.852 19.8964 113.274 18 108.5 18ZM72.5 36C73.6867 36 74.8467 36.3519 75.8334 37.0112C76.8201 37.6705 77.5892 38.6075 78.0433 39.7039C78.4974 40.8003 78.6162 42.0067 78.3847 43.1705C78.1532 44.3344 77.5818 45.4035 76.7426 46.2426C75.9035 47.0818 74.8344 47.6532 73.6705 47.8847C72.5067 48.1162 71.3003 47.9974 70.2039 47.5433C69.1075 47.0892 68.1705 46.3201 67.5112 45.3334C66.8519 44.3467 66.5 43.1867 66.5 42C66.5 40.4087 67.1321 38.8826 68.2574 37.7574C69.3826 36.6321 70.9087 36 72.5 36ZM48.5 36C49.6867 36 50.8467 36.3519 51.8334 37.0112C52.8201 37.6705 53.5892 38.6075 54.0433 39.7039C54.4974 40.8003 54.6162 42.0067 54.3847 43.1705C54.1532 44.3344 53.5818 45.4035 52.7426 46.2426C51.9035 47.0818 50.8344 47.6532 49.6705 47.8847C48.5067 48.1162 47.3003 47.9974 46.2039 47.5433C45.1075 47.0892 44.1705 46.3201 43.5112 45.3334C42.8519 44.3467 42.5 43.1867 42.5 42C42.5 40.4087 43.1321 38.8826 44.2574 37.7574C45.3826 36.6321 46.9087 36 48.5 36ZM114.5 108C114.5 109.591 113.868 111.117 112.743 112.243C111.617 113.368 110.091 114 108.5 114H36.5C34.9087 114 33.3826 113.368 32.2574 112.243C31.1321 111.117 30.5 109.591 30.5 108V66H114.5V108Z" fill="#ACACAC" fill-opacity="0.2" style="mix-blend-mode:luminosity"/>
<path d="M108.5 18H36.5C31.7261 18 27.1477 19.8964 23.7721 23.2721C20.3964 26.6477 18.5 31.2261 18.5 36V108C18.5 112.774 20.3964 117.352 23.7721 120.728C27.1477 124.104 31.7261 126 36.5 126H108.5C113.274 126 117.852 124.104 121.228 120.728C124.604 117.352 126.5 112.774 126.5 108V36C126.5 31.2261 124.604 26.6477 121.228 23.2721C117.852 19.8964 113.274 18 108.5 18ZM72.5 36C73.6867 36 74.8467 36.3519 75.8334 37.0112C76.8201 37.6705 77.5892 38.6075 78.0433 39.7039C78.4974 40.8003 78.6162 42.0067 78.3847 43.1705C78.1532 44.3344 77.5818 45.4035 76.7426 46.2426C75.9035 47.0818 74.8344 47.6532 73.6705 47.8847C72.5067 48.1162 71.3003 47.9974 70.2039 47.5433C69.1075 47.0892 68.1705 46.3201 67.5112 45.3334C66.8519 44.3467 66.5 43.1867 66.5 42C66.5 40.4087 67.1321 38.8826 68.2574 37.7574C69.3826 36.6321 70.9087 36 72.5 36ZM48.5 36C49.6867 36 50.8467 36.3519 51.8334 37.0112C52.8201 37.6705 53.5892 38.6075 54.0433 39.7039C54.4974 40.8003 54.6162 42.0067 54.3847 43.1705C54.1532 44.3344 53.5818 45.4035 52.7426 46.2426C51.9035 47.0818 50.8344 47.6532 49.6705 47.8847C48.5067 48.1162 47.3003 47.9974 46.2039 47.5433C45.1075 47.0892 44.1705 46.3201 43.5112 45.3334C42.8519 44.3467 42.5 43.1867 42.5 42C42.5 40.4087 43.1321 38.8826 44.2574 37.7574C45.3826 36.6321 46.9087 36 48.5 36ZM114.5 108C114.5 109.591 113.868 111.117 112.743 112.243C111.617 113.368 110.091 114 108.5 114H36.5C34.9087 114 33.3826 113.368 32.2574 112.243C31.1321 111.117 30.5 109.591 30.5 108V66H114.5V108Z" fill="#D5D5D5" fill-opacity="0.3" style="mix-blend-mode:multiply"/>
<path d="M108.5 18H36.5C31.7261 18 27.1477 19.8964 23.7721 23.2721C20.3964 26.6477 18.5 31.2261 18.5 36V108C18.5 112.774 20.3964 117.352 23.7721 120.728C27.1477 124.104 31.7261 126 36.5 126H108.5C113.274 126 117.852 124.104 121.228 120.728C124.604 117.352 126.5 112.774 126.5 108V36C126.5 31.2261 124.604 26.6477 121.228 23.2721C117.852 19.8964 113.274 18 108.5 18ZM72.5 36C73.6867 36 74.8467 36.3519 75.8334 37.0112C76.8201 37.6705 77.5892 38.6075 78.0433 39.7039C78.4974 40.8003 78.6162 42.0067 78.3847 43.1705C78.1532 44.3344 77.5818 45.4035 76.7426 46.2426C75.9035 47.0818 74.8344 47.6532 73.6705 47.8847C72.5067 48.1162 71.3003 47.9974 70.2039 47.5433C69.1075 47.0892 68.1705 46.3201 67.5112 45.3334C66.8519 44.3467 66.5 43.1867 66.5 42C66.5 40.4087 67.1321 38.8826 68.2574 37.7574C69.3826 36.6321 70.9087 36 72.5 36ZM48.5 36C49.6867 36 50.8467 36.3519 51.8334 37.0112C52.8201 37.6705 53.5892 38.6075 54.0433 39.7039C54.4974 40.8003 54.6162 42.0067 54.3847 43.1705C54.1532 44.3344 53.5818 45.4035 52.7426 46.2426C51.9035 47.0818 50.8344 47.6532 49.6705 47.8847C48.5067 48.1162 47.3003 47.9974 46.2039 47.5433C45.1075 47.0892 44.1705 46.3201 43.5112 45.3334C42.8519 44.3467 42.5 43.1867 42.5 42C42.5 40.4087 43.1321 38.8826 44.2574 37.7574C45.3826 36.6321 46.9087 36 48.5 36ZM114.5 108C114.5 109.591 113.868 111.117 112.743 112.243C111.617 113.368 110.091 114 108.5 114H36.5C34.9087 114 33.3826 113.368 32.2574 112.243C31.1321 111.117 30.5 109.591 30.5 108V66H114.5V108Z" fill="url(#paint0_radial_335_89)" fill-opacity="0.25" style="mix-blend-mode:overlay"/>
<path d="M30.5 65.5H30V66V108C30 109.724 30.6848 111.377 31.9038 112.596C33.1228 113.815 34.7761 114.5 36.5 114.5H108.5C110.224 114.5 111.877 113.815 113.096 112.596C114.315 111.377 115 109.724 115 108V66V65.5H114.5H30.5ZM36.5 18.5H108.5C113.141 18.5 117.592 20.3437 120.874 23.6256C124.156 26.9075 126 31.3587 126 36V108C126 112.641 124.156 117.092 120.874 120.374C117.592 123.656 113.141 125.5 108.5 125.5H36.5C31.8587 125.5 27.4075 123.656 24.1256 120.374C20.8437 117.092 19 112.641 19 108V36C19 31.3587 20.8437 26.9075 24.1256 23.6256C27.4075 20.3437 31.8587 18.5 36.5 18.5ZM76.1112 36.5954C75.0423 35.8812 73.7856 35.5 72.5 35.5C70.7761 35.5 69.1228 36.1848 67.9038 37.4038C66.6848 38.6228 66 40.2761 66 42C66 43.2856 66.3812 44.5423 67.0954 45.6112C67.8097 46.6801 68.8248 47.5132 70.0126 48.0052C71.2003 48.4972 72.5072 48.6259 73.7681 48.3751C75.029 48.1243 76.1872 47.5052 77.0962 46.5962C78.0052 45.6872 78.6243 44.529 78.8751 43.2681C79.1259 42.0072 78.9972 40.7003 78.5052 39.5126C78.0132 38.3248 77.1801 37.3097 76.1112 36.5954ZM52.1112 36.5954C51.0423 35.8812 49.7856 35.5 48.5 35.5C46.7761 35.5 45.1228 36.1848 43.9038 37.4038C42.6848 38.6228 42 40.2761 42 42C42 43.2856 42.3812 44.5423 43.0954 45.6112C43.8097 46.6801 44.8248 47.5132 46.0126 48.0052C47.2003 48.4972 48.5072 48.6259 49.7681 48.3751C51.029 48.1243 52.1872 47.5052 53.0962 46.5962C54.0052 45.6872 54.6243 44.529 54.8751 43.2681C55.1259 42.0072 54.9972 40.7003 54.5052 39.5126C54.0132 38.3248 53.1801 37.3097 52.1112 36.5954Z" stroke="url(#paint1_linear_335_89)" stroke-opacity="0.4" style="mix-blend-mode:hard-light"/>
<defs>
<radialGradient id="paint0_radial_335_89" cx="0" cy="0" r="1" gradientUnits="userSpaceOnUse" gradientTransform="translate(72.5003 18.0452) rotate(90) scale(134.659 134.66)">
<stop stop-color="#FFFEFE"/>
<stop offset="1" stop-color="white" stop-opacity="0"/>
</radialGradient>
<linearGradient id="paint1_linear_335_89" x1="56.4999" y1="18" x2="48.7576" y2="127.919" gradientUnits="userSpaceOnUse">
<stop stop-color="white" stop-opacity="0.8"/>
<stop offset="0.49467" stop-color="#FF0024"/>
<stop offset="1" stop-color="white" stop-opacity="0.8"/>
</linearGradient>
</defs>
</svg>
