<svg width="50" height="25" viewBox="0 0 72 25" fill="none" xmlns="http://www.w3.org/2000/svg">
<path d="M7.77858 23.3357C10.9715 23.3357 13.5304 22.4752 15.4553 20.7542C17.4027 19.0105 18.3765 16.395 18.3765 12.9077C18.3765 9.42035 17.2782 6.64633 15.0816 4.58563C12.9077 2.52493 10.2129 1.49458 6.99733 1.49458C4.93663 1.49458 3.14766 1.55119 1.63045 1.66441V23.064C3.10237 23.2452 5.15175 23.3357 7.77858 23.3357ZM6.99733 0C10.7338 0 13.8588 1.16622 16.3724 3.49866C18.886 5.80846 20.1428 8.95613 20.1428 12.9417C20.1428 14.9571 19.8144 16.746 19.1577 18.3085C18.5237 19.8484 17.6405 21.0826 16.5083 22.011C14.1758 23.8905 11.2659 24.8303 7.77858 24.8303C5.49143 24.8303 2.89857 24.7058 0 24.4567V0.237774C2.3098 0.0792581 4.64224 0 6.99733 0Z" fill="url(#paint0_linear_374_279)"/>
<path d="M27.2906 24.5246V2.47964H28.8531V24.5246H27.2906Z" fill="url(#paint1_linear_374_279)"/>
<path d="M44.211 19.905L51.5819 2.47964H53.2124L43.7354 24.6605H42.8183L33.3413 2.47964H35.0397L43.3618 22.0789C43.475 21.7393 43.7581 21.0146 44.211 19.905Z" fill="url(#paint2_linear_374_279)"/>
<path d="M57.104 16.8819L53.9451 24.5246H52.3486L61.5878 2.34376H62.5049L71.812 24.5246H70.0797L66.8867 16.8819H57.104ZM61.9614 4.85737C61.6217 5.8764 61.316 6.72559 61.0443 7.40494L57.6475 15.5572H66.3432L62.9804 7.43891C62.4596 6.17078 62.1199 5.31027 61.9614 4.85737Z" fill="url(#paint3_linear_374_279)"/>
<defs>
<linearGradient id="paint0_linear_374_279" x1="33.8625" y1="-5.19704" x2="33.8625" y2="31.6012" gradientUnits="userSpaceOnUse">
<stop stop-color="#EBEDE3"/>
<stop offset="0.515625" stop-color="#FF79D3"/>
<stop offset="1" stop-color="#FF536B"/>
</linearGradient>
<linearGradient id="paint1_linear_374_279" x1="33.8625" y1="-5.19704" x2="33.8625" y2="31.6012" gradientUnits="userSpaceOnUse">
<stop stop-color="#EBEDE3"/>
<stop offset="0.515625" stop-color="#FF79D3"/>
<stop offset="1" stop-color="#FF536B"/>
</linearGradient>
<linearGradient id="paint2_linear_374_279" x1="33.8625" y1="-5.19704" x2="33.8625" y2="31.6012" gradientUnits="userSpaceOnUse">
<stop stop-color="#EBEDE3"/>
<stop offset="0.515625" stop-color="#FF79D3"/>
<stop offset="1" stop-color="#FF536B"/>
</linearGradient>
<linearGradient id="paint3_linear_374_279" x1="33.8625" y1="-5.19704" x2="33.8625" y2="31.6012" gradientUnits="userSpaceOnUse">
<stop stop-color="#EBEDE3"/>
<stop offset="0.515625" stop-color="#FF79D3"/>
<stop offset="1" stop-color="#FF536B"/>
</linearGradient>
</defs>
</svg>
